<?xml version="1.0" encoding="UTF-8"?>
<svg id="Layer_2" data-name="Layer 2" xmlns="http://www.w3.org/2000/svg" viewBox="0 0 208.18 43.6">
  <defs>
    <style>
      .cls-1 {
        font-family: PxGrotesk-Bold, 'Px Grotesk';
        font-size: 14.38px;
        font-weight: 700;
        letter-spacing: -.05em;
      }

      .cls-1, .cls-2 {
        fill: #ffd600;
      }
    </style>
  </defs>
  <g id="Layer_1-2" data-name="Layer 1">
    <text class="cls-1" transform="translate(32.33 40.79)"><tspan x="0" y="0">RESEARCH &amp; MARKET NEWS</tspan></text>
    <g>
      <g>
        <polygon points="95.68 1.83 91.05 9.23 91.05 9.23 89.99 9.23 89.99 9.23 85.36 1.83 79.99 1.83 87.34 13.59 80.03 25.27 85.4 25.27 89.99 17.94 89.99 17.94 91.05 17.94 91.05 17.94 95.64 25.27 101.01 25.27 93.7 13.59 101.05 1.83 95.68 1.83"/>
        <path d="m129.43,25.27h4.79l-6.94-23.44h-9.56l-6.94,23.44h4.79l1.48-5h10.91l1.48,5Zm-11.04-9.54l2.85-9.63h2.51l2.85,9.63h-8.22Z"/>
        <path d="m51.05,13.07c1.1-.41,1.97-1.07,2.6-1.96.63-.89.95-2.01.95-3.34,0-1.07-.17-1.98-.52-2.73-.35-.76-.84-1.37-1.46-1.84-.63-.47-1.39-.82-2.27-1.03-.89-.22-1.86-.33-2.91-.33h-13.11v23.44h13.27c1.13,0,2.16-.12,3.09-.36.93-.24,1.72-.63,2.37-1.17.66-.54,1.16-1.25,1.52-2.12.36-.88.54-1.94.54-3.18,0-1.41-.37-2.57-1.1-3.48-.73-.91-1.72-1.54-2.97-1.88Zm-12.25-7.44h9.22c1.28,0,1.92.59,1.92,1.78v1.8c0,.68-.13,1.2-.4,1.55-.27.35-.77.52-1.51.52h-9.22v-5.65Zm11.66,13.75c0,.73-.18,1.26-.55,1.6-.36.34-.92.5-1.66.5h-9.46v-6.41h9.59c1.38,0,2.07.67,2.07,2v2.31Z"/>
        <rect x="103.59" y="1.83" width="4.79" height="23.44"/>
        <path d="m70.08,1.83h-7.51l-6.94,23.44h4.79l1.48-5h10.91l1.48,5h4.79l-6.94-23.44h-2.05Zm-6.83,13.9l2.85-9.63h2.51l2.85,9.63h-8.22Z"/>
      </g>
      <polygon class="cls-2" points="24.54 21.28 24.54 17.61 14.18 17.61 18.17 23.44 7.38 23.44 13.5 15.38 24.54 15.38 24.54 11.72 16.28 11.72 25.18 0 0 0 3.98 5.83 .64 5.83 .64 9.49 10.99 9.49 7.01 3.66 17.8 3.66 11.68 11.72 .64 11.72 .64 15.38 8.9 15.38 0 27.1 25.11 27.1 21.13 21.28 24.54 21.28"/>
    </g>
  </g>
</svg>