<?xml version="1.0" encoding="UTF-8"?><svg id="Layer_2" xmlns="http://www.w3.org/2000/svg" viewBox="0 0 112.2 39.14"><g id="Layer_1-2"><g><g><path d="M9.08,7.74H30.05c.74,0,1.34,.6,1.34,1.34V30.05c0,.74-.6,1.34-1.34,1.34H9.08c-.74,0-1.34-.6-1.34-1.34V9.08c0-.74,.6-1.34,1.34-1.34Z" style="fill:#104f93;"/><rect x="9.41" y="26.37" width="20.45" height="3.44" style="fill:#637eb8;"/><path d="M28.07,17.82h-3.45v-2.22c0-1.41,1.24-1.41,1.24-1.41h2.13v-2.93c-1.36-.24-2.94-.1-2.94-.1-3.88,.26-3.81,3.95-3.81,3.95v2.71h-2.38v3.24h2.38v8.73h3.37v-8.73h3.24l.21-3.24Z" style="fill:#fff;"/></g><path d="M52.02,26.11v1.64c0,2.29,1.2,3.87,4.21,3.87,.7,0,1.53-.07,2.81-.36v-2.28c-1.46,.25-1.87,.3-2.58,.3-1.26,0-1.64-.28-1.64-1.34v-2.02c0-1.07,.38-1.34,1.64-1.34,.7,0,1.12,.05,2.58,.31v-2.28c-1.28-.29-2.11-.36-2.81-.36-3.01,0-4.21,1.58-4.21,3.87Zm-4.86-3.74h-2.62l-.23,2.34h2.4c1.47,0,1.58,.28,1.58,1.23v.4h-1.94c-1.91,0-2.97,.67-2.97,2.53,0,1.58,.91,2.73,2.63,2.73,.63,0,1.58-.1,2.65-.69l.1,.6h2.34v-5.55c0-2.58-.71-3.59-3.93-3.59Zm1.12,6.87c-.42,.19-.75,.38-1.33,.38-.54,0-.78-.27-.78-.78s.26-.62,.85-.62h1.25v1.02Zm-4.66-6.87h-2.12v-1.17c0-.61,.06-.94,.94-.94h1.17v-2.34h-1.87c-2.25,0-3.04,1.13-3.04,3.04v1.4h-1.4v2.34h1.4v6.78h2.81v-6.78h1.87l.25-2.34Zm47.23-.13c-3.3,0-4.1,1.85-4.1,3.76v1.84c0,1.91,.8,3.75,4.1,3.75s4.09-1.85,4.09-3.75v-1.84c0-1.91-.79-3.76-4.09-3.76Zm1.28,5.87c0,.65-.34,1.17-1.29,1.17s-1.28-.52-1.28-1.17v-2.37c0-.65,.33-1.17,1.28-1.17s1.29,.52,1.29,1.17v2.37Zm-18.45-5.87c-.71,0-1.5,.11-2.11,.34v-4.42l-2.8,.47v12.63c1.53,.23,2.34,.35,3.72,.35,3.83,0,4.46-1.61,4.46-3.82v-2.28c0-2.02-.47-3.27-3.27-3.27Zm.47,5.57c0,.87-.19,1.5-1.56,1.5-.38,0-.61,0-1.01-.04v-4.32c.42-.19,.84-.38,1.41-.38,.95,0,1.17,.52,1.17,1.17v2.07Zm30.01-5.44h-3.04l-2.57,4.07v-8.28l-2.81,.47v12.86h2.81v-4.29l2.57,4.29h3.04l-2.81-4.68,2.81-4.44Zm-22.3-.13c-3.3,0-4.1,1.85-4.1,3.76v1.84c0,1.91,.8,3.75,4.1,3.75s4.09-1.85,4.09-3.75v-1.84c0-1.91-.79-3.76-4.09-3.76Zm1.28,5.87c0,.65-.33,1.17-1.28,1.17s-1.29-.52-1.29-1.17v-2.37c0-.65,.33-1.17,1.29-1.17s1.28,.52,1.28,1.17v2.37Zm-19.28-5.87c-3.09,0-3.98,1.64-3.98,3.64v1.87c0,2.29,1.2,3.87,4.21,3.87,1.38,0,2.1-.07,3.51-.36v-2.28c-1.45,.25-2.15,.3-3.27,.3-1.26,0-1.64-.28-1.64-1.34v-.19h5.15v-1.87c0-2.02-.89-3.64-3.97-3.64Zm1.17,3.64h-2.34v-.36c0-.64,.22-1.17,1.17-1.17s1.17,.52,1.17,1.17v.36Z" style="fill:#104f93;"/><path d="M109.78,39.14H2.43c-1.34,0-2.43-1.07-2.43-2.39V2.39C0,1.07,1.09,0,2.43,0H109.78c1.34,0,2.43,1.07,2.43,2.39V36.75c0,1.32-1.09,2.39-2.43,2.39ZM2.43,1.25c-.64,0-1.17,.51-1.17,1.13V36.75c0,.62,.53,1.13,1.17,1.13H109.78c.65,0,1.17-.51,1.17-1.13V2.39c0-.62-.53-1.13-1.17-1.13H2.43Z" style="fill:#104f93;"/></g><text transform="translate(37.86 14.76)" style="fill:#104f93; font-family:Seravek-Medium, Seravek; font-size:11.08px;"><tspan x="0" y="0" style="letter-spacing:-.01em;">F</tspan><tspan x="5.46" y="0" style="letter-spacing:-.01em;">ol</tspan><tspan x="14.82" y="0" style="letter-spacing:-.01em;">l</tspan><tspan x="17.98" y="0" style="letter-spacing:-.01em;">ow us on:</tspan></text></g></svg>