<?xml version="1.0" encoding="UTF-8"?><svg id="Layer_2" xmlns="http://www.w3.org/2000/svg" viewBox="0 0 112.21 35.81"><g id="Layer_1-2"><g><path d="M112.21,34.14c0,.92-.76,1.66-1.7,1.66H1.7c-.94,0-1.7-.74-1.7-1.66V1.66C0,.74,.76,0,1.7,0H110.5c.94,0,1.7,.74,1.7,1.66V34.14Z" style="fill:#42b7e9;"/><path d="M18.54,14.22s-.41-3.77,2.69-5.22c0,0,3.32-1.52,5.42,.97,0,0,2.07-.17,2.87-1.1,0,0-.07,1.35-1.76,2.45,0,0,1.38,.17,2.42-.52,0,0-.59,1.45-2.28,2.25,0,0,1.06,6.26-5.07,11.24,0,0-7.09,6.17-15.25,.74,0,0,3.14,.53,6.74-2.03,0,0-3.11-.14-4.28-3.18,0,0,.86,.21,1.94,0,0,0-3.66-1.28-3.52-4.77,0,0,.86,.48,1.83,.45,0,0-3.14-2.59-1.14-6.08,0,0,2.7,4.46,9.4,4.8Z" style="fill:#fff;"/><path d="M42.98,27.72h-3.38c-.47,0-.87-.16-1.2-.49-.33-.33-.49-.73-.49-1.2v-1.2h4.82c.43,0,.81-.16,1.12-.47,.31-.31,.47-.68,.47-1.11s-.16-.81-.47-1.12c-.31-.31-.69-.46-1.12-.46h-4.81v-2.47c0-.47-.17-.87-.5-1.2-.33-.33-.73-.5-1.2-.5s-.89,.17-1.22,.49c-.33,.33-.5,.73-.5,1.21v6.83c0,1.4,.5,2.6,1.5,3.6,1,1,2.2,1.49,3.61,1.49h3.38c.47,0,.87-.16,1.21-.5,.33-.34,.5-.74,.5-1.2s-.17-.87-.5-1.2c-.34-.33-.74-.5-1.21-.5Zm39.6,0h-1.54c-.47,0-.87-.16-1.2-.49-.33-.33-.49-.73-.49-1.2v-1.2h2.97c.43,0,.81-.16,1.12-.47,.31-.31,.47-.68,.47-1.11s-.16-.81-.47-1.12c-.31-.31-.69-.46-1.12-.46h-2.97v-2.47c0-.47-.17-.87-.5-1.2-.33-.33-.73-.5-1.2-.5s-.89,.17-1.22,.49c-.33,.33-.5,.73-.5,1.21v6.83c0,1.4,.5,2.6,1.5,3.6,1,1,2.2,1.49,3.61,1.49h1.54c.47,0,.87-.16,1.21-.5,.33-.34,.5-.74,.5-1.2s-.17-.87-.5-1.2c-.34-.33-.74-.5-1.21-.5Zm-8.94,0h-1.54c-.47,0-.87-.16-1.2-.49-.33-.33-.49-.73-.49-1.2v-1.2h2.97c.44,0,.81-.16,1.12-.47,.31-.31,.47-.68,.47-1.11s-.15-.81-.47-1.12c-.31-.31-.69-.46-1.12-.46h-2.97v-2.47c0-.47-.17-.87-.5-1.2-.33-.33-.73-.5-1.2-.5s-.89,.17-1.22,.49c-.33,.33-.5,.73-.5,1.21v6.83c0,1.4,.5,2.6,1.5,3.6,1,1,2.21,1.49,3.61,1.49h1.53c.47,0,.87-.16,1.21-.5,.34-.34,.5-.74,.5-1.2s-.17-.87-.5-1.2c-.33-.33-.74-.5-1.21-.5Zm-14.06-6.28c-.44,0-.82,.16-1.13,.47-.31,.31-.47,.69-.47,1.13v3.33c0,.44-.16,.81-.46,1.12-.31,.31-.68,.46-1.12,.46s-.79-.15-1.1-.46c-.31-.31-.46-.68-.46-1.12v-3.33c0-.44-.16-.81-.47-1.13-.31-.32-.69-.47-1.13-.47s-.83,.16-1.15,.48c-.31,.32-.47,.7-.47,1.14v3.31c0,.44-.15,.81-.46,1.12-.31,.31-.67,.46-1.1,.46s-.81-.15-1.12-.46c-.31-.31-.46-.68-.46-1.12v-3.33c0-.45-.16-.83-.47-1.14-.31-.31-.69-.46-1.13-.46s-.82,.15-1.13,.46c-.31,.3-.47,.68-.47,1.13v3.33c0,1.31,.47,2.43,1.4,3.37,.93,.93,2.06,1.4,3.38,1.4,1.2,0,2.26-.41,3.16-1.22,.92,.81,1.98,1.22,3.18,1.22,1.32,0,2.44-.46,3.38-1.4,.93-.93,1.4-2.06,1.4-3.37v-3.33c0-.44-.16-.81-.47-1.13-.31-.31-.69-.47-1.13-.47Zm4.51-4.31c-.47,0-.87,.17-1.21,.5-.33,.33-.5,.73-.5,1.2s.17,.87,.5,1.2c.34,.33,.74,.5,1.21,.5s.87-.17,1.21-.5c.34-.33,.5-.74,.5-1.2s-.17-.87-.5-1.2c-.33-.33-.74-.5-1.21-.5Zm0,4.31c-.47,0-.87,.17-1.21,.5-.33,.33-.5,.74-.5,1.2v6.28c0,.47,.17,.87,.5,1.21,.34,.33,.74,.5,1.21,.5s.87-.16,1.21-.5c.34-.34,.5-.74,.5-1.21v-6.28c0-.47-.17-.87-.5-1.2-.33-.33-.74-.5-1.21-.5Zm40.06,.7c-.31-.31-.68-.46-1.12-.46h-2.33c-1.31,0-2.42,.46-3.35,1.39-.93,.92-1.39,2.04-1.39,3.34v3.14c0,.44,.16,.81,.47,1.12,.31,.31,.68,.46,1.12,.46s.81-.15,1.12-.46c.31-.31,.47-.68,.47-1.12v-3.15c0-.43,.15-.8,.46-1.11,.3-.3,.67-.45,1.11-.45h2.34c.43,0,.81-.16,1.12-.46,.31-.31,.47-.68,.47-1.12s-.16-.81-.47-1.12Zm-10.81,5.06c1.16,0,1.67-.4,1.67-1.51,0-1.41-1.23-4.25-5.29-4.25-5.18,0-5.09,4.58-5.09,4.58,0,1.44,.38,2.56,1.38,3.58,1,1.02,2.27,1.53,3.61,1.53h3.65c.76,0,1.37-.61,1.37-1.37s-.61-1.37-1.37-1.37h-2.96c-2.36,0-2.17-1.19-2.17-1.19h5.18Zm-3.44-3.3s1.69,0,1.69,1.12h-3.4c0-1.12,1.71-1.12,1.71-1.12Z" style="fill:#fff;"/><path d="M37.43,7.31c.08-.17,.27-.26,.56-.26,.11,0,.24,.01,.39,.04,.15,.02,.26,.04,.33,.04,.13,0,.25-.05,.35-.16,.1-.11,.15-.23,.15-.38,0-.46-.47-.7-1.42-.7-.53,0-.95,.07-1.26,.21-.31,.14-.52,.35-.65,.65-.13,.3-.19,.7-.19,1.21v.49h-.39c-.54,0-.81,.19-.81,.58,0,.17,.07,.32,.2,.42,.13,.11,.32,.16,.56,.16h.45v4.29c0,.32,.08,.56,.23,.73,.15,.17,.34,.25,.57,.25s.44-.08,.59-.25c.15-.17,.23-.41,.23-.73v-4.29h.4c.29,0,.51-.04,.68-.11,.16-.07,.25-.24,.25-.51,0-.37-.31-.56-.93-.56h-.4v-.39c0-.32,.04-.57,.12-.74Zm7.08,1.9c-.28-.29-.63-.52-1.03-.68-.4-.16-.85-.24-1.33-.24s-.92,.08-1.32,.24c-.4,.16-.74,.38-1.02,.67-.28,.29-.5,.64-.65,1.04-.15,.41-.23,.86-.23,1.35s.07,.93,.22,1.33c.15,.4,.37,.75,.65,1.04,.29,.29,.63,.52,1.02,.68,.39,.16,.83,.24,1.32,.24s.94-.08,1.33-.23c.39-.16,.73-.38,1.02-.67,.29-.29,.5-.64,.65-1.05,.15-.41,.23-.85,.23-1.33s-.07-.93-.22-1.33c-.15-.4-.37-.75-.65-1.04Zm-1.19,3.91c-.29,.37-.68,.55-1.17,.55-.32,0-.61-.08-.85-.25-.24-.17-.42-.41-.55-.73-.13-.32-.19-.69-.19-1.11s.06-.8,.2-1.12c.13-.32,.32-.56,.56-.73,.24-.16,.52-.25,.84-.25,.49,0,.88,.18,1.17,.55,.29,.37,.44,.88,.44,1.54s-.15,1.17-.44,1.53Zm4.14-7.23c-.25,0-.44,.08-.58,.25-.14,.17-.22,.41-.22,.73v7.03c0,.32,.07,.56,.22,.73,.15,.17,.34,.25,.58,.25s.44-.08,.59-.25c.15-.16,.23-.41,.23-.74V6.87c0-.33-.08-.57-.23-.74-.15-.16-.35-.25-.59-.25Zm3.29,0c-.25,0-.44,.08-.58,.25-.14,.17-.22,.41-.22,.73v7.03c0,.32,.07,.56,.22,.73,.15,.17,.34,.25,.58,.25s.44-.08,.59-.25c.15-.16,.23-.41,.23-.74V6.87c0-.33-.08-.57-.23-.74-.15-.16-.35-.25-.59-.25Zm7.68,3.32c-.29-.29-.63-.52-1.03-.68-.4-.16-.84-.24-1.33-.24s-.92,.08-1.32,.24c-.4,.16-.74,.38-1.02,.67-.28,.29-.5,.64-.65,1.04-.15,.41-.23,.86-.23,1.35s.07,.93,.22,1.33c.15,.4,.36,.75,.65,1.04s.63,.52,1.02,.68c.39,.16,.83,.24,1.32,.24s.94-.08,1.33-.23c.4-.16,.74-.38,1.02-.67,.29-.29,.5-.64,.65-1.05,.15-.41,.23-.85,.23-1.33s-.07-.93-.22-1.33c-.15-.4-.37-.75-.65-1.04Zm-1.19,3.91c-.29,.37-.68,.55-1.17,.55-.33,0-.61-.08-.85-.25-.24-.17-.42-.41-.55-.73-.13-.32-.19-.69-.19-1.11s.07-.8,.2-1.12c.13-.32,.32-.56,.56-.73,.24-.16,.52-.25,.84-.25,.49,0,.88,.18,1.17,.55,.29,.37,.44,.88,.44,1.54s-.15,1.17-.44,1.53Zm11.38-4.83c-.19,0-.34,.04-.44,.13-.1,.09-.18,.19-.22,.31-.04,.12-.1,.31-.17,.57l-1.07,3.62-.96-3.36c-.1-.34-.18-.57-.23-.71-.05-.14-.15-.26-.29-.38s-.33-.17-.57-.17-.42,.06-.56,.17c-.14,.12-.23,.24-.28,.37-.05,.13-.13,.37-.23,.72l-.96,3.36-1.06-3.62c-.11-.37-.21-.63-.3-.78-.1-.15-.28-.23-.55-.23-.2,0-.37,.07-.51,.21-.14,.14-.21,.29-.21,.47,0,.14,.07,.39,.2,.75l1.31,3.88c.04,.1,.08,.24,.15,.42,.06,.17,.14,.33,.22,.46,.08,.13,.19,.23,.31,.3,.12,.07,.28,.1,.45,.1,.35,0,.59-.11,.73-.33,.14-.22,.27-.55,.38-.99l.9-3.16,.93,3.16c.08,.28,.15,.52,.22,.69,.07,.18,.17,.33,.31,.45,.14,.12,.33,.18,.58,.18s.42-.06,.56-.17c.14-.11,.24-.24,.3-.39,.06-.15,.15-.38,.27-.71l1.32-3.88c.12-.34,.18-.59,.18-.75,0-.18-.07-.34-.21-.47-.14-.13-.31-.2-.5-.2Zm9.8,0c-.24,0-.44,.08-.59,.24-.15,.16-.23,.4-.23,.72v1.97c0,.78-.04,1.28-.14,1.51-.11,.26-.29,.47-.53,.63-.24,.16-.5,.24-.77,.24s-.5-.07-.67-.22c-.16-.14-.28-.34-.34-.6-.06-.25-.09-.57-.09-.95v-2.59c0-.32-.08-.56-.23-.72-.15-.16-.35-.24-.59-.24s-.44,.08-.58,.24c-.15,.16-.22,.4-.22,.73v3.21c0,.64,.1,1.14,.3,1.48,.17,.28,.41,.51,.72,.67,.31,.16,.66,.24,1.05,.24,.32,0,.61-.04,.87-.12,.25-.08,.49-.21,.7-.37,.21-.17,.42-.37,.61-.62v.21c0,.29,.07,.51,.22,.67,.14,.16,.33,.24,.55,.24s.4-.08,.54-.23c.14-.15,.21-.38,.21-.69v-4.69c0-.32-.07-.57-.22-.73-.15-.16-.34-.24-.58-.24Zm6.66,3.07c-.32-.17-.73-.32-1.23-.44-.42-.1-.75-.19-1-.26-.24-.07-.43-.16-.58-.27-.14-.11-.21-.25-.21-.42,0-.19,.1-.34,.29-.47,.19-.12,.44-.19,.73-.19s.51,.05,.68,.14c.17,.09,.31,.22,.43,.38,.15,.19,.28,.33,.4,.43,.12,.09,.26,.14,.42,.14,.23,0,.41-.06,.53-.18,.12-.12,.19-.27,.19-.46,0-.17-.06-.34-.18-.52-.12-.18-.29-.34-.51-.49-.22-.15-.5-.26-.84-.35-.33-.09-.71-.13-1.13-.13-.53,0-.99,.09-1.37,.26-.38,.17-.66,.4-.86,.69-.19,.29-.29,.6-.29,.92,0,.36,.1,.67,.31,.92,.21,.25,.49,.45,.84,.6,.35,.15,.81,.3,1.36,.44,.49,.12,.85,.24,1.06,.37,.22,.13,.32,.34,.32,.62,0,.19-.1,.35-.31,.5-.21,.15-.47,.22-.8,.22-.4,0-.71-.07-.95-.21-.23-.14-.43-.36-.6-.65-.08-.15-.17-.27-.26-.35-.09-.08-.22-.12-.39-.12-.19,0-.35,.06-.48,.19-.13,.13-.19,.28-.19,.46,0,.27,.1,.54,.3,.8,.2,.27,.5,.49,.92,.67,.42,.18,.91,.27,1.49,.27,.61,0,1.13-.08,1.55-.25,.42-.16,.75-.41,.96-.72,.22-.32,.33-.7,.33-1.15,0-.3-.08-.56-.25-.79-.17-.23-.41-.43-.72-.6Zm10.57-2.16c-.29-.29-.63-.52-1.03-.68-.4-.16-.84-.24-1.33-.24s-.92,.08-1.32,.24c-.4,.16-.74,.38-1.02,.67-.28,.29-.5,.64-.65,1.04-.15,.41-.23,.86-.23,1.35s.08,.93,.22,1.33c.15,.4,.37,.75,.65,1.04,.29,.29,.63,.52,1.02,.68,.39,.16,.83,.24,1.32,.24s.94-.08,1.33-.23c.4-.16,.74-.38,1.02-.67,.29-.29,.5-.64,.65-1.05,.15-.41,.23-.85,.23-1.33s-.08-.93-.22-1.33c-.15-.4-.37-.75-.65-1.04Zm-1.19,3.91c-.29,.37-.68,.55-1.17,.55-.32,0-.61-.08-.84-.25-.24-.17-.42-.41-.55-.73-.13-.32-.19-.69-.19-1.11s.07-.8,.2-1.12c.13-.32,.32-.56,.56-.73,.24-.16,.52-.25,.84-.25,.49,0,.88,.18,1.17,.55,.29,.37,.44,.88,.44,1.54s-.15,1.17-.44,1.53Zm9.01-3.12c-.03-.23-.1-.44-.21-.64-.17-.34-.42-.6-.75-.79-.34-.19-.72-.28-1.14-.28s-.83,.09-1.17,.26c-.34,.18-.65,.45-.93,.83v-.2c0-.19-.03-.36-.1-.49-.07-.13-.16-.23-.28-.3-.11-.07-.24-.1-.39-.1-.23,0-.42,.08-.55,.23-.13,.15-.2,.38-.2,.69v4.68c0,.32,.08,.56,.23,.73,.15,.17,.34,.25,.58,.25s.44-.08,.59-.25c.15-.16,.23-.41,.23-.74v-2.03c0-.66,.04-1.11,.12-1.35,.11-.3,.29-.54,.52-.71,.24-.17,.5-.26,.79-.26,.44,0,.74,.14,.89,.42,.15,.28,.22,.69,.22,1.22v2.7c0,.32,.08,.56,.23,.73,.15,.17,.35,.25,.59,.25s.43-.08,.58-.25c.15-.17,.22-.41,.22-.74v-3.01c0-.36-.01-.65-.05-.88Z" style="fill:#fff;"/></g></g></svg>