<?xml version="1.0" ?><svg style="enable-background:new 0 0 512 512;" version="1.1" viewBox="0 0 512 512" xml:space="preserve" xmlns="http://www.w3.org/2000/svg" xmlns:xlink="http://www.w3.org/1999/xlink"><style type="text/css">
	.st0{display:none;fill:#FDFDFD;}
	.st1{fill:#CB2027;}
</style><g id="Layer_1"/><g id="Layer_2"><g><path class="st0" d="M-5.6,4.4c170.7,0,341.3,0,512,0c0,170.7,0,341.3,0,512c-170.7,0-341.3,0-512,0C-5.6,345.8-5.6,175.1-5.6,4.4    z"/><path class="st1" d="M170.7,392.6c0.1-9.1,0.6-19.8,2.5-30.4c1.2-6.5,2.9-12.9,4.4-19.3c7.4-31.1,14.7-62.2,22.1-93.4    c0.3-1.2,0.2-2.3-0.2-3.5c-3-8.3-5.1-16.8-5.7-25.7c-0.3-5.8,0.2-11.5,0.9-17.2c1-9,5.3-16.6,10.5-23.7c2.9-4,6.4-7.5,10.4-10.3    c3.8-2.7,7.8-4.9,12.5-5.1c8.4-0.5,16.3,1.1,22.6,7.3c3.6,3.6,5.4,8.2,6.6,13c1.9,7.6,1.7,15.2,0.2,22.8    c-2.3,11.2-5.5,22-8.9,32.9c-2.1,6.9-4.3,13.8-6.4,20.8c-1.8,6-2.7,12.1-1.5,18.3c0.9,5.3,3.2,9.7,7.3,13.4    c4.2,3.8,8.6,7,13.9,8.9c8,2.9,16,2.4,24.1-0.2c7.3-2.4,13.3-6.6,18.7-11.9c8.9-8.7,15.4-19,20.2-30.3    c5.3-12.4,8.5-25.3,10.2-38.6c1.2-9.3,1.6-18.7,0.8-28.1c-1.4-16.2-6-31.3-16.5-44.1c-10.7-13.1-24.5-21.2-41-24.7    c-10.4-2.2-20.9-3.4-31.5-3c-26,1-48,10.9-65.8,29.9c-14,15-22.2,32.9-25.5,53c-2.5,14.9-0.5,29.3,6.7,42.8c1.8,3.5,4,6.7,6.7,9.6    c2.6,2.8,3.4,6,2.2,9.8c-1.6,5.2-2.9,10.6-4.3,15.8c-0.2,0.8-0.5,1.5-0.7,2.2c-0.7,2.5-2.4,3.7-5,3.9c-2.2,0.2-4.4-0.2-6.5-1.1    c-4.6-1.8-8.4-4.7-12.1-7.9c-13.1-11.5-21.1-25.9-24.5-42.9c-2.5-12.5-2.4-25.2-0.7-37.8c1.1-8,2.9-15.8,5.2-23.5    c4.6-15.4,12.7-28.8,23.4-40.7c18.4-20.5,41.3-33.6,67.6-41c13.7-3.8,27.7-6,41.9-6.2c35.8-0.5,67.3,10.8,94.3,34.4    c4.4,3.9,8.1,8.4,11.4,13.2c6.4,9.1,12,18.6,16.2,29c4.4,10.9,6.6,22.2,7,33.9c0.3,10.2-0.4,20.3-1.5,30.4    c-1,9.2-2.5,18.3-5.3,27.2c-6.7,21.4-17.7,40.3-33.9,56c-12.7,12.3-27.4,20.9-44.8,24.8c-12.2,2.7-24.5,3.3-36.8,0.2    c-13.1-3.3-24.1-10-32.3-20.8c-0.3-0.4-0.5-1.2-1.2-1c-0.6,0.2-0.6,0.9-0.8,1.4c-2,7.8-4,15.6-6,23.3c-2.6,10.1-5.2,20.2-7.8,30.4    c-1.5,5.9-3.8,11.6-6.5,17.1c-7.5,15.4-16.4,29.9-26.5,43.7c-0.6,0.9-1.3,1.7-2,2.5c-0.8,1-1.8,1.7-3.1,1.4    c-1.4-0.3-1.8-1.5-2-2.7C171.8,418.7,170.7,406.5,170.7,392.6z"/></g></g></svg>