<?xml version="1.0" ?><svg style="enable-background:new 0 0 512 512;" version="1.1" viewBox="0 0 512 512" xml:space="preserve" xmlns="http://www.w3.org/2000/svg" xmlns:xlink="http://www.w3.org/1999/xlink"><style type="text/css">
	.st0{display:none;fill:#FEFEFE;}
	.st1{fill:#00AEEF;}
	.st2{fill:#FFFFFF;}
</style><g id="Layer_1"/><g id="Layer_2"><g><path class="st0" d="M0.4,512.4c0-170.7,0-341.3,0-512c170.7,0,341.3,0,512,0c0,170.7,0,341.3,0,512    C341.8,512.4,171.1,512.4,0.4,512.4z"/><path class="st1" d="M422.9,256.4c0,5.7-0.2,11.5-0.8,17.2c-0.4,3.5-0.8,6.9-1.4,10.3c-0.2,0.9,0,1.6,0.4,2.4    c4.2,7.5,7.3,15.5,9.4,23.9c2.6,10.2,3.5,20.5,2.9,31c-0.3,4-0.9,8-1.7,12c-1.6,8.6-4.3,16.7-8.2,24.5c-4.2,8.6-9.6,16.4-16,23.5    c-5,5.4-10.4,10.2-16.4,14.4c-9.2,6.4-19.2,11.2-30.1,14.1c-6.4,1.7-12.9,3-19.4,3.3c-8.5,0.4-17,0.2-25.4-1.4    c-7-1.4-13.8-3.4-20.3-6c-3.2-1.3-6.3-2.9-9.3-4.6c-0.7-0.4-1.3-0.5-2.2-0.4c-6.1,1.1-12.3,1.6-18.6,2c-5.2,0.3-10.4,0.4-15.5,0.2    c-7.8-0.3-15.7-1.1-23.4-2.6c-9.8-1.8-19.3-4.4-28.6-7.9c-10-3.8-19.5-8.5-28.6-14c-7-4.3-13.7-9.1-20-14.4    c-5.5-4.6-10.6-9.7-15.5-14.9c-6.2-6.6-11.6-13.8-16.6-21.3c-5.2-7.9-9.7-16.2-13.5-24.9c-2.7-6.1-5-12.4-6.9-18.8    c-1.5-5.2-2.9-10.4-3.8-15.7c-0.8-4.8-1.6-9.6-2.1-14.5c-0.9-8.1-0.9-16.2-0.7-24.2c0.1-6.8,0.7-13.6,2-20.3c0.2-1.1,0.1-2-0.4-3    c-3.8-6.8-6.7-13.9-8.7-21.4c-2.7-9.9-3.9-20-3.5-30.3c0.3-7.2,1.4-14.4,3.3-21.4c1.6-6.1,3.8-12,6.5-17.7    c3.8-7.7,8.4-14.8,14-21.3c4.1-4.8,8.5-9.1,13.4-13c5.1-4.1,10.5-7.7,16.4-10.7c7.7-4,15.7-6.9,24.1-8.6    c6.1-1.3,12.3-2.3,18.5-2.1c3.6,0.1,7.1-0.2,10.7,0.1c7.2,0.6,14.3,1.9,21.2,4c6.7,2,13.1,4.7,19.1,8.2c0.7,0.4,1.3,0.4,2,0.2    c5.8-1.1,11.6-1.5,17.5-1.9c5.5-0.4,10.9-0.3,16.4-0.2c3.5,0.1,6.9,0.5,10.4,0.8c6.9,0.5,13.6,1.8,20.3,3.3    c7.4,1.6,14.5,3.8,21.6,6.4c6.6,2.5,13,5.3,19.2,8.7c4.5,2.4,8.9,5,13.2,7.8c6.4,4.1,12.5,8.7,18.1,13.7    c7.2,6.3,13.9,13.1,20,20.6c8.7,10.7,16,22.2,21.8,34.7c3.4,7.3,6.3,14.9,8.6,22.6c1.4,4.8,2.8,9.7,3.7,14.6    c0.9,5.2,1.9,10.4,2.4,15.7C422.6,244.8,423,250.6,422.9,256.4z"/><path class="st2" d="M256.9,360.8c-13.6-0.1-27.2-1.6-40.4-5.8c-10.3-3.3-19.8-8.2-28-15.4c-5.9-5.2-10.9-11.2-13.9-18.7    c-2.2-5.5-2.6-11.2-1.7-17c1-6.7,5.4-11,11.2-13.8c5.4-2.6,11.1-2.6,16.9-1.1c2.9,0.8,5.2,2.4,7.4,4.5c3.8,3.5,7,7.7,10.1,11.9    c2.2,3,4.5,5.9,7.3,8.4c5.6,4.9,12.1,7.9,19.3,9.4c9.3,1.9,18.5,1.7,27.5-1.5c3.7-1.3,7.2-3.1,10.2-5.6c5-3.9,7.8-9.1,8.8-15.3    c0.2-1.5-0.1-3-0.4-4.4c-1.3-4.9-4.2-8.6-8.7-11c-3-1.6-6.1-2.7-9.3-3.6c-15.8-4-31.7-8-47.5-12c-8.9-2.3-17.7-4.9-25.7-9.5    c-9.5-5.4-17.1-12.7-21.7-22.7c-1.8-4-2.9-8.2-3.5-12.5c-1.2-8.4-1.2-16.7,0.4-25c2.2-11.2,7.7-20.5,16.2-28.1    c7.8-7.1,16.9-11.7,26.9-14.8c12.1-3.7,24.6-5,37.2-4.8c12.6,0.2,24.9,2.3,36.8,6.5c9.4,3.4,18.3,7.8,26,14.3    c4.5,3.8,8.5,8.2,11.3,13.5c2.8,5.5,3.6,11.4,2.5,17.4c-1.1,6-5.1,9.9-10.3,12.5c-6,2.9-12.4,3-18.7,1.3c-2.8-0.7-5.1-2.6-7.2-4.5    c-2.8-2.5-5.3-5.3-7.8-8.2c-6.2-7.3-14-11.9-23.4-13.9c-8.2-1.8-16.5-2.2-24.7-0.1c-4.5,1.1-8.8,2.7-12.1,5.9    c-4.5,4.3-6.8,9.6-5.7,15.9c0.6,3.3,2.4,6,5.1,8.1c3.8,2.8,8.2,4.6,12.7,5.9c8.6,2.6,17.4,4.4,26.1,6.4c9.3,2.1,18.6,3.9,27.8,6.4    c9.6,2.6,18.6,6.5,26.6,12.6c12.3,9.4,18.9,21.9,20.4,37.2c1,10.7-0.2,21.1-4.5,31.1c-5.5,12.9-15,22.1-27,28.9    c-8.5,4.8-17.8,7.5-27.3,9.2C273.6,360.2,265.3,360.7,256.9,360.8z"/></g></g></svg>