<?xml version="1.0" ?><svg style="enable-background:new 0 0 512 512;" version="1.1" viewBox="0 0 512 512" xml:space="preserve" xmlns="http://www.w3.org/2000/svg" xmlns:xlink="http://www.w3.org/1999/xlink"><style type="text/css">
	.st0{display:none;fill:#FDFDFD;}
	.st1{fill:#00ACED;}
</style><g id="Layer_1"/><g id="Layer_2"><g><path class="st0" d="M0.4,0.4c170.7,0,341.3,0,512,0c0,170.7,0,341.3,0,512c-170.7,0-341.3,0-512,0C0.4,341.8,0.4,171.1,0.4,0.4z"/><path class="st1" d="M103.1,353.9c33.6,2.7,64-5.2,91.1-26c-2.2-0.8-4.1-0.7-5.9-1c-24.4-4.5-41.6-18-50.8-41.2    c-0.2-0.5-0.4-1.1-0.5-1.6c0-0.1,0.1-0.3,0.1-0.5c8.6,0.6,17.2,0.9,25.7-1.5c-14.1-4.1-26.1-11.4-35.2-23    c-9.1-11.6-12.9-25.1-13.6-39.9c8.7,4.4,17.6,7.1,27.3,7.5c-0.4-0.9-1.1-1.3-1.7-1.7c-9.9-8.5-17.5-18.6-21.8-31    c-5-14.2-4.2-28.4,0.9-42.4c1.1-3.1,2.5-6.2,4.1-9.4c16.2,20,36,35.2,58.7,46.7c22.7,11.4,46.8,17.7,72.2,19.5    c-0.3-2.6-0.7-4.9-0.9-7.2c-1.4-15.8,1.5-30.6,10.8-43.7c5.8-8.2,13.5-14.3,22.3-19.2c10.8-6.1,22.4-7.9,34.6-7.2    c15.3,0.9,28.5,6.6,39.7,17c0.5,0.4,1,0.9,1.4,1.3c0.7,0.8,1.4,1,2.5,0.7c13.2-2.9,25.9-7.1,37.4-14.5c0.2-0.1,0.5-0.2,1.2-0.6    c-2.3,7.3-5.8,13.6-10.1,19.4c-4.3,5.9-9.5,10.9-15.5,15.2c11.6-1.4,22.9-4.1,33.7-9.2c-0.1,0.9-0.6,1.4-0.9,1.9    c-3.1,4.6-6.7,8.8-10.5,12.9c-5.7,6.1-11.8,11.8-18.2,17.1c-0.9,0.7-1.4,1.4-1.3,2.7c0.5,6.8,0,13.5-0.7,20.2    c-1,10.8-3,21.5-5.8,32c-12.3,45.2-37.7,81-76.6,107.2c-7.6,5.1-16,9-24.4,12.5c-14.7,6.2-30,10.5-45.8,13    c-11.8,1.9-23.6,2.6-35.5,2.1c-31.3-1.3-60.1-10.7-86.7-27.1c-0.4-0.3-0.8-0.6-1.2-0.9C103.1,354.1,103.1,354,103.1,353.9z"/></g></g></svg>