<?xml version="1.0" ?><svg style="enable-background:new 0 0 512 512;" version="1.1" viewBox="0 0 512 512" xml:space="preserve" xmlns="http://www.w3.org/2000/svg" xmlns:xlink="http://www.w3.org/1999/xlink"><style type="text/css">
	.st0{display:none;fill:#FEFEFE;}
	.st1{fill:#B035AA;}
	.st2{fill:#6743C4;}
	.st3{fill:#5354CB;}
	.st4{fill:#BE3B8D;}
	.st5{fill:#972FBD;}
	.st6{fill:#7736C7;}
	.st7{fill:#C94272;}
	.st8{fill:#F2CC57;}
	.st9{fill:#E4613F;}
	.st10{fill:#D74953;}
	.st11{fill:#E78947;}
	.st12{fill:#D2465F;}
	.st13{fill:#D84B50;}
	.st14{fill:#E2513D;}
	.st15{fill:#ECA44E;}
	.st16{fill:#EFBA53;}
	.st17{fill:#EEB752;}
	.st18{fill:#4B65CA;}
	.st19{fill:#E67E45;}
	.st20{fill:#8F38AB;}
	.st21{fill:#E46641;}
	.st22{fill:#EA974A;}
	.st23{fill:#7B3BBA;}
	.st24{fill:#AC3990;}
	.st25{fill:#C23F74;}
	.st26{fill:#EDAA4F;}
	.st27{fill:#FFFFFF;}
	.st28{fill:#6E3BC9;}
	.st29{fill:#D54857;}
	.st30{fill:#C03C89;}
	.st31{fill:#E46741;}
	.st32{fill:#C84175;}
	.st33{fill:#DF4F41;}
	.st34{fill:#E3573D;}
	.st35{fill:#D54859;}
	.st36{fill:#E67944;}
	.st37{fill:#9A36A5;}
	.st38{fill:#9333B4;}
	.st39{fill:#E78547;}
	.st40{fill:#AA3893;}
	.st41{fill:#BD3D7E;}
	.st42{fill:#AE33AA;}
	.st43{fill:#A030B3;}
	.st44{fill:#EA984A;}
	.st45{fill:#8238B7;}
	.st46{fill:#AF369B;}
	.st47{fill:#D54858;}
	.st48{fill:#CE4466;}
	.st49{fill:#DC4D48;}
</style><g id="Layer_1"/><g id="Layer_2"><g><path class="st0" d="M0.4,0.4c170.7,0,341.3,0,512,0c0,170.7,0,341.3,0,512c-170.7,0-341.3,0-512,0C0.4,341.8,0.4,171.1,0.4,0.4z"/><path class="st1" d="M426.7,127.5c1.8,3.4,2.8,7.1,3.7,10.8c1.7,7.2,2.7,14.5,2.8,21.9c0.5,44.7,0.2,89.4,0.3,134.1    c0,0.6-0.1,1.1-0.1,1.7c-1.1-0.4-0.9-1.4-0.8-2.1c0.7-5-1.1-9.1-3.8-13.3c-8.3-13.3-17.3-26.2-27.4-38.2c-4.2-5-8.4-10.1-13-14.9    c-0.7,0.6-0.4,1.3-0.4,1.9c0,5,0,10.1,0,15.1c0,0.9,0.5,2-0.8,2.5c-1-0.9-0.7-2.1-0.7-3.2c0-9.6,0.2-19.2-0.1-28.7    c-0.2-8.2-0.4-16.4-1.6-24.6c-1.9-13.1-6-25.4-14.3-36c-0.4-0.6-0.9-1.1-1-1.8c0.2-1.3,1.3-1.6,2.2-2c3.7-2.1,7.9-3.1,11.8-4.8    c9.5-4.1,19.2-7.7,28.7-11.9C417,131.9,421.9,129.7,426.7,127.5z"/><path class="st2" d="M80.6,159.9c-0.1-4.6,0.3-9.1,1.3-13.6c8-1.6,15.8-4.1,23.7-6.4c8.5-2.5,17-5.1,25.5-7.8    c12.9-4.1,25.7-8.3,38.1-13.6c3.5-1.5,7.2-2.6,10.8-4c9.9-4,19.3-9,28.6-14.2c7.8-4.3,15-9.5,21.9-15c1.9-1.5,3.8-3,4.6-5.4    c0.6,0,1.3-0.1,1.9-0.1c21.5,0,42.9,0,64.4,0c0.6,0,1.3,0.1,1.9,0.1c0,0.2,0,0.4-0.3,0.5c-3,0.6-6.1,0.5-9.1,0.2    c-5.7-0.5-10.3,0.9-14.6,4.9c-4.7,4.4-10.5,7.4-16,10.9c-11.1,7-22.9,12.8-34.8,18.3c-3.2,1.5-6.4,3.1-9.5,4.7    c-3.5,1.8-7.1,3.4-10.6,5.2c-0.4,0.2-1,0.3-1.2,0.8c1.2,0.5,2.6-0.3,3.6,0.8c-0.6,1.5-1.9,0.9-2.9,1c-8.1,0.1-16.2,0.8-24.1,2.5    c-13.6,3-25.8,8.6-35.5,19c-1.4,1.5-2.8,3.2-4.7,4.3c-6.7,1.3-13.2,3.5-19.8,5.2c-9.2,2.4-18.4,4.7-27.6,7.2    c-4.3,1.1-8.5,2.3-12.8,3.3c-2.9,0.7-3.1,0.4-3-2.5C80.5,164.1,80.2,162,80.6,159.9z"/><path class="st3" d="M235.1,80c0.8,0.5,0.6,1.1,0.1,1.5c-1.1,1.2-2.1,2.5-3.4,3.5c-2,1.6-3.8,3.6-6.3,4.7    c-0.2,0.1-0.4,0.2-0.5,0.4c-2.8,2.7-6.3,4.6-9.5,6.8c-4.4,3-9.2,5.3-13.8,8c-2.6,1.5-5.2,2.8-8,4c-1.6,0.7-3.2,1.6-4.7,2.4    c-4.5,2.4-9.3,4.3-14.1,6c-8.7,3.1-17.1,6.8-25.9,9.6c-4.4,1.4-8.7,2.9-13.1,4.3c-5.6,1.9-11.2,3.4-16.8,5.2    c-4.3,1.4-8.7,2.6-13,4c-3.8,1.2-7.7,2.2-11.6,3.3c-3.6,1-7.2,2.1-10.9,2.9c-0.7,0.2-1.4,0.5-1.9-0.2c0.2-3.2,1-6.3,1.8-9.3    c1.3-4.7,2.7-9.3,5.1-13.6c0.6-1.1,1.8-1.3,2.9-1.7c7.1-2.6,14.3-5,21.4-7.9c7.2-3,14.3-6.2,21.2-10c4.9-2.7,9.8-5.5,14.2-8.9    c4.4-3.4,8.5-7.1,10.8-12.3c0.4-1,1.1-1.8,2.1-2.4c3.6-0.3,7.2-0.3,10.8-0.3c20.4,0,40.9-0.1,61.3-0.1    C234,79.9,234.6,79.9,235.1,80z"/><path class="st4" d="M387.4,247.1c0-6.3,0-12.5,0.1-18.8c0-0.7-0.4-1.7,0.3-1.9c0.9-0.4,0.9,0.9,1.4,1.3c0.1,0.1,0.2,0.2,0.3,0.3    c4,3.8,7.3,8.3,11,12.4c3.3,3.7,6.1,7.8,9.3,11.6c2.9,3.5,5.3,7.3,8.1,10.9c1.4,1.8,2.5,3.9,3.8,5.9c1.6,2.6,3.5,5,5.1,7.6    c2,3.2,3.6,6.6,6,9.5c0.5,0.5,0.3,1.2,0.3,1.8c0,2.2,0,4.4,0,6.6c0,0.6-0.2,1.3,0.3,1.8c0,0.6,0.1,1.1,0.1,1.7    c0,16.9-0.1,33.8-0.1,50.7c0,8-0.6,16-2.4,23.9c-0.5,2.1-0.8,4.2-1.7,6.1c-1.2,0.1-1.4-0.9-1.6-1.6c-2.3-8.1-5.1-16.1-8-24    c-4.7-12.6-10.4-24.8-16.9-36.7c-3.4-6.2-7.1-12.3-10.8-18.3c-1.2-2-2.8-3.7-3.8-6.3c-0.3,1.2-0.1,2-0.4,2.7    c-0.4,1-0.9,0.8-1.2-0.1c-0.3-1-0.2-2-0.2-3c0-5.5,0-10.9,0-16.4c0-8.4,0.7-16.8,0.4-25.3C386.7,248.7,386.7,247.8,387.4,247.1z"/><path class="st5" d="M426.7,127.5c-0.3,0.8-1.1,1.1-1.8,1.4c-3,1.4-6.1,2.7-9.1,4.1c-5,2.5-10.3,4.3-15.4,6.6    c-3.7,1.7-7.4,3.2-11.2,4.4c-2.1,0.6-3.9,1.8-5.8,2.6c-2.8,1.2-5.7,2.1-8.5,3.2c-1.8,0.8-3.5,1.9-5.3,2.6c-0.9,0.2-1.2-0.5-1.7-1    c-11.9-13.4-27.1-20.2-44.5-22.7c-3.1-0.4-6.2-0.9-9.3-0.9c-0.7,0-1.5,0.1-1.8-0.8c4-1.7,7.9-3.8,11.9-5.5c8-3.4,15.7-7.2,23.5-11    c8.2-4,16.3-8.3,24.3-12.8c4.8-2.7,9.4-5.5,14.1-8.3c0.7-0.5,1.4-1,1.8-1.7c3.1,1,5.8,2.6,8.5,4.3c8.5,5.1,15.8,11.6,21.6,19.7    C421.5,116.4,424.4,121.8,426.7,127.5z"/><path class="st6" d="M387.8,87.5c0.5,0.7,0.2,1.1-0.5,1.5c-1.8,1-3.5,2.1-5.3,3.2c-7.7,4.6-15.4,8.9-23.4,13    c-4.1,2.1-8.3,4-12.3,6.2c-5.7,3.1-11.8,5.4-17.5,8.6c-0.5,0.3-1.1,0.4-1.6,0.6c-3.6,1.4-7,3-10.5,4.6c-0.1,0-0.1,0.1-0.2,0.1    c-1.2,1.3-2.9,1.4-4.5,1.4c-2.4,1.2-5.1,0.7-7.5,0.5c-5.3-0.5-10.5-0.4-15.8-0.3c-13.1,0.2-26.3-0.9-39.4-0.4    c-8.4,0.3-16.8,0.4-25.1,0.4c-1.1,0-2.1,0.1-3.2-0.2c-0.6-0.3-1.1-0.6-0.2-1.1c0.7-0.4,1.5-0.3,2.3-0.3c5,0,10,0,14.9,0    c1.3,0,2.5-0.3,3.6-1.1c2-1.4,4.4-2.1,6.7-2.7c4.8-1.2,9.2-3.4,13.6-5.4c12.5-5.7,24.8-11.7,36.6-18.7c7.8-4.6,15.5-9.3,22.7-14.7    c0.6-0.5,1.4-0.8,1.7-1.6c-0.6-0.5-1.4-0.3-2-0.3c-5,0-10.1,0-15.1,0c-0.9,0-1.9,0.2-2.6-0.6c0-0.1,0-0.2,0-0.2    c0.5,0,1-0.1,1.5-0.1c11.6,0,23.3-0.1,34.9,0.1c6.5,0.1,13.1,0,19.6,0.6c1.7,0.2,3.4,0.4,5.1,0.6c0.4,0.1,0.9,0,1.3,0.2    c0.4,0,0.8,0.1,1.2,0.1c0.4,0.2,0.9,0,1.3,0.3c0.4,0,0.8,0.1,1.2,0.1c0.4,0.2,0.9,0,1.3,0.3c0.3,0,0.5,0.1,0.8,0.1    c0.4,0.3,0.9,0,1.3,0.3C378.1,83.9,383,85.6,387.8,87.5z"/><path class="st7" d="M387.1,294.8c0.8-1.4,0-2.9,0.5-4.3c0.6-0.1,0.8,0.3,1,0.7c2.1,4.3,5,8,7.4,12.1c2,3.3,4,6.7,5.9,10.1    c2.6,4.9,5.3,9.7,7.7,14.7c1.2,2.6,2.2,5.4,3.6,7.9c2.4,4.4,4,9,5.8,13.6c1.8,4.6,3.4,9.3,5.1,14c1.6,4.3,2.8,8.7,4.1,13.1    c0.2,0.7,0.3,1.4,1.1,1.7c-1.5,5.8-4,11.1-6.9,16.2c-4.3,7.6-9.9,14.2-16.6,19.8c-0.5,0.4-1,1.1-1.7,1.1c-1.1-0.5-1.1-1.6-1.3-2.5    c-1-6.6-2.4-13.1-4.2-19.6c-2-7.3-4.1-14.6-6.7-21.7c-2-5.3-4.2-10.6-6-15.9c-1.2-3.4-3.2-6.5-4.5-9.9c-0.4-1-1.3-1.4-1.8-2.3    c-0.2-0.8,0.2-1.5,0.4-2.3c3.4-9,5.1-18.3,5.6-27.9c0.1-2.1,0.3-4.2,0.6-6.4c0.5-1.7,0.2-3.5,0.2-5.3c0-1.7,0-3.3,0-5    C386.4,296.2,386.4,295.4,387.1,294.8z"/><path class="st8" d="M229.5,433c-0.6,0-1.1,0.1-1.7,0.1c-20.9,0-41.8,0.1-62.7-0.2c-11.3-0.2-22.5-1.4-33.3-5    c-2.9-1-5.9-2-8.6-3.7c0.3-2.3,2.1-3.8,3.3-5.5c3.7-5.2,8.4-9.5,13.6-13.1c8.7-6.1,18.4-10,29.2-10.7c10.2-0.7,19.9,1.1,29.2,5.3    c5.2,2.4,9.9,5.6,14.1,9.4c2.4,2.2,4.6,4.6,6.9,7c3.2,3.4,5.5,7.6,7.7,11.7C228.1,429.8,229.4,431.2,229.5,433z"/><path class="st9" d="M81.1,361c0-0.4-0.1-0.8-0.1-1.2c-0.4-0.8,0.1-1.8-0.3-2.6c-0.2-1.8-0.4-3.7-0.4-5.5    c-0.1-15.9-0.1-31.9-0.2-47.8c0-0.4,0.1-0.8,0.1-1.3c1.8-1.6,4.1-2.6,6.1-3.9c4.3-2.7,8.5-5.4,13.2-7.4c5.9-2.6,11.5-5.8,17.7-7.8    c2.3-0.7,4.6-1.5,6.9-2.2c0.9-0.3,1.9-0.9,2.6,0.4c0.2,0.5,0.3,1,0.2,1.5c-0.2,6,0.4,12,0.5,18.1c0.1,8.4,0.5,16.9,2,25.2    c0.2,0.9,0.4,1.8,0.4,2.7c-0.1,0.8-0.1,1.6-1.2,1.7c-2.2,0.2-4,1.4-5.9,2.3c-10.6,5.1-20.4,11.3-29.2,19c-3.3,2.8-6.5,5.7-9.4,8.9    C83.2,362,82.1,362.8,81.1,361z"/><path class="st10" d="M126.3,281.2c-2.1,0.6-4.3,0.9-6.3,1.8c-2,0.9-4.1,1.6-6.2,2.4c-1.9,0.7-3.7,1.6-5.6,2.3    c-1.6,0.6-3.1,1.6-4.6,2.4c-0.4,0.2-0.8,0.6-1.3,0.8c-4.9,1.6-9.2,4.5-13.6,7.1c-2.8,1.6-5.3,3.8-8.5,4.6c0-0.5-0.1-1-0.1-1.5    c0-17.2,0-34.4,0-51.6c0-0.5,0.1-1,0.1-1.5c1.6-1.4,3.7-1.7,5.7-2.3c12.2-3.5,24.5-7,36.9-9.8c2.5-0.6,2.9-0.4,3.9,1.5    c0.2,0.9,0.2,1.8,0.2,2.8c0,12.6,0,25.1,0,37.7C127,278.9,127.2,280.2,126.3,281.2z"/><path class="st11" d="M81.1,361c0.9,0.8,1.6,1,2.5-0.1c0.9-1.1,1.8-2.3,2.8-3.2c1.7-1.5,3.2-3.2,5-4.6c2.1-1.6,4.1-3.5,6.2-5.1    c3.6-2.8,7.2-5.4,11.1-7.8c4.4-2.8,8.9-5.2,13.6-7.4c1.6-0.8,3.2-1.5,4.8-2.2c0.5-0.3,1.1-0.4,1.6-0.2c0.5,0.2,0.6-0.2,0.7-0.6    c0.8,0,0.8,0.7,1,1.2c2.1,9.1,5.7,17.5,11,25.2c0.2,0.2,0.3,0.5,0.3,0.8c0.1,1.5-1.1,1.9-2.1,2.3c-4.2,1.5-8,3.6-11.8,5.7    c-5.5,3-10.7,6.7-15.5,10.8c-6.6,5.5-12.3,11.9-17.4,18.8c-0.6,0.9-1.4,1.7-2.6,1c-2.9-4.5-5-9.3-6.8-14.3    c-2.2-6.2-3.4-12.5-4.2-19C81.1,361.8,81.1,361.4,81.1,361z"/><path class="st12" d="M379.7,343.9c0.4-0.1,0.8-0.4,1.1,0.1c0.5,0.9,1.1,1.7,1.5,2.6c3.3,6.8,6,13.9,8.7,21    c2.2,5.8,4.2,11.7,5.9,17.7c1.5,5.4,3,10.9,4.2,16.4c1,4.2,1.5,8.5,2.5,12.7c0.1,0.4,0.3,0.8,0.4,1.2c-7,6.1-15.2,10-23.9,12.9    c-0.4,0.1-0.8,0.2-1.2,0.3c-1-1.9-1.2-3.9-1.2-6c0-2-0.1-4-1-5.8c-0.8-1.5-0.6-3.2-0.8-4.8c-0.5-3-1.5-5.9-1.8-9    c0-0.4-0.1-0.7-0.2-1c-3.2-9.5-5.9-19.1-9.6-28.4c-0.7-1.8-1.4-3.7-1.8-5.7c0-1,0.7-1.7,1.3-2.3c6.3-5.9,11.2-12.8,14.8-20.6    C378.8,344.6,378.8,343.8,379.7,343.9z"/><path class="st13" d="M362.7,367.8c1.3,2.5,1.8,5.3,2.9,7.9c0.9,1.9,1.2,4,2.2,5.9c0.5,0.8,0.3,1.7,0.6,2.5    c1.5,3.9,2.8,7.9,4,11.8c0.1,0.3,0.4,0.6,0.3,0.8c-0.6,2,1,3.3,1.4,4.9c0,0.1,0.1,0.1,0.1,0.2c0.2,2.5,1.2,4.9,1.6,7.4    c0.2,1.1,0.2,2.2,0.6,3.3c0.2,0.5,0.3,1,0.3,1.5c-0.1,1.4,0.3,2.6,0.9,3.8c0.6,1.3,0.9,3.1,0.6,4.5c-0.2,1.3,0.1,2.4,0.3,3.5    c0.2,1,0.3,1.9,0.3,2.9c-0.7,0.2-1.3,0.5-2.1,0.5c-0.4,0.3-0.9,0-1.3,0.4l-0.2,0.1l-0.2,0c-0.4,0.3-0.9,0-1.3,0.3    c-0.8,0.2-1.6,0.6-2.5,0.5c-0.5,0.4-1.2,0-1.7,0.4c-2.3,0.7-4.6,0.9-6.9,1.1c-3.5,0.4-7,0.8-10.6,0.7c-0.5-1.5-0.1-3.1-0.2-4.6    c-0.7-6.3-2.3-12.4-3.7-18.5c-2.3-9.5-5.5-18.7-8.9-27.9c-0.1-1,0.7-1.2,1.3-1.4c7.6-2.7,14.6-6.7,20.8-11.9    C361.6,368,362,367.5,362.7,367.8z"/><path class="st14" d="M339.2,381.4c0.2,0.2,0.6,0.3,0.6,0.5c0.7,2,1.7,3.9,2.2,5.9c0.5,2,1.3,3.9,2,5.8c1,2.8,1.8,5.6,2.6,8.4    c1,3.8,2.2,7.6,3,11.4c0.6,2.7,1.5,5.3,1.6,8.1c0.1,1.4,0.9,2.6,0.9,4.1c0,2.4,0.8,4.7-0.1,7.1c0,0-0.1,0.1-0.1,0.1l-0.2-0.1    c-4.5,0.3-8.9,0.1-13.4,0.1c-3.8,0-7.7,0-11.5,0c-2.3,0-3.2-0.6-3.9-2.9c-0.7-2.3-1-4.7-1.5-7.1c-2.3-11.1-5.9-21.8-10.5-32.2    c-0.4-0.8-0.8-1.7-1.2-2.5c-0.8-1.6-0.5-2,1.1-2.3c0.6-0.1,1.3-0.1,1.9-0.3c0.8-0.2,1.7-0.2,2.5-0.2c0.9,0,1.9,0.1,2.8-0.3    c6.5-1,13.1-2,19.4-4C337.9,381,338.6,380.9,339.2,381.4z"/><path class="st15" d="M92,395.6c0.9,0,1.6-0.3,2.1-1.1c2.4-3.9,5.5-7.4,8.7-10.7c2.5-2.6,4.7-5.3,7.7-7.5c2.7-1.9,5.1-4.3,7.8-6.2    c2.3-1.7,4.8-3.2,7.3-4.7c2.6-1.5,5.2-2.8,7.8-4.3c1.4-0.9,3.2-1.2,4.7-1.9c1.1-0.5,2.5-0.6,3.1-2c0.9-0.3,1.1,0.4,1.4,0.9    c5,6.7,11.1,12.2,18.1,16.7c0.1,0.1,0.2,0.2,0.3,0.3c0.1,1.3-0.9,1.5-1.8,1.7c-10.5,2.4-20.2,6.4-28.9,12.8    c-8.3,6-15.4,13.1-20.8,21.8c-0.6,1-1.2,2.5-2.9,1.7C100.7,408.1,95.8,402.3,92,395.6z"/><path class="st16" d="M229.5,433c-0.9-1-1.6-2.2-2.1-3.4c-1.2-2.6-3-4.8-4.3-7.3c-1.8-3.2-4.3-5.7-6.8-8.4c-2.7-3-5.8-5.5-9.1-7.9    c-5-3.7-10.4-6.3-16.2-8.1c-2.2-0.7-4.7-1-7-1.7c-3.8-1.1-7.8-0.2-11.5-1.1c-2.8,0.6-5.6,0.3-8.4,0.9c-2.8,0.6-5.6,1.1-8.2,2.2    c-4,1.7-8.3,2.9-11.8,5.7c-0.8,0.6-1.9,1-2.7,1.6c-1.6,0.9-2.9,2.3-4.3,3.4c-0.4,0.3-0.7,0.7-1.1,1c-2.9,1.8-5,4.5-7.2,7    c-2,2.3-3.6,4.8-5.4,7.3c-3.2-1.3-6.2-3.1-9-5.2c2.8-3.2,5.2-6.8,7.8-10.1c3.1-3.9,7-7.1,10.8-10.2c7.7-6.2,16.5-10.3,26.1-12.4    c11-2.5,21.9-2.3,32.9,0.8c7.8,2.2,15,5.7,21.5,10.5c10.6,7.8,18.7,17.7,24,29.8c0.5,1.2,1.1,2.4,1.8,3.6c0.3,0.6,0.8,1.2,0.5,2    C236.4,433.2,233,433.2,229.5,433z"/><path class="st17" d="M239.8,433c-1.3-2.2-2.4-4.5-3.5-6.8c-2.2-4.5-4.6-8.8-7.6-12.7c-3-3.9-6.2-7.7-9.9-11    c-3.2-2.8-6.5-5.4-10.2-7.5c-4.1-2.4-8.3-4.6-12.8-6.1c-4.5-1.5-9.2-2.6-14-3.3c-3.2-0.4-6.4-0.4-9.5-0.3c-3.5,0-6.9,0.5-10.3,1    c-3.9,0.6-7.5,1.9-11.2,3.1c-4.1,1.3-7.8,3.4-11.5,5.6c-4,2.4-7.4,5.5-10.9,8.4c-4.7,3.9-8.1,9-11.8,13.8    c-0.6,0.8-1.1,1.7-2.2,1.8c-2.8-1.7-5.4-3.6-7.7-6c0.8,0,1.4-0.3,1.9-1.1c1.5-2.4,3-4.8,4.8-7c2.2-2.9,4.6-5.7,7.4-8.1    c2-1.7,3.8-3.7,6-5.3c3.6-2.7,7.2-5.5,11.3-7.4c1.5-0.7,3-1.5,4.5-2.4c1-0.6,2-1.1,3.1-1.4c3.9-1.2,7.7-2.7,11.7-3.7    c0.6-0.2,1.2-0.3,1.9-0.3c0.8-0.1,1.6-0.2,1.8-1.1c1-0.5,1.6,0.2,2.3,0.6c7.2,4.2,15,6.5,23.1,8.2c0.5,0.1,1,0.3,1.5,0.3    c0.4,0,0.8,0.1,1.2,0.2c0.5,0.1,1,0.2,1.5,0.2c0.5,0,1,0.1,1.5,0.2c0.6,0.2,1.2,0.2,1.9,0.2c0.8,0,1.6,0,2.3,0.2    c0.8,0.3,1.6,0.3,2.3,0.2c0.8,0,1.7,0,2.5,0.2c1.5,0.4,3.1,0.2,4.7,0.2c1.7,0.1,3.4-0.2,5.1,0.2c0.3,0.1,0.6,0.3,0.9,0.5    c0.5,0.9,1.1,1.7,2.1,2.3c9.8,6.1,17.6,14.2,23.8,24c3.8,5.9,6.7,12.2,9.3,18.6c0.2,0.5,0.4,0.9,0.2,1.4    C244.6,433.2,242.2,433.2,239.8,433z"/><path class="st18" d="M161.3,80.2c-1.3,2.1-2.3,4.4-3.7,6.4c-2.3,3.3-5.4,6-8.6,8.5c-5.5,4.3-11.6,7.6-17.7,10.8    c-4.2,2.2-8.5,4.2-12.9,6c-3.2,1.3-6.4,2.7-9.6,4c-2.3,0.9-4.6,1.7-7,2.5c-3.7,1.2-7.3,2.6-11,4c-0.7,0.3-1.4,0.6-2.2,0.9    c0.7-2.2,1.9-4.1,3.1-6c11.6-18.8,28.3-30.3,49.8-34.9c6-1.3,12-2,18.1-2.2C160.3,80.1,160.8,80.2,161.3,80.2z"/><path class="st19" d="M305.5,433c-4.9,0-9.7,0.1-14.6,0.1c-2.8,0-5.6,0-8.5-0.1c-1.4-0.9-2.1-2.3-2.4-3.9    c-1.9-8.8-5.3-17.1-9.2-25.2c-2.2-4.4-4.7-8.6-7.4-12.7c-0.2-0.4-0.5-0.7-0.7-1c-0.5-0.8-1.3-1.7-0.7-2.7c0.5-0.9,1.6-0.6,2.5-0.7    c2.2-0.1,4.4,0.3,6.6-0.4c5.4-0.2,10.7-0.4,16.1,0.1c1.9,1.8,2.6,4.3,3.7,6.6c3.5,7.2,6.7,14.6,8.9,22.4c1.3,4.4,2.8,8.7,3.4,13.2    C303.3,430.6,304.9,431.5,305.5,433z"/><path class="st20" d="M80.2,207.4c-0.1-7.1-0.2-14.2,0-21.3c0.5-0.6,1.1-0.8,1.8-1c10.7-2.6,21.3-5.3,32-8.1    c5.1-1.4,10.4-2.4,15.5-3.8c0.9-0.3,1.9-0.5,2.8,0.2c0.3,0.6,0.1,1.3-0.1,1.9c-1.9,5.9-3.2,11.9-3.9,18c-0.1,0.8-0.2,1.5-0.6,2.3    c-0.4,0.7-1.1,0.8-1.8,1c-13.4,3.1-26.7,6.6-40,10.1C84.2,207,82.3,207.8,80.2,207.4z"/><path class="st21" d="M305.5,433c-2.1-1-2.8-2.7-3-4.9c-0.1-1.6-0.5-3.2-1-4.8c-1.7-5.3-3.1-10.7-5.1-16c-1.4-3.6-3-7.2-4.6-10.7    c-1.2-2.7-2.3-5.5-3.9-8c-0.3-0.5-0.2-1.1-0.3-1.7c0.5-0.6,1.2-0.7,1.9-0.7c3.8,0.2,7.6-0.6,11.5-0.5c2.7,0.1,5.4,0.1,8.1-0.3    c1.2-0.2,2.6-0.4,3.6,0.6c-0.9,0.8-2.1,0.1-3.3,0.7c1,1.6,1.8,3.3,2.5,5.1c2.9,6.9,5.7,13.9,7.5,21.2c1,3.8,2,7.5,2.8,11.3    c0.4,1.8,0.6,3.6,1,5.4c0.5,2.1,1.5,2.9,3.8,2.9c8.2,0,16.3,0,24.5,0.1c-0.6,0.3-1.2,0.3-1.9,0.3c-14.6,0-29.1,0.1-43.7,0.1    C305.9,433.1,305.7,433.1,305.5,433z"/><path class="st22" d="M270.5,387c-0.6,0.6-1.3,0.3-2,0.4c-2,0-4.1,0-6.2,0c-0.2,1.2,0.4,1.9,0.9,2.6c2.5,3.3,4.3,7,6.4,10.5    c3,5.2,5.2,10.8,7.5,16.4c1,2.5,1.7,5.3,2.4,7.9c0.8,2.8,1.2,5.8,3,8.3c-6.7,0.2-13.4,0.1-20.1,0c-0.9-0.4-1.2-1.3-1.5-2.2    c-2.2-7.4-5-14.5-8.9-21.1c-3.7-6.4-7.8-12.5-13-17.8c-1-1-2.6-2-2.1-3.6c0.5-1.6,2.3-1.3,3.7-1.4c0.6-0.1,1.1-0.3,1.7-0.4    c8.7-0.3,17.4-0.1,26.1-0.1C269.1,386.3,269.9,386.4,270.5,387z"/><path class="st23" d="M132.2,173.2c-2.1,0.3-4.1,0.9-6.1,1.4c-3.3,0.9-6.7,1.6-10.1,2.4c-1.6,0.4-3.2,0.7-4.7,1.1    c-5.3,1.5-10.7,2.8-16,4.1c-3.7,0.9-7.4,1.8-11.1,2.9c-1.3,0.4-2.7,0.3-3.9,0.8c-0.2-7.4-0.1-14.8,0.1-22.1c0-1.3-0.2-2.7,0.3-4    c0,2.4,0,4.8,0.1,7.2c0,1.4,0.3,1.6,1.5,1.3c4.3-1,8.5-2,12.7-3.2c6.5-1.8,13.1-3.4,19.7-5.1c5-1.3,10-2.6,14.9-4    c3.2-0.9,6.4-1.7,9.6-2.6c1.5-0.4,3-0.8,4.6-0.7c0.5,0.9-0.3,1.3-0.7,1.8c-3.7,4.8-6.7,10-8.9,15.6    C133.6,171.3,133.2,172.4,132.2,173.2z"/><path class="st24" d="M80.2,207.4c3.8-1,7.6-2,11.4-3c9.1-2.4,18.3-4.8,27.4-7c2.4-0.6,4.9-1.5,7.4-1.6c0.3,0,0.7-0.3,1-0.4    c0.5,0.4,0.6,0.9,0.6,1.5c-0.5,6.4-0.8,12.8-0.8,19.2c0,0.5-0.2,1-0.5,1.4c-7.1,1-14,3-20.9,4.8c-7.5,1.9-14.9,4.1-22.4,6.2    c-1.1,0.3-2.2,0.7-3.3,0.2C80.1,221.6,80.1,214.5,80.2,207.4z"/><path class="st25" d="M80.2,228.7c4.7-1.3,9.4-2.5,14.1-3.8c4.1-1.1,8.1-2.4,12.2-3.4c4.2-1.1,8.4-2,12.5-3c2-0.5,4-1,5.9-1.5    c0.8-0.2,1.2,0,1.3,0.8c0.7,0.8,0.6,1.7,0.6,2.6c0,4.6,0,9.1,0,13.7c0,1,0.1,2-0.7,2.8c-0.5-0.8-1.3-1-2.2-0.8    c-7.3,1.9-14.7,3.7-22,5.7c-7,1.9-14.1,3.8-21,6.1c-0.3,0.1-0.6,0.1-0.8,0.1C80.1,241.5,80.1,235.1,80.2,228.7z"/><path class="st26" d="M241.5,387c-0.6,0.6-1.3,0.3-2,0.4c-0.9,0-1.7,0.2-2.4,0.9c0.3,0.9,0.9,1.7,1.6,2.4    c4.4,4.2,7.8,9.1,11.1,14.2c1.4,2.2,2.8,4.4,4.1,6.7c1.5,2.9,2.8,5.9,4.1,8.9c1.5,3.5,2.8,7.1,3.8,10.8c0.2,0.6,0.5,1.2,0.8,1.7    c-5.1,0.1-10.2,0.1-15.4,0c-1.7-2.9-2.5-6.3-4-9.4c-1.2-2.3-2.2-4.8-3.6-6.9c-2-3.2-4-6.5-6.4-9.5c-1.8-2.2-3.6-4.4-5.3-6.6    c-1.2-1.5-2.7-2.5-4.1-3.6c-1.4-1.1-2.7-2.5-4.2-3.6c-2.1-1.5-4.1-3.1-6.3-4.3c-0.9-0.5-1.5-1.1-1.4-2.2c1.3-1,2.8-0.5,4.2-0.6    c0.9-0.1,1.8,0,2.7-0.1c6.7,0,13.5,0,20.2,0C239.7,386.3,240.7,386.2,241.5,387z"/><path class="st11" d="M80.7,357.1c0.7,0.8,0.3,1.7,0.3,2.6C80.5,358.9,80.7,358,80.7,357.1z"/><path class="st12" d="M369.5,430.9c0.5-0.6,1.1-0.3,1.7-0.4C370.7,430.9,370.1,430.9,369.5,430.9z"/><path class="st5" d="M372.9,82.8c-0.5,0-0.9,0.1-1.3-0.3C372.1,82.4,372.6,82.4,372.9,82.8z"/><path class="st5" d="M370.8,82.3c-0.5,0-0.9,0.1-1.3-0.3C370,81.9,370.4,82,370.8,82.3z"/><path class="st5" d="M368.3,81.9c-0.5,0-1,0.1-1.3-0.3C367.4,81.5,367.9,81.5,368.3,81.9z"/><path class="st5" d="M365.7,81.5c-0.5,0-0.9,0.1-1.3-0.2C364.9,81.2,365.3,81.2,365.7,81.5z"/><path class="st12" d="M375.5,429.6c0.3-0.5,0.8-0.4,1.3-0.4C376.4,429.6,376,429.7,375.5,429.6z"/><path class="st12" d="M373.8,430c0.3-0.5,0.8-0.4,1.3-0.3C374.7,430,374.3,430.1,373.8,430z"/><path class="st27" d="M241.5,387c-5.2,0-10.3-0.1-15.5-0.1c-2.5,0-5,0-7.4,0c-2.4-0.5-4.9,0.1-7.3-0.3c-1.8-0.2-3.6-0.2-5.4-0.1    c-1.6-0.5-3.2,0.1-4.8-0.3c-0.8,0-1.7-0.1-2.5-0.1c-0.7-0.4-1.5,0-2.2-0.3c-0.8,0-1.7-0.1-2.5-0.1c-0.5-0.4-1.2,0-1.8-0.3    c-0.5,0-1.1-0.1-1.6-0.1c-0.4-0.3-0.9-0.1-1.4-0.3c-0.4,0-0.8-0.1-1.2-0.1c-0.4-0.3-0.9-0.1-1.3-0.3c-5.9-1-11.5-2.8-17-4.9    c-3-1.2-5.7-3-8.6-4.4c-2.4-0.9-4.1-2.8-6.3-4.1c-2.4-1.5-4.1-3.8-6.2-5.6c-2.1-1.8-3.7-4.2-5.5-6.4c-0.5-0.6-1.1-1.3-1.6-1.9    c-3.4-5-6.3-10.2-8.4-15.9c-1.2-3.4-2.3-6.8-3.1-10.3c-0.1-0.4-0.1-0.8-0.4-1.2c-0.3-3-1-6-1.4-9c-0.7-5.2-0.9-10.5-1.1-15.7    c-0.3-7.6-0.6-15.2-0.5-22.8c0-0.4-0.1-0.7-0.1-1.1c0-0.6,0.1-1.3,0.1-1.9c0-13.5,0-27,0-40.6c0-0.6,0-1.3-0.1-1.9    c0-6.4,0.1-12.7,0.1-19.1c0.1-0.3,0.2-0.5,0.2-0.8c0.1-7.2,0.5-14.3,0.9-21.5c0.8-7.6,2.3-15,4.7-22.2c1.5-3.6,3-7.2,4.9-10.7    c1.9-3.5,4.3-6.6,6.6-9.8c2-2.1,4-4.3,6.1-6.3c8.9-8.6,19.7-13.8,31.6-16.7c8.4-2.1,17.1-2.8,25.7-3.1c1.3,0,2.6,0.1,3.8-0.3    c0.4-0.6,1.1-0.7,1.7-0.7c2.7,0.1,5.4-0.6,8,0.5c0.8,0,1.6,0.1,2.3,0.1c14.5-0.1,29-0.2,43.5-0.2c10.7,0,21.4,0.2,32.2,0.3    c4.5,0.1,9.1,0.5,13.6,0.4c2.4,0.6,4.9,0.5,7.4,0.7c9.6,1.1,18.8,3.4,27.6,7.5c8.4,3.9,15.4,9.6,21.5,16.4    c0.3,0.3,0.6,0.6,0.9,0.9c2.1,2.9,4.4,5.8,6.2,8.9c4.7,8.2,7.6,16.9,9.2,26.2c1,6,1.4,12,1.7,18c0.6,13.1,0.5,26.1,0.6,39.2    c0,0.8-0.2,1.7,0.2,2.5c0,0.4-0.1,0.8-0.1,1.3c-0.1,15.2-0.2,30.4-0.3,45.6c0,0.3,0,0.6,0.1,0.8c-0.1,2.4-0.2,4.8-0.1,7.1    c-0.5,1.7,0.1,3.5-0.3,5.2c-0.3,3.8-0.5,7.6-0.9,11.4c-0.8,8.2-2.6,16.2-5.6,23.9c-0.2,0.5-0.3,0.9-0.4,1.4c-1.5,3-2.9,6.1-4.7,9    c-3.1,5-6.8,9.4-11,13.5c-0.5,0.4-0.9,0.9-1.3,1.4c-3.1,2.5-6.2,5.1-9.7,7.2c-3.8,2.3-7.7,4.1-11.9,5.7c-0.7,0.2-1.4,0.3-1.9,0.8    c-3.2,0.8-6.4,1.8-9.6,2.5c-3.8,0.9-7.8,1.3-11.7,1.8c-0.9,0.4-1.8-0.1-2.7,0.3c-0.8,0-1.6,0.1-2.4,0.1    c-5.6,0.2-11.3,0.4-16.9,0.6c-2.8,0.1-5.5,0.2-8.3,0.3c-5.7-0.1-11.4-0.1-17.1,0c-3.6,0-7.2-0.1-10.8-0.1    C253.6,387,247.6,387,241.5,387z"/><path class="st28" d="M220.6,126.2c-3.2,0.2-6.5,0.2-9.7,0.2c-1.4,0-2.8,0-4.3-0.1c-0.3,0-0.6,0-0.7-0.3c-0.2-0.4,0.1-0.7,0.4-0.8    c0.9-0.5,1.7-1,2.7-1.3c1.4-0.5,2.6-1.1,3.6-2.1c0.4-0.5,1-0.8,1.7-0.9c2.7-0.2,4.8-2,7.1-3.2c0.3-0.2,0.5-0.5,0.9-0.6    c7.2-2.9,14-6.5,20.9-9.8c4.8-2.3,9.3-5.1,14-7.5c4.5-2.3,8.7-5.2,12.8-8.2c0.5-0.4,1.1-0.7,1.6-1c4.1-2.1,7.5-5,11-7.9    c1.7-1.4,3.3-2.3,5.7-2.2c5,0.2,10.1,0,15.1,0c6.5,0,12.9,0,19.4,0c0.6,0,1.5-0.4,1.7,0.4c0.2,0.7-0.7,1-1.2,1.3    c-5.1,3.9-10.5,7.4-16,10.8c-5.5,3.5-11.1,6.8-16.9,9.9c-2.4,1.3-4.8,2.8-7.3,4c-5.8,2.7-11.4,5.7-17.2,8.3    c-1.8,0.8-3.5,1.8-5.3,2.6c-3,1.4-6,3.1-9.2,3.8c-2.7,0.6-5.1,2.1-7.9,2.5c-0.5,0.1-1.1,0.4-1.5,0.8c-0.9,1.2-2.1,1.2-3.4,1.2    c-5.3,0-10.7,0-16,0C222,125.9,221.3,125.7,220.6,126.2z"/><path class="st4" d="M386.7,307.2c0-1.7-0.2-3.5,0.3-5.2C386.9,303.7,387.3,305.5,386.7,307.2z"/><path class="st21" d="M315.2,386.1c0.9-0.4,1.8-0.3,2.7-0.3C317,386.4,316.1,386.1,315.2,386.1z"/><path class="st16" d="M211.2,386.6c2.4,0,4.9-0.3,7.3,0.3c-2.3,0-4.6,0-6.9,0C211.5,386.9,211.4,386.8,211.2,386.6z"/><path class="st16" d="M201,386.2c1.6,0,3.2-0.2,4.8,0.3C204.2,386.4,202.5,387,201,386.2z"/><path class="st8" d="M196.3,385.8c0.7-0.1,1.5-0.2,2.2,0.3C197.7,386.1,197,386.4,196.3,385.8z"/><path class="st8" d="M192,385.4c0.6-0.1,1.2-0.1,1.8,0.3C193.2,385.7,192.5,385.9,192,385.4z"/><path class="st8" d="M186.5,384.5c0.5-0.1,0.9,0,1.3,0.3C187.3,384.8,186.8,384.9,186.5,384.5z"/><path class="st8" d="M189,384.9c0.5-0.1,1-0.1,1.4,0.3C189.9,385.3,189.4,385.4,189,384.9z"/><path class="st29" d="M361.9,319.7c-0.3,4.5-1.6,8.8-3.1,13c-3.8,10.4-10.7,18.1-20.3,23.4c-0.4,0.2-0.9,0.4-1.4,0.6    c-1.7-0.6-2.3-2.3-3-3.7c-4.6-8.4-10-16.4-16-23.9c-4.9-6.1-9.8-12.1-15.7-17.4c-1.1-1-2.2-2-3-3.3c0.2-1.5,1.5-2.2,2.4-3.1    c7-6.3,12.3-13.9,16.1-22.6c1.3-2.9,2.3-6,3.1-9.1c0.2-0.7,0.3-1.6,1-2c1-0.4,1.6,0.3,2.2,0.9c6.1,6.2,12.4,12,18.1,18.6    c5.8,6.8,11.1,13.8,16.4,20.9c1,1.3,1.8,2.7,2.7,4.1C362,317.2,362.2,318.4,361.9,319.7z"/><path class="st30" d="M363.3,214.1c0.3,1.3,0.2,2.5,0.2,3.8c0.1,13.6,0.1,27.2,0.2,40.9c0,0.5-0.1,1-0.1,1.5    c-1.5,0.7-2.3-0.4-3-1.3c-7.2-8.1-15.2-15.5-23.5-22.5c-7.5-6.4-15.4-12.2-23.6-17.8c-0.7-0.5-1.5-0.9-2.3-0.9    c-0.7-0.3-1.1-0.9-1.5-1.4c-10.9-14.1-25.2-22.5-42.7-25.5c-0.7-0.1-1.9,0.2-1.5-1.3c1.7-1.8,4-1.6,6.1-1.9c1.4-0.2,2.8,0,4.3-0.1    c10.3-0.8,20.6-1,31-0.9c1.1,0,2.1-0.1,3.2,0.2c1.3,0.5,1.3,1.7,1.6,2.8c1.5,6.6,5.6,10.7,12.2,12.1c6.9,1.5,14.6-3,16.9-9.9    c0.2-0.7,0.3-1.4,0.8-2c0.8-0.9,1.6-0.7,2.4-0.1c6.2,4.8,12.4,9.6,18.5,14.6c0.9,0.7,0.3,1.8,0.7,2.5c0.1,1.5,0.2,3.1,0.1,4.6    C363.5,212.4,363.2,213.2,363.3,214.1z"/><path class="st31" d="M305.6,362.7c-1.2,0.5-2.5,0.3-3.8,0.3c-3.2,0.1-6.3,0.1-9.5,0.1c-7.1,0.3-14.2,0-21.2,0.1    c-0.4,0-0.7-0.1-0.9-0.5c-2.2-4.4-6.1-7.2-9.5-10.5c-4.3-4.2-9-8-14-11.5c-5.2-3.7-10.9-6.7-16.5-9.7    c-12.2-6.4-25.2-10.4-38.8-12.3c-9.8-1.4-19.6-1.8-29.5-0.6c-2.7,0.3-5.5,0.5-8.2,0.9c-0.8,0.1-1.6,0.1-2.2-0.5    c0-0.2,0-0.5-0.1-0.7c-0.4-0.7,0.1-1.5-0.3-2.2c-0.1-0.7-0.2-1.3-0.1-2c-0.4-1.2,0.1-2.4-0.3-3.5c-0.1-1.2-0.2-2.5-0.1-3.7    c-0.3-1.2-0.1-2.3-0.1-3.5c0.8-1.5,2.2-1.7,3.6-1.9c10-1.2,20-1.9,30.1-1c7.6,0.7,15.2,1.6,22.7,3.6c1,0.3,1.9,0.7,2.8,0.9    c1,0.3,1.9,0.9,2.7,1.6c9.9,8.6,21.3,13.9,34.2,16c3.9,0.6,7.7,0.7,11.6,0.7c1.1,0,2.1-0.2,3.1,0.3c0.4,0.3,0.5,0.8,0.2,1.1    c-0.8,0.8-1.5-0.1-2.2-0.3c2.1,1.1,3.8,2.8,5.7,4.2c5,4,9.8,8.1,14.2,12.8c5.4,5.7,10.7,11.6,15.2,18c1.6,2.3,3.5,3.2,6.3,3.2    C302.3,362.1,304.1,361.6,305.6,362.7z"/><path class="st32" d="M311.4,217.6c0.8-0.8,1.3,0,1.8,0.3c2.9,2,5.7,3.9,8.5,6c3.1,2.3,6.3,4.6,9.3,7.1c3.5,2.9,7.1,5.8,10.6,8.8    c5.7,5,11,10.3,16.3,15.6c0.9,0.9,1.8,1.8,2.5,2.9c0.7,1,1.7,1.9,3.1,2.1c0,0.3,0.1,0.6,0.1,0.8c0,12.8,0.1,25.7-0.3,38.5    c-0.2,6.1-0.3,12.2-1.1,18.2c-0.1,0.6,0,1.3-0.4,1.8c-0.1-1.4-0.6-2.6-1.4-3.9c-2.2-3.7-4.8-7.2-7.5-10.5    c-2.3-2.9-4.3-5.9-6.7-8.7c-2.3-2.7-4.8-5.2-6.9-8c-1.5-2-3.4-3.7-5.2-5.6c-3.3-3.4-6.9-6.5-10.1-10c-0.5-0.6-1-1.3-1.9-1.3    c-0.7-0.7-0.4-1.6-0.3-2.4c1-5.4,1.5-10.9,1.4-16.4c0.1-0.7,0-1.4-0.2-2.1c-0.2-0.9-0.2-1.8-0.2-2.7c0-0.5,0-1.1-0.2-1.6    c-0.9-4.1-1.7-8.2-3.2-12.1c-1.8-5-4.2-9.8-7-14.3C311.9,219.4,311.2,218.7,311.4,217.6z"/><path class="st33" d="M305.6,362.7c-2,0-4,0-6-0.1c-2,0-3.7-0.5-4.9-2.4c-2.5-4-6-7.3-8.7-11.2c-0.1-0.2-0.3-0.3-0.4-0.5    c-4.2-4.2-7.9-8.8-12.3-12.7c-3.5-3.1-7.1-6.3-11-9c-1.2-0.9-1.9-2.3-3.5-2.8c0.7-0.4,1.2-0.1,1.7,0.1c0.6,0.2,1-0.1,1-0.7    c0.4-0.5,1-0.5,1.5-0.6c0.7,0,1.5,0,2.2-0.2c0.4-0.1,0.8-0.2,1.2-0.2c0.5,0,1-0.1,1.5-0.3c6.9-1.5,13.7-3.6,20-7    c3.1-1.7,6.1-3.6,8.9-5.7c0.7-0.5,1.3-1.4,2.4-1c1.2,0.5,2.1,1.4,2.9,2.4c1.2,1.5,2.8,2.5,4.1,4c1.3,1.6,2.7,3.1,4.2,4.5    c2.6,2.7,4.7,5.8,7.3,8.5c1.8,2,3.2,4.3,4.9,6.4c2,2.5,3.3,5.4,5.5,7.8c0.5,0.5,0.9,1.1,1.2,1.7c1.8,3.7,4.3,7,6.2,10.7    c0.4,0.8,1.1,1.5,1.6,2.2c-3.7,1.9-7.6,3.2-11.7,4.1C318.9,362.1,312.3,362.8,305.6,362.7z"/><path class="st34" d="M210,305c-1.3,0.1-2.3-0.5-3.5-0.8c-4.5-1.2-9.1-1.9-13.7-2.6c-2.8-0.4-5.6-0.5-8.4-0.9    c-3.5-0.6-7.1-0.4-10.6-0.5c-2.8-0.1-5.6,0-8.4,0.4c-2.3,0.4-4.8,0.5-7.2,0.6c-2.6,0.2-5.2,0.3-7.6,1.7c-0.5-0.6,0-1.5-0.4-2.1    c-0.1-2.4-0.3-4.8-0.1-7.2c-0.3-1-0.1-2-0.1-3c0-8.8,0-17.6,0-26.5c0-1.6,0.4-2.3,2-2.5c11.7-1.4,23.5-1.8,35.3-0.8    c0.7,0.1,1.4,0.2,2.1,0.5c1.2,0.6,1.3,1.8,1.4,2.9c1.6,14.9,8.2,27.5,18,38.6C209.3,303.5,210.1,304,210,305z"/><path class="st35" d="M189.9,262c-4.3-0.7-8.7-1-13.1-0.9c-2.4,0.1-4.8,0-7.2,0c-4-0.1-8,0.4-12.1,0.8c-1.9,0.2-3.8,0.5-5.7,0.5    c-1.5,0-1.5,0.1-1.6,1.6c0,3.5,0,7,0,10.4c0,6.4,0,12.8-0.1,19.2c-0.3-0.6-0.2-1.3-0.2-1.9c-0.2-19.8-0.1-39.5-0.1-59.3    c0-0.3,0.1-0.6,0.1-0.8c0.2-1.3,0.2-2.6,0-3.8c-0.2-1.7,0.7-2.3,2.1-2.5c5.2-0.9,10.3-2.2,15.5-3c10.4-1.5,20.7-3.5,31.1-4.9    c1.1-0.1,2.5-0.9,3,0.9c-0.2,1.6-1.3,2.8-2,4.2c-5,8.7-8.1,18-9.1,28c-0.3,3,0,6-0.1,9C190.4,260.3,190.6,261.2,189.9,262z"/><path class="st36" d="M151.5,318.7c2.2,0.1,4.4-0.3,6.5-0.7c1.7-0.3,3.5-0.2,5.3-0.5c5.5-0.7,11-0.8,16.6-0.5    c7.9,0.4,15.8,1.7,23.6,3.5c4.9,1.1,9.7,2.7,14.4,4.5c5.8,2.2,11.3,4.9,16.8,7.8c4.1,2.2,8,4.5,11.9,7c1.7,1.2,3.2,2.8,5,3.9    c2.2,1.4,4.1,3.2,6.1,4.9c4.1,3.4,7.8,7.2,11.5,11.1c0.9,0.9,1.7,1.9,1.5,3.4c-2.2,0.5-4.4,0.2-6.5,0.2c-3.6,0.1-7.2,0-10.8,0    c-1.8-0.8-2.8-2.5-4.2-3.8c-17.6-15.1-37.9-24.2-60.8-27.3c-8.3-1.1-16.7-1.5-25.1-0.3c-2.4,0.4-4.8,0.3-7.1,1    c-0.3,0.1-0.7,0.1-1-0.2C153,328.3,151.9,323.6,151.5,318.7z"/><path class="st37" d="M151.8,192c0.7-5.5,2.2-10.8,4.7-15.8c13.8-1.6,27.3-5.5,41.1-7.3c7.8-1,15.5-2.7,23.3-3.7    c7.4-1,14.9-2.1,22.4-2.5c3.3-0.2,6.5-0.4,9.7-0.9c1.6-0.3,3.2-0.4,4.9-0.3c3.3,0.3,6.3,2.1,9.6,2.4c3.6,0.3,7.2,1.4,10.7,2.1    c0.8,0.2,1.7,0.1,2.1,1.1c0,0.7-0.6,0.9-1.2,1c-7.6,1.6-15,4-22.7,5.4c-2.5,0.4-4.9,1.7-7.5,1.8c-6.8,1.3-13.6,2-20.4,3.1    c-2.9,0.4-5.7,1-8.6,1.4c-9.1,1.5-18.2,3-27.2,4.8c-7.8,1.4-15.5,3-23.2,4.4c-4.9,0.9-9.7,2.3-14.6,3.1    C154,192.5,152.8,192.9,151.8,192z"/><path class="st38" d="M258.1,162.1c-2.6-0.1-5.2,0.4-7.8,0.7c-2.2,0.3-4.4,0.4-6.5,0.5c-2.8,0.1-5.6,0.5-8.4,0.8    c-2.8,0.3-5.6,0.6-8.4,1c-6.6,0.8-13.1,1.8-19.7,2.9c-3.1,0.5-6.2,1.4-9.4,1.7c-3.5,0.3-7,1-10.5,1.4c-2.5,0.3-4.8,1.1-7.3,1.4    c-4.9,0.8-9.7,1.9-14.5,3.1c-2.5,0.6-5.2,0.7-7.8,1c-0.5,0.1-1,0.1-1.3-0.4c0.8-2.4,2.1-4.5,3.8-6.4c3.3-1.1,6.8-1.5,10.1-2.5    c8.3-2.3,16.8-4.1,25.2-6.1c5.8-1.4,11.5-2.9,17.4-4.1c4.9-1,9.7-2.1,14.5-3.5c4.2-1.2,8.4-2.4,12.8-2.8c1.6-0.2,3-1,4.5-1.1    c3.9,0,7.8-0.1,11.7-0.1c11.9,0,23.9,0.1,35.8,0.1c0.9,0,1.8,0.1,2.8,0.1c2.2,0.4,4.4-0.2,6.5,0.3c1.5-0.1,3.1,0,4.6,0.1    c1.6,0.4,3.2-0.1,4.8,0.3c0.7-0.1,1.3,0,2,0.1c0.5,1.5-0.7,1.6-1.6,1.8c-2.6,0.8-5.3,1.1-7.9,1.6c-4.6,0.8-9.2,1.6-13.8,2.4    c-7.4,1.4-14.8,2.6-22.1,4.1C264.5,161.2,261.4,162.1,258.1,162.1z"/><path class="st39" d="M154.9,332.8c2.4-0.9,4.9-1.1,7.4-1.4c2.4-0.3,4.8-0.4,7.2-0.6c3.3-0.3,6.6-0.4,10,0.1    c1.9,0.3,3.9,0.4,5.9,0.5c4.2,0.2,8.3,1,12.3,1.9c6.9,1.5,13.7,3.6,20.2,6.3c4.7,1.9,9.1,4.2,13.5,6.7c4,2.3,7.8,4.9,11.5,7.6    c2.2,1.6,4.3,3.2,6.3,5c0.5,0.4,0.9,0.9,1.5,1.2c1.1,0.7,1.8,1.6,2,2.9c-0.5,0.4-1.1,0.2-1.6,0.2c-6.8,0-13.6,0-20.4,0    c-1,0-2,0.1-2.2-1.3c-0.1-0.7-0.9-1-1.5-1.4c-12.3-7.5-25.5-12.3-39.8-14.2c-6.7-0.9-13.4-1.1-20.2-0.6c-1.3,0.1-2.4,1.3-3.8,0.7    C159.3,342.5,156.6,338,154.9,332.8z"/><path class="st40" d="M151.8,192c3.4,0,6.7-1,9.9-1.8c4.9-1.2,9.9-2,14.9-2.9c3.1-0.6,6.2-1.3,9.3-1.9c2.3-0.4,4.6-0.7,6.9-1.1    c0.6-0.4,1.2-0.1,1.9,0c4.6,0.3,9.2-0.3,13.8-0.3c3.2,0,6.5-0.8,9.7,0.3c1.4,0.5,2.8-0.3,4.2-0.2c4.3,0.2,8.6-0.2,12.9,0.7    c3.1,0.6,6.4,0.1,9.6,0c5.3-0.2,10.7,0.2,15.9,1c4.2,0.6,8.5,0.3,12.7,1.3c0.8,0.2,1.8-0.1,2,1.1c-2.4,0-4.7,0-7.1,0.4    c-1.2,0.2-2.1,1-3.2,1.4c-0.4,0.4-0.9,0.4-1.3,0.3c-1.2-0.3-2.4-0.2-3.5-0.1c-2.5,0-5,0-7.5,0c-1,0-2.1-0.2-3.1,0.1    c-0.4,0.1-0.9,0.2-1.3,0.2c-0.6,0-1.2,0-1.8,0.2c-0.4,0.1-0.8,0.1-1.2,0.2c-0.5,0-1,0.1-1.4,0.2c-0.3,0.1-0.6,0.1-0.9,0.2    c-0.5,0.1-1,0.2-1.5,0.4c-3.9,1.1-7.7,2.2-11.4,3.8c-0.6,0.3-1.2,0.4-1.8,0.3c-1.5-0.5-3-0.1-4.4,0c-17.4,2.2-34.7,5-52,8.3    c-5.4,1-10.9,2.1-16.3,3.2c-2,0.4-4.2,0.5-5.4,2.7C150.6,203.9,150.5,197.9,151.8,192z"/><path class="st41" d="M150.3,209.9c0.6-2.4,0.6-2.4,3.1-2.9c6.4-1.2,12.8-2.6,19.3-3.8c4.6-0.9,9.1-1.7,13.7-2.5    c4.1-0.7,8.2-1.4,12.3-1.9c4-0.5,7.9-1.4,11.9-1.9c2.9-0.4,5.8-1.2,8.8-1c1,0.1,2-0.2,2.9-0.5c1.6-0.5,3.3-0.1,4.8-0.6    c0.6-0.2,1.1,0.2,1.5,0.6c-1.1,1.7-3.1,2.1-4.7,3.1c-7.7,4.7-14.6,10.4-20.1,17.7c-0.7,0.9-1.1,2.2-2.5,2.4    c-0.1-0.7-0.5-1-1.2-0.9c-3,0.7-6,0.9-9,1.4c-4,0.6-8.1,1.3-12.1,2c-3.1,0.5-6.1,1.2-9.2,1.5c-5.9,0.7-11.6,2.4-17.4,3.2    c-0.4,0.1-0.8,0.3-1.2,0.3c-1,0.1-1.2,0.7-1.2,1.6c-0.1,1.3,0.3,2.7-0.3,4c-0.2-3.2-0.1-6.5,0-9.7    C150,217.9,150.2,213.9,150.3,209.9z"/><path class="st42" d="M249.2,174.9c2.5-0.4,4.9-1.6,7.4-2c2.4-0.4,4.9-0.8,7.2-1.5c4.6-1.3,9.3-2,13.8-3.5c0.9-0.3,2,0.1,2.8-0.7    c1-1,2.3-0.9,3.6-1c4.3-0.3,8.6-0.5,13-0.9c7.8-0.6,15.6-0.8,23.4-0.9c6.2-0.1,12.5-0.1,18.7-0.1c3.3,0,6.6,0.4,10,0.7    c1,0.4,1.6,1.4,2.3,2.2c5.5,6.4,8.4,13.9,10,22c1.2,5.8,1.7,11.6,1.7,17.6c-0.3-2.4-2.5-3.2-4-4.5c-2.5-2.3-5.2-4.3-7.9-6.3    c-2.7-2-5.4-4.1-8-6.3c-0.5-0.4-0.9-0.2-1.3,0.1c-0.6-0.5-0.4-1.1-0.3-1.8c0.3-6.5-2.5-11.5-8.1-14.5c-5.6-3-11.2-2.3-16.3,1.6    c-0.8,0.6-1.4,1.4-2.6,1.2c-5.3-0.5-10.6-0.5-15.9-1c-7.1-0.6-14.3-0.3-21.5-0.4c-7.9-0.1-15.9-0.2-23.8,0.5    C251.9,175.6,250.4,175.9,249.2,174.9z"/><path class="st43" d="M349,165.2c-1.8,0.7-3.6,0.4-5.4,0.2c-0.8-0.1-1.5-0.2-2.3-0.2c-4.5,0-8.9-0.1-13.4,0c-2.1,0.1-4.2,0-6.3,0    c-6.2-0.1-12.3,0.5-18.5,0.5c-4.4,0-8.9,0.5-13.3,0.9c-3.2,0.3-6.3,0.1-9.5,0.7c-0.5-0.6-1.2-0.3-1.8-0.5    c-1.8-0.5-3.8-0.2-5.4-1.5c-0.1-0.1-0.3-0.1-0.4-0.1c-2.6,0.4-5-0.9-7.5-0.9c-0.4,0-0.8,0-1.2-0.3c-1.8-1.3-4-1.3-6-1.8    c0.7-0.7,1.6-0.7,2.4-0.8c3.8-0.4,7.4-1.7,11.2-2.3c2.6-0.4,5.3-0.8,7.9-1.2c0.2,0,0.4,0,0.6-0.1c4.9-1.6,10.2-1.5,15.1-3.2    c0.1,0,0.3-0.2,0.4-0.1c1.8,0.7,3.2-0.6,4.9-0.7c2.3-0.2,4.6-1,6.9-1.1c1.7-0.1,3.2-1,5-1c0.5,0,0.7-0.6,0.8-1.1    c9.8,0.5,19.1,2.6,27.6,7.6C343.9,160.1,346.5,162.6,349,165.2z"/><path class="st44" d="M163,346.5c1.9-1.1,4-1.1,6.1-1.4c4.3-0.5,8.6,0,12.8,0.2c4.9,0.2,9.8,1.1,14.6,2.2c4.6,1,8.9,2.7,13.3,4.2    c5.9,2,11.5,4.7,16.8,8.1c0.4,0.3,0.9,0.5,1.3,0.7c1.2,0.7,1.2,0.7,1.2,2.5c7.8,0,15.7,0,23.5,0c6,0,11.9,0,17.9,0    c6.4,0,12.9,0,19.3,0c0.8,0,1.7,0.1,2.5,0.1c-0.7,0.4-1.5,0.2-2.3,0.2c-21.6,0.1-43.2,0.2-64.8,0c-7.7-0.1-15.5-0.4-23.2-0.8    c-8.3-0.5-16.5-1.8-24.2-5.2C172,354.8,167.1,351.2,163,346.5z"/><path class="st45" d="M245,149.7c-1.4,1.2-3.1,1.6-4.9,1.7c-1.5,0.1-2.9,0.2-4.3,0.9c-1,0.5-2.2,0.7-3.3,0.8    c-1.7,0.1-3.3,0.6-5,1.1c-3.3,1.1-6.6,1.9-10.1,2.5c-1.9,0.3-3.7,1.2-5.8,1.4c-3.7,0.3-7.1,1.9-10.7,2.5c-3.6,0.6-7,1.9-10.5,2.6    c-4.3,0.8-8.5,2-12.8,2.9c-3.4,0.8-6.8,1.8-10.3,2.6c-2.3,0.5-4.6,1.4-7.1,1.1c1-1.9,2.5-3.4,4-4.9c6.9-7.1,15.5-11,25.1-12.9    c3.9-0.8,7.8-1.5,11.8-1.4c0.7-0.3,1.5-0.1,2.2-0.2c2.4-0.3,4.8-0.3,7.2-0.2c1.2-0.4,2.3,0,3.5-0.2c2.4-0.3,4.8-0.2,7.2-0.2    c5.5-0.1,10.9-0.1,16.4-0.1c0.8,0,1.6,0.1,2.3,0.1C241.7,149.5,243.3,149.4,245,149.7L245,149.7z"/><path class="st43" d="M301.8,150.1c-1.7,0-3.4,0-5.1,0c-0.5,0-1,0.1-1.4-0.3C297.5,149.8,299.6,149.6,301.8,150.1z"/><path class="st36" d="M150.2,300.8c0.6,0.6,0.3,1.4,0.4,2.1c0,1.2-0.1,2.4-0.1,3.6C150.1,304.6,150.2,302.7,150.2,300.8z"/><path class="st43" d="M311.2,150.6c-1.6-0.1-3.3,0.4-4.8-0.3C308,150.2,309.6,150.1,311.2,150.6z"/><path class="st38" d="M244.9,149.7c-1.6,0-3.3,0-4.9,0C241.7,149.4,243.3,149.3,244.9,149.7z"/><path class="st38" d="M214.1,149.9c-1.1,0.5-2.3,0.2-3.5,0.2C211.8,149.7,213,149.8,214.1,149.9z"/><path class="st36" d="M150.7,310.2c0.7,1.1,0.3,2.4,0.3,3.5C150.5,312.6,150.6,311.4,150.7,310.2z"/><path class="st42" d="M363.3,214.1c-0.4-0.8-0.1-1.7-0.2-2.6C363.5,212.4,363.4,213.2,363.3,214.1z"/><path class="st38" d="M203.5,150.4c-0.7,0.4-1.4,0.2-2.2,0.2C202,150.2,202.7,150.2,203.5,150.4z"/><path class="st36" d="M151.1,315.7c0.6,0.7,0.3,1.5,0.3,2.2C151,317.3,151,316.5,151.1,315.7z"/><path class="st27" d="M201.4,218.5c2.1-2.6,4-5.3,6.3-7.7c3.3-3.5,6.9-6.5,10.7-9.3c3.2-2.4,6.7-4.3,10.2-6.2    c1.3-0.1,2.5-0.8,3.7-1.3c3.1-1.3,6.4-2.1,9.6-3c0.4-0.3,0.9,0,1.3-0.3c0.3,0,0.5-0.1,0.8-0.1c0.4-0.2,1,0,1.4-0.3    c0.4,0,0.8-0.1,1.2-0.1c0.6-0.3,1.2,0.1,1.8-0.3c0.4,0,0.8-0.1,1.2-0.1c1-0.4,2.1,0.1,3.1-0.3c2.6,0,5.3,0,7.9,0    c1.1,0.5,2.4-0.1,3.5,0.3c0.4,0,0.8,0.1,1.2,0.1c2.5,0.5,5,1,7.5,1.6c15.5,3.9,28,12.2,37.6,24.9c0.3,0.4,0.7,0.9,1.1,1.3    c2.1,3.6,4.3,7.1,6.1,10.9c2.4,5.2,4.2,10.6,5.1,16.3c0.1,0.6,0.3,1.2,0.5,1.8c0.2,0.4,0,0.9,0.3,1.4c0,1,0,2,0.2,2.9    c0.1,0.6-0.1,1.2,0.2,1.8c-0.2,2.9,0,5.8-0.2,8.7c-0.3,3.5-1,7-1.4,10.4c-1.1,3.4-2,6.8-3.3,10.1c-4,9.7-9.9,18-17.8,24.9    c-0.6,0.5-1.1,1.1-1.7,1.6c-3.2,2.3-6.3,4.6-9.7,6.5c-6.8,3.8-14.1,6.3-21.7,7.7c-0.4,0.2-0.9,0-1.4,0.3c-0.4,0-0.8,0.1-1.2,0.1    c-0.7,0.3-1.5-0.1-2.2,0.3c-0.5,0-1.1,0.1-1.6,0.1c-1.9,0-3.8,0-5.8,0c-12.8-0.1-24.6-3.8-35.4-10.7c-3-1.9-6.1-3.7-8.5-6.4    c-0.5-0.6-1.3-0.9-1.9-1.3c-4.4-4.8-8.4-9.9-11.6-15.6c-4.4-7.8-7.2-16.2-8.2-25.1c-0.1-0.8-0.2-1.5-0.4-2.3c0-1.9,0-3.8,0-5.7    c0-12,3.1-23.1,9-33.4C199.7,221.4,200.3,219.8,201.4,218.5z"/><path class="st46" d="M249.2,174.9c5.2-0.4,10.5-0.3,15.7-0.5c2.6-0.1,5.2,0.2,7.7,0.1c0.9,0,1.8,0.1,2.7-0.2    c0.4-0.1,0.8-0.2,1.3-0.2c5.1,0.8,10.3,0.2,15.5,0.4c1.7,0.1,3.4-0.1,5.1,0.3c1.2,0.3,2.6-0.1,3.9,0c3.7,0.4,7.5,0.7,11.2,0.5    c0.9,0,1.8,0.1,2.5,0.8c0.3,0.4,0.1,0.8-0.2,1.2c-2,2.6-2.9,5.5-3.5,8.7c-0.1,0.5-0.2,1-0.6,1.3c-5.1,0-10.2,0.1-15.3,0    c-4.8-0.1-9.5,0.5-14.2,0.5c-1.8,0-3.6,0.4-5.5,0.3c-1.1-0.8-2.4-0.5-3.7-0.7c-1.8-0.4-3.7-0.6-5.7-0.5c-1.3,0-2.5-0.2-3.8-0.3    c-3.9-0.4-7.7-0.7-11.6-1c-4.6-0.4-9.2,0.4-13.9,0.1c-1.3-0.1-2.6,0.1-3.7-0.6c-0.5-0.3-1.1-0.3-1.7-0.2c-2.9,0.4-5.8-0.2-8.6,0    c-0.9,0.1-1.8,0-2.7,0.3c-1,0.3-2.1,0.3-3.1-0.3c-0.6-0.4-1.3-0.6-2-0.4c-2.3,0.5-4.6,0-6.9,0.4c-1.7,0.3-3.4-0.3-5.1,0.1    c-1.5,0.3-3,0.6-4.4,0.3c-2-0.4-4,0-6-0.8c1.5-0.8,3.1-1.1,4.6-1.2c3.7-0.3,7.3-1.6,11-1.9c4.3-0.4,8.4-1.8,12.7-2    c1.4-0.1,2.8-0.6,4.1-0.8c4.3-0.4,8.5-1.3,12.7-1.8C241.8,176.1,245.5,175.5,249.2,174.9z"/><path class="st27" d="M310.6,187.3c0.1-4.2,1.5-7.9,4.2-11.2c0.5-0.4,1-0.8,1.5-1.2c5-4.2,12.1-4.9,17.7-1.7    c5.6,3.2,8.7,9.4,7.8,15.8c0,0.3,0,0.6,0,0.8c-0.7,2-1.4,3.9-2.5,5.8c-2.9,4.6-9.6,8-16.2,6.6c-6-1.3-11-6.3-12.1-12.4    C310.9,189,310.8,188.1,310.6,187.3z"/><path class="st30" d="M323.8,252.7c-0.3-0.6-0.3-1.1-0.2-1.8C324,251.5,323.8,252.1,323.8,252.7z"/><path class="st30" d="M323.4,248c-0.3-0.4-0.3-0.9-0.3-1.4C323.5,247,323.4,247.5,323.4,248z"/><path class="st31" d="M263.1,323.4c0.7-0.4,1.5-0.4,2.2-0.3C264.7,323.7,263.9,323.4,263.1,323.4z"/><path class="st31" d="M266.6,322.9c0.4-0.3,0.9-0.3,1.4-0.3C267.5,323.1,267.1,323,266.6,322.9z"/><path class="st46" d="M264.1,189.8c-1.2,0-2.4,0.1-3.5-0.3C261.8,189.6,263,189.1,264.1,189.8z"/><path class="st46" d="M252.7,189.5c-1,0.4-2.1,0.3-3.1,0.3C250.6,189.1,251.7,189.5,252.7,189.5z"/><path class="st46" d="M248.4,189.9c-0.5,0.4-1.1,0.4-1.8,0.3C247.1,189.7,247.8,189.9,248.4,189.9z"/><path class="st46" d="M243.3,190.7c-0.4,0.3-0.8,0.4-1.3,0.3C242.3,190.6,242.8,190.7,243.3,190.7z"/><path class="st46" d="M245.4,190.3c-0.4,0.3-0.9,0.4-1.4,0.3C244.4,190.2,245,190.3,245.4,190.3z"/><path class="st47" d="M298.7,267.6c-0.8,4.1-2.5,7.8-4.6,11.3c-2.4,4-5.3,7.7-9,10.6c-1.4-1.8-3.4-2.8-5.1-4.1    c-5.3-3.8-10.8-7.4-16.5-10.5c-8.3-4.5-16.7-8.8-25.7-11.9c-3.9-1.3-7.7-2.7-11.7-3.7c-2.9-0.7-5.6-1.9-8.5-2.5    c-1.4-0.3-2.8-0.1-4.1-0.8c-0.2-6,1.2-11.6,3.6-17c1.3-2.9,2.7-5.7,4.8-8.1c0.5-0.3,0.9-0.2,1.4-0.1c17.1,4.6,33.6,10.8,49.2,19.3    c8.2,4.5,16.2,9.4,23.8,14.9c0.5,0.4,1.1,0.7,1.6,1C298.4,266.3,299.2,266.6,298.7,267.6z"/><path class="st48" d="M298.7,267.6c-0.1-0.4-0.1-0.7-0.5-0.9c-4.3-2.6-8.3-5.6-12.5-8.3c-3.3-2.2-6.8-4-10.2-6    c-4.5-2.6-9.2-4.9-13.8-7.1c-4.5-2.2-9.1-4.3-13.8-6c-6.4-2.4-12.9-4.6-19.5-6.4c-2.2-0.6-4.3-1.3-6.5-2    c3.2-4.8,7.5-8.5,12.4-11.5c25.8-15.5,59-1,65.2,28.5c1.3,6.4,1.1,12.8-0.4,19.2C298.9,267.2,298.8,267.4,298.7,267.6z"/><path class="st49" d="M213.4,256c1.3-0.3,2.6-0.1,3.9,0.2c2.7,0.7,5.4,1,7.9,2.3c0.5,0.3,1,0.5,1.6,0.4c1.1-0.1,2.1,0.2,3,0.8    c1.4,0.9,3,1.2,4.6,1.6c3.9,0.9,7.4,2.7,11.1,4.2c2.6,1,5.1,2.1,7.6,3.3c2,1,4,1.9,5.8,3.2c0.9,0.7,1.9,1.1,3,1.5    c2.9,1.1,5.3,2.9,7.9,4.6c0.4,0.2,0.6,0.7,1,0.8c2.9,1,4.9,3.2,7.5,4.7c2.1,1.2,3.7,3.1,6,4c0.8,0.3,0.8,1.1,0.9,1.8    c-5.5,5-11.9,8.1-19.2,9.6c-19.4,4-38.2-4.7-47.6-22.2C214.8,270.4,213,263.4,213.4,256z"/></g></g></svg>