<?xml version="1.0" encoding="iso-8859-1"?>
<!-- Generator: Adobe Illustrator 20.0.0, SVG Export Plug-In . SVG Version: 6.00 Build 0)  -->
<svg version="1.1" id="Layer_1" xmlns="http://www.w3.org/2000/svg" xmlns:xlink="http://www.w3.org/1999/xlink" x="0px" y="0px"
	 viewBox="0 0 44 44" style="enable-background:new 0 0 44 44;" xml:space="preserve">
<g>
	<circle cx="22" cy="30" r="1"/>
	<circle cx="6" cy="37" r="1"/>
	<path d="M41,3H3C1.346,3,0,4.346,0,6v14c0,0.552,0.448,1,1,1s1-0.448,1-1V6c0-0.551,0.449-1,1-1h38c0.551,0,1,0.449,1,1v26
		c0,0.551-0.449,1-1,1H15c-0.552,0-1,0.448-1,1s0.448,1,1,1h2v3c0,0.551-0.449,1-1,1h-1c-0.552,0-1,0.448-1,1s0.448,1,1,1h14
		c0.552,0,1-0.448,1-1s-0.448-1-1-1h-1c-0.551,0-1-0.449-1-1v-3h14c1.654,0,3-1.346,3-3V6C44,4.346,42.654,3,41,3z M25.184,39
		h-6.369C18.928,38.686,19,38.352,19,38v-3h6v3C25,38.352,25.072,38.686,25.184,39z"/>
	<path d="M40,26c0-0.552-0.448-1-1-1H15c-0.552,0-1,0.448-1,1s0.448,1,1,1h24C39.552,27,40,26.552,40,26z"/>
	<path d="M9,23H3c-1.654,0-3,1.346-3,3v12c0,1.654,1.346,3,3,3h6c1.654,0,3-1.346,3-3V26C12,24.346,10.654,23,9,23z M10,38
		c0,0.551-0.449,1-1,1H3c-0.551,0-1-0.449-1-1V26c0-0.551,0.449-1,1-1h6c0.551,0,1,0.449,1,1V38z"/>
</g>
</svg>
