<?xml version="1.0" encoding="iso-8859-1"?>
<!-- Generator: Adobe Illustrator 20.0.0, SVG Export Plug-In . SVG Version: 6.00 Build 0)  -->
<svg version="1.1" id="Layer_1" xmlns="http://www.w3.org/2000/svg" xmlns:xlink="http://www.w3.org/1999/xlink" x="0px" y="0px"
	 viewBox="0 0 44 44" style="enable-background:new 0 0 44 44;" xml:space="preserve">
<g>
	<circle cx="22" cy="30" r="1"/>
	<circle cx="6" cy="37" r="1"/>
	<path d="M41,3H3C1.346,3,0,4.346,0,6v14c0,0.552,0.448,1,1,1s1-0.448,1-1V6c0-0.551,0.449-1,1-1h38c0.552,0,1,0.449,1,1v8
		c0,0.552,0.447,1,1,1s1-0.448,1-1V6C44,4.346,42.654,3,41,3z"/>
	<path d="M23,39h-4.184C18.928,38.686,19,38.352,19,38v-3h4c0.552,0,1-0.448,1-1s-0.448-1-1-1h-8c-0.552,0-1,0.448-1,1s0.448,1,1,1
		h2v3c0,0.551-0.449,1-1,1h-1c-0.552,0-1,0.448-1,1s0.448,1,1,1h8c0.552,0,1-0.448,1-1S23.552,39,23,39z"/>
	<path d="M23,25h-8c-0.552,0-1,0.448-1,1s0.448,1,1,1h8c0.552,0,1-0.448,1-1S23.552,25,23,25z"/>
	<path d="M9,23H3c-1.654,0-3,1.346-3,3v12c0,1.654,1.346,3,3,3h6c1.654,0,3-1.346,3-3V26C12,24.346,10.654,23,9,23z M10,38
		c0,0.551-0.449,1-1,1H3c-0.551,0-1-0.449-1-1V26c0-0.551,0.449-1,1-1h6c0.551,0,1,0.449,1,1V38z"/>
	<circle cx="35" cy="37" r="1"/>
	<path d="M41,17H29c-1.654,0-3,1.346-3,3v18c0,1.654,1.346,3,3,3h12c1.654,0,3-1.346,3-3V20C44,18.346,42.654,17,41,17z M42,38
		c0,0.551-0.448,1-1,1H29c-0.551,0-1-0.449-1-1V20c0-0.551,0.449-1,1-1h12c0.552,0,1,0.449,1,1V38z"/>
</g>
</svg>
