<?xml version="1.0" encoding="utf-8"?>
<!-- Generator: Adobe Illustrator 21.1.0, SVG Export Plug-In . SVG Version: 6.00 Build 0)  -->
<svg version="1.1" id="Layer_1" xmlns="http://www.w3.org/2000/svg" xmlns:xlink="http://www.w3.org/1999/xlink" x="0px" y="0px"
	 viewBox="0 0 44 44" style="enable-background:new 0 0 44 44;" xml:space="preserve">
<g>
	<path d="M36.4,14c0.6-0.9,0.7-2,0.5-3c-0.3-1-1-1.9-1.9-2.4c-0.6-0.3-1-1-1-1.7c0-1.1-0.4-2.1-1.1-2.9C32.1,3.4,31.1,3,30,3
		c-0.7,0-1.3-0.3-1.7-1C27.9,1.1,27,0.4,26,0.1c-1-0.3-2.1-0.1-3,0.5C22.4,1,21.6,1,21,0.6c-0.9-0.6-2-0.7-3-0.5
		c-1,0.3-1.9,1-2.4,1.9c-0.3,0.6-1,1-1.7,1c-1.1-0.1-2.1,0.4-2.9,1.1C10.4,4.9,10,5.9,10,7c0,0.7-0.3,1.3-1,1.7
		C8.1,9.1,7.4,10,7.1,11c-0.3,1-0.1,2.1,0.5,3C8,14.6,8,15.4,7.6,16c-0.6,0.9-0.7,2-0.5,3c0.3,1,1,1.9,1.9,2.4c0.6,0.3,1,1,1,1.7
		c0,1.1,0.4,2.1,1.1,2.9c0.8,0.8,1.8,1.2,2.9,1.1c0,0,0,0,0,0v16c0,0.4,0.2,0.7,0.5,0.9c0.3,0.2,0.7,0.2,1,0l6.5-3.7l6.5,3.7
		C28.7,44,28.8,44,29,44c0.2,0,0.3,0,0.5-0.1c0.3-0.2,0.5-0.5,0.5-0.9V31c0-0.6-0.4-1-1-1c-0.6,0-1,0.4-1,1v10.3l-5-2.9V34
		c0-0.6-0.4-1-1-1s-1,0.4-1,1v4.4l-5,2.9V28.5c0.5,0.7,1.2,1.1,2,1.4c1,0.3,2.1,0.1,3-0.5c0.6-0.4,1.3-0.4,1.9,0
		c0.6,0.4,1.3,0.6,2,0.6c0.3,0,0.7,0,1-0.1c1-0.3,1.9-1,2.4-1.9c0.3-0.6,1-1,1.7-1c1.1,0.1,2.1-0.4,2.9-1.1c0.8-0.8,1.2-1.8,1.1-2.9
		c0-0.7,0.3-1.3,1-1.7c0.9-0.5,1.6-1.4,1.9-2.4c0.3-1,0.1-2.1-0.5-3C36,15.4,36,14.6,36.4,14z M34.7,17c0.3,0.4,0.4,0.9,0.2,1.4
		c-0.1,0.5-0.5,0.9-0.9,1.1c-1.3,0.7-2.1,2.1-2,3.5c0,0.5-0.2,1-0.5,1.3c-0.4,0.4-0.8,0.5-1.3,0.5c-1.5-0.1-2.9,0.7-3.5,2
		c-0.2,0.5-0.6,0.8-1.1,0.9c-0.5,0.1-1,0.1-1.4-0.2c-0.6-0.4-1.3-0.6-2-0.6s-1.4,0.2-2,0.6c-0.4,0.3-0.9,0.4-1.4,0.2
		c-0.5-0.1-0.9-0.5-1.1-0.9c-0.7-1.3-2-2.1-3.5-2c-0.5,0-1-0.2-1.3-0.5S12,23.6,12,23.1c0.1-1.5-0.7-2.9-2-3.5
		c-0.5-0.2-0.8-0.6-0.9-1.1C8.9,18,9,17.5,9.3,17c0.8-1.2,0.8-2.8,0-4.1C9,12.5,8.9,12,9.1,11.5c0.1-0.5,0.5-0.9,0.9-1.1
		c1.3-0.7,2.1-2.1,2-3.5c0-0.5,0.2-1,0.5-1.3C12.9,5.2,13.4,5,13.9,5c1.5,0.1,2.9-0.7,3.5-2c0.2-0.5,0.6-0.8,1.1-0.9
		C19,1.9,19.5,2,20,2.3c1.2,0.8,2.8,0.8,4.1,0C24.5,2,25,1.9,25.5,2.1C26,2.2,26.4,2.5,26.6,3c0.7,1.3,2.1,2.1,3.5,2
		c0.5,0,1,0.2,1.3,0.5C31.8,5.9,32,6.4,32,6.9c-0.1,1.5,0.7,2.9,2,3.5c0.5,0.2,0.8,0.6,0.9,1.1c0.1,0.5,0.1,1-0.2,1.4
		C33.9,14.2,33.9,15.8,34.7,17z"/>
	<path d="M26,14c0-0.1-0.1-0.2-0.2-0.2l-2.5-0.4l-1.1-2.3c0-0.1-0.1-0.1-0.2-0.1s-0.2,0.1-0.2,0.1l-1.1,2.3l-2.5,0.4
		c-0.1,0-0.2,0.1-0.2,0.2c0,0.1,0,0.2,0.1,0.3l1.8,1.8l-0.4,2.6c0,0.1,0,0.2,0.1,0.3c0.1,0.1,0.2,0.1,0.3,0l2.2-1.2l2.2,1.2
		c0,0,0.1,0,0.1,0c0.1,0,0.1,0,0.1-0.1c0.1-0.1,0.1-0.2,0.1-0.3l-0.4-2.6l1.8-1.8C26,14.2,26,14.1,26,14z"/>
	<path d="M22,5c-5.5,0-10,4.5-10,10c0,0.6,0.4,1,1,1c0.6,0,1-0.4,1-1c0-4.4,3.6-8,8-8s8,3.6,8,8s-3.6,8-8,8c-3.1,0-5.8-1.7-7.2-4.4
		c-0.2-0.5-0.8-0.7-1.3-0.5c-0.5,0.2-0.7,0.8-0.5,1.3c1.7,3.4,5.1,5.6,9,5.6c5.5,0,10-4.5,10-10S27.5,5,22,5z"/>
</g>
</svg>
