<?xml version="1.0" encoding="utf-8"?>
<!-- Generator: Adobe Illustrator 19.2.1, SVG Export Plug-In . SVG Version: 6.00 Build 0)  -->
<svg version="1.1" id="Layer_1" xmlns="http://www.w3.org/2000/svg" xmlns:xlink="http://www.w3.org/1999/xlink" x="0px" y="0px"
	 viewBox="0 0 44 44" style="enable-background:new 0 0 44 44;" xml:space="preserve">
<g>
	<path d="M43,38H7c-0.6,0-1,0.4-1,1s0.4,1,1,1h35v2H2v-2h1c0.6,0,1-0.4,1-1v-3h1h4h6h4h6h4h6h4h2c0.6,0,1-0.4,1-1s-0.4-1-1-1h-1V19
		h1c0.6,0,1-0.4,1-1v-4v-2c0-0.4-0.3-0.8-0.7-0.9l-7.2-2.7C32.3,3.5,27.5,0,22,0S11.7,3.5,9.9,8.4l-7.2,2.7C2.3,11.2,2,11.6,2,12v2
		c0,0.6,0.4,1,1,1h34c0.6,0,1-0.4,1-1s-0.4-1-1-1H4v-0.3l18-6.6l18,6.6V14v3h-1h-4h-6h-4h-6h-4H9H5H3c-0.6,0-1,0.4-1,1s0.4,1,1,1h1
		v15H3c-0.6,0-1,0.4-1,1v3H1c-0.6,0-1,0.4-1,1v4c0,0.6,0.4,1,1,1h42c0.6,0,1-0.4,1-1v-4C44,38.4,43.6,38,43,38z M21.7,4.1l-9.1,3.4
		C14.4,4.2,18,2,22,2s7.6,2.2,9.5,5.4l-9.1-3.4C22.1,4,21.9,4,21.7,4.1z M10,34V19h4v15H10z M20,34V19h4v15H20z M30,34V19h4v15H30z
		 M38,19v15h-2V19H38z M28,19v15h-2V19H28z M18,19v15h-2V19H18z M6,19h2v15H6V19z"/>
	<circle cx="22" cy="10" r="2"/>
</g>
</svg>
