<?xml version="1.0" encoding="utf-8"?>
<!-- Generator: Adobe Illustrator 19.2.1, SVG Export Plug-In . SVG Version: 6.00 Build 0)  -->
<svg version="1.1" id="Layer_1" xmlns="http://www.w3.org/2000/svg" xmlns:xlink="http://www.w3.org/1999/xlink" x="0px" y="0px"
	 viewBox="0 0 44 44" style="enable-background:new 0 0 44 44;" xml:space="preserve">
<g>
	<circle cx="10" cy="21" r="1"/>
	<path d="M40.5,0.1c-0.3-0.2-0.7-0.2-1,0L37,1.8l-2.4-1.6c-0.3-0.2-0.8-0.2-1.1,0L31,1.8l-2.4-1.6c-0.3-0.2-0.8-0.2-1.1,0L25,1.8
		l-2.4-1.6c-0.3-0.2-0.8-0.2-1.1,0L19,1.8l-2.4-1.6c-0.3-0.2-0.8-0.2-1.1,0L13,1.8l-2.4-1.6c-0.3-0.2-0.8-0.2-1.1,0L7,1.8L4.6,0.2
		c-0.3-0.2-0.7-0.2-1,0C3.2,0.3,3,0.6,3,1v42c0,0.4,0.2,0.7,0.5,0.9c0.3,0.2,0.7,0.2,1,0L7,42.2l2.4,1.6c0.3,0.2,0.8,0.2,1.1,0
		l2.4-1.6l2.4,1.6c0.3,0.2,0.8,0.2,1.1,0l2.4-1.6l2.4,1.6c0.3,0.2,0.8,0.2,1.1,0l2.4-1.6l2.4,1.6c0.3,0.2,0.8,0.2,1.1,0l2.4-1.6
		l2.4,1.6c0.3,0.2,0.8,0.2,1.1,0l2.4-1.6l2.4,1.6c0.2,0.1,0.4,0.2,0.6,0.2c0.2,0,0.3,0,0.5-0.1c0.3-0.2,0.5-0.5,0.5-0.9V1
		C41,0.6,40.8,0.3,40.5,0.1z M39,41.1l-1.4-1c-0.3-0.2-0.8-0.2-1.1,0L34,41.8l-2.4-1.6C31.4,40.1,31.2,40,31,40s-0.4,0.1-0.6,0.2
		L28,41.8l-2.4-1.6c-0.3-0.2-0.8-0.2-1.1,0L22,41.8l-2.4-1.6c-0.3-0.2-0.8-0.2-1.1,0L16,41.8l-2.4-1.6c-0.3-0.2-0.8-0.2-1.1,0
		L10,41.8l-2.4-1.6c-0.3-0.2-0.8-0.2-1.1,0l-1.4,1V2.9l1.4,1c0.3,0.2,0.8,0.2,1.1,0L10,2.2l2.4,1.6c0.3,0.2,0.8,0.2,1.1,0L16,2.2
		l2.4,1.6c0.3,0.2,0.8,0.2,1.1,0L22,2.2l2.4,1.6c0.3,0.2,0.8,0.2,1.1,0L28,2.2l2.4,1.6c0.3,0.2,0.8,0.2,1.1,0L34,2.2l2.4,1.6
		c0.3,0.2,0.8,0.2,1.1,0l1.4-1V41.1z"/>
	<path d="M32,26h-2c-0.6,0-1-0.4-1-1s0.4-1,1-1h3c0.6,0,1-0.4,1-1s-0.4-1-1-1h-1v-1c0-0.6-0.4-1-1-1c-0.6,0-1,0.4-1,1v1
		c-1.7,0-3,1.3-3,3s1.3,3,3,3h2c0.6,0,1,0.4,1,1s-0.4,1-1,1h-3c-0.6,0-1,0.4-1,1s0.4,1,1,1h1v1c0,0.6,0.4,1,1,1c0.6,0,1-0.4,1-1v-1
		c1.7,0,3-1.3,3-3S33.7,26,32,26z"/>
	<path d="M14,11h16c0.6,0,1-0.4,1-1s-0.4-1-1-1H14c-0.6,0-1,0.4-1,1S13.4,11,14,11z"/>
	<path d="M26,13h-8c-0.6,0-1,0.4-1,1s0.4,1,1,1h8c0.6,0,1-0.4,1-1S26.6,13,26,13z"/>
	<path d="M14,22h5c0.6,0,1-0.4,1-1s-0.4-1-1-1h-5c-0.6,0-1,0.4-1,1S13.4,22,14,22z"/>
	<circle cx="10" cy="25" r="1"/>
	<path d="M14,26h6c0.6,0,1-0.4,1-1s-0.4-1-1-1h-6c-0.6,0-1,0.4-1,1S13.4,26,14,26z"/>
	<circle cx="10" cy="29" r="1"/>
	<path d="M14,30h4c0.6,0,1-0.4,1-1s-0.4-1-1-1h-4c-0.6,0-1,0.4-1,1S13.4,30,14,30z"/>
	<circle cx="10" cy="33" r="1"/>
	<path d="M22,32h-8c-0.6,0-1,0.4-1,1s0.4,1,1,1h8c0.6,0,1-0.4,1-1S22.6,32,22,32z"/>
</g>
</svg>
