<?xml version="1.0" encoding="utf-8"?>
<!-- Generator: Adobe Illustrator 19.2.1, SVG Export Plug-In . SVG Version: 6.00 Build 0)  -->
<svg version="1.1" id="Layer_1" xmlns="http://www.w3.org/2000/svg" xmlns:xlink="http://www.w3.org/1999/xlink" x="0px" y="0px"
	 viewBox="0 0 44 44" style="enable-background:new 0 0 44 44;" xml:space="preserve">
<g>
	<path d="M10,7v24c0,0.6,0.4,1,1,1s1-0.4,1-1V7c0-0.6-0.4-1-1-1S10,6.4,10,7z"/>
	<path d="M11,38c-0.6,0-1,0.4-1,1s0.4,1,1,1h24c0.6,0,1-0.4,1-1s-0.4-1-1-1H11z"/>
	<path d="M30,17c0-0.6-0.4-1-1-1H19c-0.6,0-1,0.4-1,1s0.4,1,1,1h10C29.6,18,30,17.6,30,17z"/>
	<path d="M21,20c-0.6,0-1,0.4-1,1s0.4,1,1,1h6c0.6,0,1-0.4,1-1s-0.4-1-1-1H21z"/>
	<path d="M38,33V4c0-1.7-1.3-3-3-3h-1c0-0.6-0.4-1-1-1h-8c-0.6,0-1,0.4-1,1v8c0,0.3,0.2,0.7,0.5,0.9s0.7,0.2,1,0L29,8.1l3.6,1.8
		c0.3,0.2,0.7,0.1,1,0C33.8,9.7,34,9.3,34,9V6c0-0.6-0.4-1-1-1s-1,0.4-1,1v1.4l-2.6-1.3c-0.3-0.1-0.6-0.1-0.9,0L26,7.4V2h6
		c0,0.6,0.4,1,1,1h2c0.6,0,1,0.4,1,1v29c0,0.6-0.4,1-1,1H11c-1.1,0-2.2,0.4-3,1V8c0-2.8,2.2-5,5-5h8c0.6,0,1-0.4,1-1s-0.4-1-1-1h-8
		C9.1,1,6,4.1,6,8v31c0,2.8,2.2,5,5,5h26c0.6,0,1-0.4,1-1s-0.4-1-1-1H11c-1.7,0-3-1.3-3-3s1.3-3,3-3h24C36.7,36,38,34.7,38,33z"/>
</g>
</svg>
