<?xml version="1.0" encoding="utf-8"?>
<!-- Generator: Adobe Illustrator 19.2.1, SVG Export Plug-In . SVG Version: 6.00 Build 0)  -->
<svg version="1.1" id="Layer_1" xmlns="http://www.w3.org/2000/svg" xmlns:xlink="http://www.w3.org/1999/xlink" x="0px" y="0px"
	 viewBox="0 0 44 44" style="enable-background:new 0 0 44 44;" xml:space="preserve">
<g>
	<path d="M38,8h-6c-0.6,0-1,0.4-1,1s0.4,1,1,1h6c0.6,0,1,0.4,1,1v30c0,0.6-0.4,1-1,1h-8c-0.6,0-1-0.4-1-1V14h7c0.6,0,1-0.4,1-1
		s-0.4-1-1-1h-7v-1V3c0-1.7-1.3-3-3-3h-8c-1.7,0-3,1.3-3,3v13v1H8c-0.6,0-1,0.4-1,1s0.4,1,1,1h7v22c0,0.6-0.4,1-1,1H6
		c-0.6,0-1-0.4-1-1V16c0-0.6,0.4-1,1-1h6c0.6,0,1-0.4,1-1s-0.4-1-1-1H6c-1.7,0-3,1.3-3,3v25c0,1.7,1.3,3,3,3h8c0.8,0,1.5-0.3,2-0.8
		c0.5,0.5,1.2,0.8,2,0.8h8c0.8,0,1.5-0.3,2-0.8c0.5,0.5,1.2,0.8,2,0.8h8c1.7,0,3-1.3,3-3V11C41,9.3,39.7,8,38,8z M26,42h-8
		c-0.6,0-1-0.4-1-1V16V3c0-0.6,0.4-1,1-1h8c0.6,0,1,0.4,1,1v8v30C27,41.6,26.6,42,26,42z"/>
	<path d="M32,40h4c0.6,0,1-0.4,1-1s-0.4-1-1-1h-4c-0.6,0-1,0.4-1,1S31.4,40,32,40z"/>
	<path d="M23,38h-2c-0.6,0-1,0.4-1,1s0.4,1,1,1h2c0.6,0,1-0.4,1-1S23.6,38,23,38z"/>
	<path d="M12,38H8c-0.6,0-1,0.4-1,1s0.4,1,1,1h4c0.6,0,1-0.4,1-1S12.6,38,12,38z"/>
	<path d="M12,35H8c-0.6,0-1,0.4-1,1s0.4,1,1,1h4c0.6,0,1-0.4,1-1S12.6,35,12,35z"/>
	<path d="M12,32H8c-0.6,0-1,0.4-1,1s0.4,1,1,1h4c0.6,0,1-0.4,1-1S12.6,32,12,32z"/>
	<path d="M12,29H8c-0.6,0-1,0.4-1,1s0.4,1,1,1h4c0.6,0,1-0.4,1-1S12.6,29,12,29z"/>
	<path d="M24,6h-4c-0.6,0-1,0.4-1,1v14c0,0.6,0.4,1,1,1h4c0.6,0,1-0.4,1-1V7C25,6.4,24.6,6,24,6z M23,20h-2V8h2V20z"/>
	<path d="M32,33c0.6,0,1-0.4,1-1V20c0-0.6-0.4-1-1-1s-1,0.4-1,1v12C31,32.6,31.4,33,32,33z"/>
	<path d="M37,26c0-0.6-0.4-1-1-1s-1,0.4-1,1v6c0,0.6,0.4,1,1,1s1-0.4,1-1V26z"/>
	<path d="M23,33v-6c0-0.6-0.4-1-1-1s-1,0.4-1,1v6c0,0.6,0.4,1,1,1S23,33.6,23,33z"/>
</g>
</svg>
