<?xml version="1.0" encoding="utf-8"?>
<!-- Generator: Adobe Illustrator 21.1.0, SVG Export Plug-In . SVG Version: 6.00 Build 0)  -->
<svg version="1.1" id="Layer_1" xmlns="http://www.w3.org/2000/svg" xmlns:xlink="http://www.w3.org/1999/xlink" x="0px" y="0px"
	 viewBox="0 0 44 44" style="enable-background:new 0 0 44 44;" xml:space="preserve">
<g>
	<circle cx="22" cy="21" r="1"/>
	<polygon points="24,10 20,10 21,18 23,18 	"/>
	<path d="M22,0C14.3,0,8,6.3,8,14c0,4.4,1.9,8.4,5.2,10.9c1.8,1.3,2.7,3.2,2.8,5.7c-0.6,0.5-1,1.2-1,2c0,0.6,0.2,1.1,0.5,1.5
		c-0.3,0.4-0.5,0.9-0.5,1.5s0.2,1.1,0.5,1.5c-0.3,0.4-0.5,0.9-0.5,1.5c0,1.4,1.1,2.5,2.5,2.5h0.8l0.8,2.3c0.1,0.4,0.5,0.7,0.9,0.7h4
		c0.4,0,0.8-0.3,0.9-0.7l0.8-2.3h0.8c1.4,0,2.5-1.1,2.5-2.5c0-0.6-0.2-1.1-0.5-1.5c0.3-0.4,0.5-0.9,0.5-1.5s-0.2-1.1-0.5-1.5
		c0.3-0.4,0.5-0.9,0.5-1.5c0-1.4-1.1-2.5-2.5-2.5H22c-0.6,0-1,0.4-1,1s0.4,1,1,1h4.5c0.3,0,0.5,0.2,0.5,0.5S26.8,33,26.5,33
		c-0.6,0-1,0.4-1,1s0.4,1,1,1c0.3,0,0.5,0.2,0.5,0.5S26.8,36,26.5,36H22c-0.6,0-1,0.4-1,1s0.4,1,1,1h4.5c0.3,0,0.5,0.2,0.5,0.5
		S26.8,39,26.5,39h-9c-0.3,0-0.5-0.2-0.5-0.5s0.2-0.5,0.5-0.5c0.6,0,1-0.4,1-1s-0.4-1-1-1c-0.3,0-0.5-0.2-0.5-0.5s0.2-0.5,0.5-0.5
		H23c0.6,0,1-0.4,1-1s-0.4-1-1-1h-5.5c-0.3,0-0.5-0.2-0.5-0.5s0.2-0.5,0.5-0.5c0.6,0,1-0.4,1-1c0-0.4-0.2-0.7-0.5-0.9
		c-0.2-3-1.4-5.3-3.6-6.9C11.6,21.1,10,17.7,10,14c0-6.6,5.4-12,12-12s12,5.4,12,12c0,3.7-1.6,7.2-4.4,9.2c-1.6,1.2-2.6,2.7-3.2,4.5
		c-0.2,0.5,0.1,1.1,0.7,1.2c0.5,0.2,1.1-0.1,1.2-0.7c0.4-1.4,1.2-2.6,2.5-3.5C34.1,22.4,36,18.3,36,14C36,6.3,29.7,0,22,0z M23.3,42
		h-2.6l-0.3-1h3.2L23.3,42z"/>
</g>
</svg>
