<?xml version="1.0" encoding="utf-8"?>
<!-- Generator: Adobe Illustrator 19.2.1, SVG Export Plug-In . SVG Version: 6.00 Build 0)  -->
<svg version="1.1" id="Layer_1" xmlns="http://www.w3.org/2000/svg" xmlns:xlink="http://www.w3.org/1999/xlink" x="0px" y="0px"
	 viewBox="0 0 44 44" style="enable-background:new 0 0 44 44;" xml:space="preserve">
<g>
	<path d="M36,0H8C6.3,0,5,1.3,5,3v38c0,1.7,1.3,3,3,3h28c1.7,0,3-1.3,3-3V3C39,1.3,37.7,0,36,0z M37,41c0,0.6-0.4,1-1,1H8
		c-0.6,0-1-0.4-1-1V3c0-0.6,0.4-1,1-1h28c0.6,0,1,0.4,1,1V41z"/>
	<circle cx="29" cy="10" r="1"/>
	<circle cx="25" cy="10" r="1"/>
	<circle cx="21" cy="10" r="1"/>
	<path d="M34,4H10C9.4,4,9,4.4,9,5v10c0,0.6,0.4,1,1,1h24c0.6,0,1-0.4,1-1V5C35,4.4,34.6,4,34,4z M33,14H11V6h22V14z"/>
	<path d="M18,22h-2v-2c0-0.6-0.4-1-1-1s-1,0.4-1,1v2h-2c-0.6,0-1,0.4-1,1s0.4,1,1,1h2v2c0,0.6,0.4,1,1,1s1-0.4,1-1v-2h2
		c0.6,0,1-0.4,1-1S18.6,22,18,22z"/>
	<path d="M32,22h-6c-0.6,0-1,0.4-1,1s0.4,1,1,1h6c0.6,0,1-0.4,1-1S32.6,22,32,22z"/>
	<path d="M32,32h-6c-0.6,0-1,0.4-1,1s0.4,1,1,1h6c0.6,0,1-0.4,1-1S32.6,32,32,32z"/>
	<path d="M32,36h-6c-0.6,0-1,0.4-1,1s0.4,1,1,1h6c0.6,0,1-0.4,1-1S32.6,36,32,36z"/>
	<path d="M18.7,31.3c-0.4-0.4-1-0.4-1.4,0L15,33.6l-2.3-2.3c-0.4-0.4-1-0.4-1.4,0s-0.4,1,0,1.4l2.3,2.3l-2.3,2.3
		c-0.4,0.4-0.4,1,0,1.4c0.2,0.2,0.5,0.3,0.7,0.3s0.5-0.1,0.7-0.3l2.3-2.3l2.3,2.3c0.2,0.2,0.5,0.3,0.7,0.3s0.5-0.1,0.7-0.3
		c0.4-0.4,0.4-1,0-1.4L16.4,35l2.3-2.3C19.1,32.3,19.1,31.7,18.7,31.3z"/>
</g>
</svg>
