<?xml version="1.0" encoding="utf-8"?>
<!-- Generator: Adobe Illustrator 21.1.0, SVG Export Plug-In . SVG Version: 6.00 Build 0)  -->
<svg version="1.1" id="Layer_1" xmlns="http://www.w3.org/2000/svg" xmlns:xlink="http://www.w3.org/1999/xlink" x="0px" y="0px"
	 viewBox="0 0 44 44" style="enable-background:new 0 0 44 44;" xml:space="preserve">
<g>
	<path d="M43,19c-0.6,0-1,0.4-1,1v4v6v1c0,1.1-0.9,2-2,2h-2c-1.7,0-3,1.3-3,3v2c0,1.1-0.9,2-2,2h-5H3c-0.6,0-1-0.4-1-1V20
		c0-0.6-0.4-1-1-1s-1,0.4-1,1v19c0,1.7,1.3,3,3,3h25h5h1.3c1.3,0,2.6-0.5,3.5-1.5l4.7-4.7c0.9-0.9,1.5-2.2,1.5-3.5V31v-1v-6v-4
		C44,19.4,43.6,19,43,19z M36.9,38.7c0-0.2,0.1-0.4,0.1-0.7v-2c0-0.6,0.4-1,1-1h2c0.2,0,0.4,0,0.7-0.1L36.9,38.7z"/>
	<path d="M41,5h-7V3c0-0.6-0.4-1-1-1c-0.6,0-1,0.4-1,1v2H12V3c0-0.6-0.4-1-1-1s-1,0.4-1,1v2H3C1.3,5,0,6.3,0,8v8c0,0.6,0.4,1,1,1h42
		c0.6,0,1-0.4,1-1V8C44,6.3,42.7,5,41,5z M42,15H2V8c0-0.6,0.4-1,1-1h7v2.3c-0.6,0.3-1,1-1,1.7c0,1.1,0.9,2,2,2c1.1,0,2-0.9,2-2
		c0-0.7-0.4-1.4-1-1.7V7h20v2.3c-0.6,0.3-1,1-1,1.7c0,1.1,0.9,2,2,2c1.1,0,2-0.9,2-2c0-0.7-0.4-1.4-1-1.7V7h7c0.6,0,1,0.4,1,1V15z"
		/>
	<circle cx="18" cy="23" r="2"/>
	<circle cx="26" cy="23" r="2"/>
	<circle cx="34" cy="23" r="2"/>
	<circle cx="10" cy="32" r="2"/>
	<circle cx="18" cy="32" r="2"/>
	<circle cx="26" cy="32" r="2"/>
</g>
</svg>
