<?xml version="1.0" encoding="iso-8859-1"?>
<!-- Generator: Adobe Illustrator 20.0.0, SVG Export Plug-In . SVG Version: 6.00 Build 0)  -->
<svg version="1.1" xmlns="http://www.w3.org/2000/svg" xmlns:xlink="http://www.w3.org/1999/xlink" x="0px" y="0px"
	 viewBox="0 0 44 44" style="enable-background:new 0 0 44 44;" xml:space="preserve">
<g id="Layer_21">
</g>
<g id="Layer_20">
</g>
<g id="Layer_19">
</g>
<g id="Layer_18">
</g>
<g id="Layer_17">
</g>
<g id="Layer_16">
	<g>
		<path d="M2,10c0.552,0,1-0.448,1-1V7c0-0.551,0.449-1,1-1h6v1c0,1.654,1.346,3,3,3c1.067,0,2.063-0.574,2.598-1.499
			c0.276-0.478,0.113-1.089-0.365-1.366c-0.478-0.276-1.089-0.113-1.366,0.365C13.688,7.808,13.356,8,13,8c-0.551,0-1-0.449-1-1V3
			c0-0.551,0.449-1,1-1s1,0.449,1,1c0,0,0,1.87,0,1.989C14,4.992,14,4.996,14,5c0,0.552,0.448,1,1,1h10c0.552,0,1-0.448,1-1
			s-0.448-1-1-1h-9.002C16,3.71,16,3.378,16,3c0-1.654-1.346-3-3-3s-3,1.346-3,3v1H4C2.346,4,1,5.346,1,7v2C1,9.552,1.448,10,2,10z"
			/>
		<path d="M40,4h-6V3c0-1.654-1.346-3-3-3s-3,1.346-3,3v4c0,1.654,1.346,3,3,3c0.527,0,1.046-0.139,1.501-0.402
			c0.455-0.263,0.834-0.643,1.097-1.097c0.276-0.478,0.113-1.09-0.365-1.367c-0.478-0.276-1.09-0.113-1.367,0.365
			c-0.088,0.152-0.215,0.28-0.367,0.368C31.349,7.954,31.176,8,31,8c-0.551,0-1-0.449-1-1V3c0-0.551,0.449-1,1-1s1,0.449,1,1v2
			c0,0.552,0.448,1,1,1h7c0.551,0,1,0.449,1,1v34c0,0.551-0.449,1-1,1H4c-0.551,0-1-0.449-1-1V14h35c0.552,0,1-0.448,1-1
			s-0.448-1-1-1H2c-0.552,0-1,0.448-1,1v28c0,1.654,1.346,3,3,3h36c1.654,0,3-1.346,3-3V7C43,5.346,41.654,4,40,4z"/>
		<path d="M13,18c0-0.552-0.448-1-1-1H8c-0.552,0-1,0.448-1,1v4c0,0.552,0.448,1,1,1h4c0.552,0,1-0.448,1-1V18z M11,21H9v-2h2V21z"
			/>
		<path d="M21,18c0-0.552-0.448-1-1-1h-4c-0.552,0-1,0.448-1,1v4c0,0.552,0.448,1,1,1h4c0.552,0,1-0.448,1-1V18z M19,21h-2v-2h2V21z
			"/>
		<path d="M29,18c0-0.552-0.448-1-1-1h-4c-0.552,0-1,0.448-1,1v4c0,0.552,0.448,1,1,1h4c0.552,0,1-0.448,1-1V18z M27,21h-2v-2h2V21z
			"/>
		<path d="M37,18c0-0.552-0.448-1-1-1h-4c-0.552,0-1,0.448-1,1v4c0,0.552,0.448,1,1,1h4c0.552,0,1-0.448,1-1V18z M35,21h-2v-2h2V21z
			"/>
		<path d="M13,26c0-0.552-0.448-1-1-1H8c-0.552,0-1,0.448-1,1v4c0,0.552,0.448,1,1,1h4c0.552,0,1-0.448,1-1V26z M11,29H9v-2h2V29z"
			/>
		<path d="M21,26c0-0.552-0.448-1-1-1h-4c-0.552,0-1,0.448-1,1v4c0,0.552,0.448,1,1,1h4c0.552,0,1-0.448,1-1V26z M19,29h-2v-2h2V29z
			"/>
		<path d="M29,26c0-0.552-0.448-1-1-1h-4c-0.552,0-1,0.448-1,1v4c0,0.552,0.448,1,1,1h4c0.552,0,1-0.448,1-1V26z M27,29h-2v-2h2V29z
			"/>
		<path d="M37,26c0-0.552-0.448-1-1-1h-4c-0.552,0-1,0.448-1,1v4c0,0.552,0.448,1,1,1h4c0.552,0,1-0.448,1-1V26z M35,29h-2v-2h2V29z
			"/>
		<path d="M12,33H8c-0.552,0-1,0.448-1,1v4c0,0.552,0.448,1,1,1h4c0.552,0,1-0.448,1-1v-4C13,33.448,12.552,33,12,33z M11,37H9v-2h2
			V37z"/>
		<path d="M20,33h-4c-0.552,0-1,0.448-1,1v4c0,0.552,0.448,1,1,1h4c0.552,0,1-0.448,1-1v-4C21,33.448,20.552,33,20,33z M19,37h-2v-2
			h2V37z"/>
		<path d="M28,33h-4c-0.552,0-1,0.448-1,1v4c0,0.552,0.448,1,1,1h4c0.552,0,1-0.448,1-1v-4C29,33.448,28.552,33,28,33z M27,37h-2v-2
			h2V37z"/>
		<path d="M36,33h-4c-0.552,0-1,0.448-1,1v4c0,0.552,0.448,1,1,1h4c0.552,0,1-0.448,1-1v-4C37,33.448,36.552,33,36,33z M35,37h-2v-2
			h2V37z"/>
	</g>
</g>
<g id="Layer_15">
</g>
<g id="Layer_14">
</g>
<g id="Layer_13">
</g>
<g id="Layer_12">
</g>
<g id="Layer_11">
</g>
<g id="Layer_10">
</g>
<g id="Layer_9">
</g>
<g id="Layer_8">
</g>
<g id="Layer_7">
</g>
<g id="Layer_6">
</g>
<g id="Layer_5">
</g>
<g id="Layer_4">
</g>
<g id="Layer_3">
</g>
<g id="Layer_2">
</g>
</svg>
