<?xml version="1.0" encoding="utf-8"?>
<!-- Generator: Adobe Illustrator 19.2.1, SVG Export Plug-In . SVG Version: 6.00 Build 0)  -->
<svg version="1.1" id="Layer_1" xmlns="http://www.w3.org/2000/svg" xmlns:xlink="http://www.w3.org/1999/xlink" x="0px" y="0px"
	 viewBox="0 0 44 44" style="enable-background:new 0 0 44 44;" xml:space="preserve">
<g>
	<circle cx="41" cy="3" r="1"/>
	<circle cx="38" cy="3" r="1"/>
	<circle cx="35" cy="3" r="1"/>
	<circle cx="7" cy="37" r="1"/>
	<circle cx="4" cy="37" r="1"/>
	<circle cx="1" cy="37" r="1"/>
	<path d="M21,23h-2c-0.6,0-1-0.4-1-1s0.4-1,1-1h3c0.6,0,1-0.4,1-1s-0.4-1-1-1h-1v-1c0-0.6-0.4-1-1-1c-0.6,0-1,0.4-1,1v1
		c-1.7,0-3,1.3-3,3s1.3,3,3,3h2c0.6,0,1,0.4,1,1s-0.4,1-1,1h-3c-0.6,0-1,0.4-1,1s0.4,1,1,1h1v1c0,0.6,0.4,1,1,1c0.6,0,1-0.4,1-1v-1
		c1.7,0,3-1.3,3-3S22.7,23,21,23z"/>
	<path d="M32.8,29.8c-0.1-0.4-0.4-0.8-0.7-1.2c0.5-1.2,0.7-2.5,0.8-3.8c0.5-0.2,0.9-0.4,1.2-0.8c0.5-0.6,0.8-1.5,0.7-2.3
		C33.7,14.5,27.3,9,20,9c-3.2,0-6.3,1-8.9,2.9C10.5,12.4,10,13.2,10,14c0,0.5,0.1,1,0.3,1.4C8.2,17.7,7,20.7,7,24
		c0,3.3,1.2,6.3,3.3,8.6C10,33,9.9,33.5,10,34c0.1,0.8,0.5,1.6,1.2,2.1c1.9,1.4,4.2,2.4,6.6,2.7c0.1,0,0.3,0,0.4,0
		c0.7,0,1.3-0.2,1.9-0.7c0.4-0.3,0.6-0.7,0.8-1.2c1-0.1,2-0.2,2.9-0.5c0.3,0.4,0.7,0.7,1.2,0.8c0.3,0.1,0.6,0.2,1,0.2
		c0.5,0,1-0.1,1.4-0.4c2.1-1.2,3.8-2.9,5.1-4.9C32.9,31.5,33.1,30.6,32.8,29.8z M12,14.1c0-0.1,0.1-0.4,0.3-0.6
		c2.2-1.6,4.9-2.5,7.7-2.5c6.4,0,11.9,4.7,12.8,11c0,0.3,0,0.5-0.2,0.7C32.6,22.8,32.3,23,32,23h-0.3c-0.4,0-0.8-0.3-0.8-0.8
		C30,16.9,25.4,13,20,13c-2.4,0-4.6,0.7-6.5,2.1c-0.3,0.2-0.8,0.2-1.1-0.1l-0.2-0.2C12,14.6,12,14.3,12,14.1z M19,36
		c0,0.3-0.2,0.5-0.3,0.6c-0.2,0.2-0.4,0.2-0.7,0.2c-2-0.3-4-1.1-5.7-2.4C12,34.3,12,34,12,33.9c0-0.1,0-0.4,0.2-0.7l0.2-0.2
		c0.2-0.2,0.4-0.3,0.6-0.3c0.2,0,0.3,0,0.5,0.1c1.4,1,3,1.7,4.7,2c0.5,0.1,0.8,0.4,0.8,0.8V36z M24.4,31.8c-1,0.6-1.5,1.7-1.4,2.8
		c-0.7,0.2-1.4,0.3-2.1,0.4c-0.3-1.1-1.2-1.9-2.3-2.1c-1.4-0.2-2.7-0.8-3.9-1.6c-0.9-0.7-2.1-0.7-3.1-0.1C10,29.2,9,26.7,9,24
		c0-2.7,1-5.2,2.6-7.1c1,0.5,2.2,0.5,3.1-0.1c1.5-1.1,3.4-1.7,5.3-1.7c4.4,0,8.2,3.2,8.9,7.5c0.2,1.2,1,2,2.1,2.3
		c-0.1,1-0.3,1.9-0.6,2.8c-1.1-0.2-2.3,0.3-2.9,1.2C26.7,30.1,25.6,31.1,24.4,31.8z M30.8,31.1c-1.1,1.7-2.7,3.2-4.5,4.2
		c-0.2,0.1-0.5,0.2-0.7,0.1c-0.1,0-0.4-0.2-0.5-0.5L25,34.6c-0.2-0.4,0-0.8,0.4-1.1c1.5-0.9,2.8-2.1,3.7-3.5
		c0.2-0.3,0.7-0.4,1.1-0.3l0.3,0.1c0.3,0.1,0.4,0.4,0.5,0.5C30.9,30.5,31,30.8,30.8,31.1z"/>
	<path d="M30,10c0.3,0,0.5-0.1,0.7-0.3L32.4,8H41c0.6,0,1-0.4,1-1s-0.4-1-1-1h-9c-0.3,0-0.5,0.1-0.7,0.3l-2,2c-0.4,0.4-0.4,1,0,1.4
		C29.5,9.9,29.7,10,30,10z"/>
	<path d="M11.3,38.3L9.6,40H1c-0.6,0-1,0.4-1,1s0.4,1,1,1h9c0.3,0,0.5-0.1,0.7-0.3l2-2c0.4-0.4,0.4-1,0-1.4S11.7,37.9,11.3,38.3z"/>
	<circle cx="37" cy="35" r="1"/>
	<circle cx="40" cy="35" r="1"/>
	<circle cx="43" cy="35" r="1"/>
	<path d="M43,38h-8.6l-1.7-1.7c-0.4-0.4-1-0.4-1.4,0s-0.4,1,0,1.4l2,2c0.2,0.2,0.4,0.3,0.7,0.3h9c0.6,0,1-0.4,1-1S43.6,38,43,38z"/>
</g>
</svg>
