<?xml version="1.0" encoding="utf-8"?>
<!-- Generator: Adobe Illustrator 19.2.1, SVG Export Plug-In . SVG Version: 6.00 Build 0)  -->
<svg version="1.1" id="Layer_1" xmlns="http://www.w3.org/2000/svg" xmlns:xlink="http://www.w3.org/1999/xlink" x="0px" y="0px"
	 viewBox="0 0 44 44" style="enable-background:new 0 0 44 44;" xml:space="preserve">
<g>
	<path d="M38,9h-7c-0.6,0-1-0.4-1-1V5c0-0.6-0.4-1-1-1s-1,0.4-1,1v3c0,1.7,1.3,3,3,3h6v30c0,0.6-0.4,1-1,1H8c-0.6,0-1-0.4-1-1V3
		c0-0.6,0.4-1,1-1h20.6l5.7,5.7c0.4,0.4,1,0.4,1.4,0s0.4-1,0-1.4l-6-6C29.5,0.1,29.3,0,29,0H8C6.3,0,5,1.3,5,3v38c0,1.7,1.3,3,3,3
		h28c1.7,0,3-1.3,3-3V10C39,9.4,38.6,9,38,9z"/>
	<path d="M34,24c0-0.6-0.4-1-1-1H21c-0.6,0-1,0.4-1,1s0.4,1,1,1h12C33.6,25,34,24.6,34,24z"/>
	<path d="M21,29h6c0.6,0,1-0.4,1-1s-0.4-1-1-1h-6c-0.6,0-1,0.4-1,1S20.4,29,21,29z"/>
	<path d="M31,14H21c-0.6,0-1,0.4-1,1s0.4,1,1,1h10c0.6,0,1-0.4,1-1S31.6,14,31,14z"/>
	<path d="M21,20h3c0.6,0,1-0.4,1-1s-0.4-1-1-1h-3c-0.6,0-1,0.4-1,1S20.4,20,21,20z"/>
	<path d="M31,33c0-0.6-0.4-1-1-1h-9c-0.6,0-1,0.4-1,1s0.4,1,1,1h9C30.6,34,31,33.6,31,33z"/>
	<path d="M21,36c-0.6,0-1,0.4-1,1s0.4,1,1,1h5c0.6,0,1-0.4,1-1s-0.4-1-1-1H21z"/>
	<path d="M17,24c0-0.6-0.4-1-1-1h-4c-0.6,0-1,0.4-1,1v4c0,0.6,0.4,1,1,1h4c0.6,0,1-0.4,1-1V24z M15,27h-2v-2h2V27z"/>
	<path d="M17,15c0-0.6-0.4-1-1-1h-4c-0.6,0-1,0.4-1,1v4c0,0.6,0.4,1,1,1h4c0.6,0,1-0.4,1-1V15z M15,18h-2v-2h2V18z"/>
	<path d="M16,32h-4c-0.6,0-1,0.4-1,1v4c0,0.6,0.4,1,1,1h4c0.6,0,1-0.4,1-1v-4C17,32.4,16.6,32,16,32z M15,36h-2v-2h2V36z"/>
</g>
</svg>
