<?xml version="1.0" encoding="utf-8"?>
<!-- Generator: Adobe Illustrator 21.1.0, SVG Export Plug-In . SVG Version: 6.00 Build 0)  -->
<svg version="1.1" id="Layer_1" xmlns="http://www.w3.org/2000/svg" xmlns:xlink="http://www.w3.org/1999/xlink" x="0px" y="0px"
	 viewBox="0 0 44 44" style="enable-background:new 0 0 44 44;" xml:space="preserve">
<g>
	<path d="M25,29c0-0.6-0.4-1-1-1h-6c-0.6,0-1,0.4-1,1s0.4,1,1,1h6C24.6,30,25,29.6,25,29z"/>
	<path d="M18,31c-0.6,0-1,0.4-1,1s0.4,1,1,1h4c0.6,0,1-0.4,1-1s-0.4-1-1-1H18z"/>
	<circle cx="15" cy="29" r="1"/>
	<circle cx="15" cy="32" r="1"/>
	<circle cx="22" cy="4" r="1"/>
	<path d="M17,9h10c1.1,0,2-0.9,2-2V4.8c0-0.9-0.6-1.7-1.5-1.9l-1.8-0.5C25,1,23.6,0,22,0s-3,1-3.6,2.4l-1.8,0.5
		c-0.9,0.2-1.5,1-1.5,1.9V7C15,8.1,15.9,9,17,9z M19.4,4.2c0.4-0.1,0.6-0.4,0.7-0.7C20.3,2.6,21.1,2,22,2s1.7,0.6,1.9,1.5
		c0.1,0.4,0.4,0.6,0.7,0.7L27,4.8V7H17l0-2.2L19.4,4.2z"/>
	<path d="M36,2h-5c-0.6,0-1,0.4-1,1s0.4,1,1,1h5c0.6,0,1,0.4,1,1v36c0,0.6-0.4,1-1,1H8c-0.6,0-1-0.4-1-1V5c0-0.6,0.4-1,1-1h5
		c0.6,0,1-0.4,1-1s-0.4-1-1-1H8C6.3,2,5,3.3,5,5v36c0,1.7,1.3,3,3,3h28c1.7,0,3-1.3,3-3V5C39,3.3,37.7,2,36,2z"/>
	<path d="M13,6h-3C9.4,6,9,6.4,9,7v32c0,0.6,0.4,1,1,1h15.3c1.3,0,2.6-0.5,3.5-1.5l4.7-4.7c0.9-0.9,1.5-2.2,1.5-3.5V7
		c0-0.6-0.4-1-1-1h-3c-0.6,0-1,0.4-1,1s0.4,1,1,1h2v21c0,1.1-0.9,2-2,2h-2c-1.7,0-3,1.3-3,3v2c0,1.1-0.9,2-2,2H11V8h2
		c0.6,0,1-0.4,1-1S13.6,6,13,6z M28,36v-2c0-0.6,0.4-1,1-1h2c0.2,0,0.4,0,0.7-0.1l-3.7,3.7C28,36.4,28,36.2,28,36z"/>
	<path d="M13,22v2c0,0.6,0.4,1,1,1c0.6,0,1-0.4,1-1v-2c0-0.6-0.4-1-1-1C13.4,21,13,21.4,13,22z"/>
	<path d="M18,25c0.6,0,1-0.4,1-1v-8c0-0.6-0.4-1-1-1c-0.6,0-1,0.4-1,1v8C17,24.6,17.4,25,18,25z"/>
	<path d="M25,19v5c0,0.6,0.4,1,1,1c0.6,0,1-0.4,1-1v-5c0-0.6-0.4-1-1-1C25.4,18,25,18.4,25,19z"/>
	<path d="M23,24v-7c0-0.6-0.4-1-1-1c-0.6,0-1,0.4-1,1v7c0,0.6,0.4,1,1,1C22.6,25,23,24.6,23,24z"/>
	<path d="M29,24c0,0.6,0.4,1,1,1c0.6,0,1-0.4,1-1V13c0-0.6-0.4-1-1-1c-0.6,0-1,0.4-1,1V24z"/>
</g>
</svg>
