<?xml version="1.0" encoding="iso-8859-1"?>
<!-- Generator: Adobe Illustrator 20.0.0, SVG Export Plug-In . SVG Version: 6.00 Build 0)  -->
<svg version="1.1" xmlns="http://www.w3.org/2000/svg" xmlns:xlink="http://www.w3.org/1999/xlink" x="0px" y="0px"
	 viewBox="0 0 44 44" style="enable-background:new 0 0 44 44;" xml:space="preserve">
<g id="Layer_21">
</g>
<g id="Layer_20">
</g>
<g id="Layer_19">
</g>
<g id="Layer_18">
</g>
<g id="Layer_17">
	<g>
		<path d="M16,27h12c0.553,0,1-0.448,1-1s-0.447-1-1-1H16c-0.553,0-1,0.448-1,1S15.447,27,16,27z"/>
		<path d="M36,2h-4c-0.553,0-1,0.448-1,1s0.447,1,1,1h4c0.552,0,1,0.449,1,1v36c0,0.551-0.448,1-1,1H8c-0.552,0-1-0.449-1-1V5
			c0-0.551,0.448-1,1-1h4c0.553,0,1-0.448,1-1s-0.447-1-1-1H8C6.346,2,5,3.346,5,5v36c0,1.654,1.346,3,3,3h28c1.654,0,3-1.346,3-3V5
			C39,3.346,37.654,2,36,2z"/>
		<path d="M10,6C9.447,6,9,6.448,9,7v32c0,0.552,0.447,1,1,1h17c0.234,0,0.461-0.082,0.641-0.232l6-5
			c0.424-0.354,0.481-0.984,0.128-1.408c-0.354-0.423-0.983-0.482-1.409-0.128L26.638,38H11V8h2c0.553,0,1-0.448,1-1s-0.447-1-1-1
			H10z"/>
		<path d="M31,8h2v22h-5c-1.654,0-3,1.346-3,3v3c0,0.552,0.447,1,1,1s1-0.448,1-1v-3c0-0.552,0.448-1,1-1h6c0.553,0,1-0.448,1-1V7
			c0-0.552-0.447-1-1-1h-3c-0.553,0-1,0.448-1,1S30.447,8,31,8z"/>
		<path d="M18,8h8c1.654,0,3-1.346,3-3V3c0-0.552-0.447-1-1-1h-3.171C24.416,0.836,23.304,0,22,0s-2.416,0.836-2.829,2H16
			c-0.553,0-1,0.448-1,1v2C15,6.654,16.346,8,18,8z M17,4h3c0.553,0,1-0.448,1-1c0-0.551,0.448-1,1-1s1,0.449,1,1
			c0,0.552,0.447,1,1,1h3v1c0,0.551-0.448,1-1,1h-8c-0.552,0-1-0.449-1-1V4z"/>
		<path d="M27.707,13.293c-0.391-0.391-1.023-0.391-1.414,0L23,16.586l-1.293-1.293c-0.391-0.391-1.023-0.391-1.414,0
			s-0.391,1.023,0,1.414l2,2C22.488,18.902,22.744,19,23,19s0.512-0.098,0.707-0.293l4-4C28.098,14.316,28.098,13.684,27.707,13.293
			z"/>
		<path d="M23,13c0.553,0,1-0.448,1-1s-0.447-1-1-1h-6c-0.553,0-1,0.448-1,1v10c0,0.552,0.447,1,1,1h10c0.553,0,1-0.448,1-1v-3
			c0-0.552-0.447-1-1-1s-1,0.448-1,1v2h-8v-8H23z"/>
	</g>
</g>
<g id="Layer_16">
</g>
<g id="Layer_15">
</g>
<g id="Layer_14">
</g>
<g id="Layer_13">
</g>
<g id="Layer_12">
</g>
<g id="Layer_11">
</g>
<g id="Layer_10">
</g>
<g id="Layer_9">
</g>
<g id="Layer_8">
</g>
<g id="Layer_7">
</g>
<g id="Layer_6">
</g>
<g id="Layer_5">
</g>
<g id="Layer_4">
</g>
<g id="Layer_3">
</g>
<g id="Layer_2">
</g>
</svg>
