<?xml version="1.0" encoding="iso-8859-1"?>
<!-- Generator: Adobe Illustrator 20.0.0, SVG Export Plug-In . SVG Version: 6.00 Build 0)  -->
<svg version="1.1" xmlns="http://www.w3.org/2000/svg" xmlns:xlink="http://www.w3.org/1999/xlink" x="0px" y="0px"
	 viewBox="0 0 44 44" style="enable-background:new 0 0 44 44;" xml:space="preserve">
<g id="Layer_21">
</g>
<g id="Layer_20">
</g>
<g id="Layer_19">
</g>
<g id="Layer_18">
</g>
<g id="Layer_17">
</g>
<g id="Layer_16">
</g>
<g id="Layer_15">
</g>
<g id="Layer_14">
</g>
<g id="Layer_13">
</g>
<g id="Layer_12">
	<g>
		<ellipse transform="matrix(0.866 -0.5 0.5 0.866 -2.9904 8.8397)" cx="15" cy="10" rx="1" ry="1"/>
		<ellipse transform="matrix(0.866 -0.5 0.5 0.866 -13.1148 19.0551)" cx="29" cy="34" rx="1" ry="1"/>
		<ellipse transform="matrix(0.5 -0.866 0.866 0.5 -7.9903 16.1599)" cx="10" cy="15" rx="1" ry="1"/>
		<ellipse transform="matrix(0.5 -0.866 0.866 0.5 -8.1152 43.9437)" cx="34" cy="29" rx="1" ry="1"/>
		<ellipse transform="matrix(0.5 -0.866 0.866 0.5 5.8397 30.1148)" cx="29" cy="10" rx="1" ry="1"/>
		<ellipse transform="matrix(0.5 -0.866 0.866 0.5 -21.945 29.9905)" cx="15" cy="34" rx="1" ry="1"/>
		<ellipse transform="matrix(0.866 -0.5 0.5 0.866 -2.9448 19.0105)" cx="34" cy="15" rx="1" ry="1"/>
		<ellipse transform="matrix(0.866 -0.5 0.5 0.866 -13.1607 8.8859)" cx="10" cy="29" rx="1" ry="1"/>
		<path d="M22,0C9.869,0,0,9.869,0,22s9.869,22,22,22c0.553,0,1-0.448,1-1s-0.447-1-1-1C10.972,42,2,33.028,2,22S10.972,2,22,2
			s20,8.972,20,20c0,9.57-6.809,17.829-16.19,19.638c-0.542,0.104-0.897,0.629-0.792,1.171c0.104,0.541,0.619,0.896,1.171,0.792
			C36.509,41.611,44,32.527,44,22C44,9.869,34.131,0,22,0z"/>
		<path d="M22,4C12.075,4,4,12.075,4,22s8.075,18,18,18s18-8.075,18-18c0-8.348-5.66-15.544-13.766-17.499
			c-0.536-0.127-1.077,0.201-1.206,0.738c-0.13,0.537,0.2,1.077,0.737,1.207C32.642,8.104,37.528,14.011,37.958,21H36
			c-0.553,0-1,0.448-1,1s0.447,1,1,1h1.949C37.45,31.023,31.023,37.45,23,37.949V36c0-0.552-0.447-1-1-1s-1,0.448-1,1v1.949
			C12.977,37.45,6.55,31.023,6.051,23H8c0.553,0,1-0.448,1-1s-0.447-1-1-1H6.049C6.548,12.975,12.974,6.529,21,6.031V8
			c0,0.552,0.447,1,1,1s1-0.448,1-1V5C23,4.448,22.553,4,22,4z"/>
		<path d="M23,19.184V14c0-0.552-0.447-1-1-1s-1,0.448-1,1v5.184c-1.161,0.414-2,1.514-2,2.816c0,1.654,1.346,3,3,3
			c0.462,0,0.896-0.114,1.287-0.302c0.003,0.003,0.003,0.006,0.006,0.009l6,6C29.488,30.902,29.744,31,30,31
			s0.512-0.098,0.707-0.293c0.391-0.391,0.391-1.023,0-1.414l-6-6c-0.003-0.003-0.006-0.003-0.009-0.006
			C24.886,22.896,25,22.463,25,22C25,20.698,24.161,19.598,23,19.184z M22,23c-0.552,0-1-0.449-1-1s0.448-1,1-1s1,0.449,1,1
			S22.552,23,22,23z"/>
	</g>
</g>
<g id="Layer_11">
</g>
<g id="Layer_10">
</g>
<g id="Layer_9">
</g>
<g id="Layer_8">
</g>
<g id="Layer_7">
</g>
<g id="Layer_6">
</g>
<g id="Layer_5">
</g>
<g id="Layer_4">
</g>
<g id="Layer_3">
</g>
<g id="Layer_2">
</g>
</svg>
