<?xml version="1.0" encoding="utf-8"?>
<!-- Generator: Adobe Illustrator 19.2.1, SVG Export Plug-In . SVG Version: 6.00 Build 0)  -->
<svg version="1.1" id="Layer_1" xmlns="http://www.w3.org/2000/svg" xmlns:xlink="http://www.w3.org/1999/xlink" x="0px" y="0px"
	 viewBox="0 0 44 44" style="enable-background:new 0 0 44 44;" xml:space="preserve">
<g>
	<path d="M43,21h-1v-5c0-0.6-0.4-1-1-1h-1v-5c0-0.6-0.4-1-1-1h-1V4c0-0.6-0.4-1-1-1H9C8.4,3,8,3.4,8,4v5c0,0.6,0.4,1,1,1s1-0.4,1-1
		V5h26v4H20c-0.6,0-1,0.4-1,1s0.4,1,1,1h18v4h-9c-0.6,0-1,0.4-1,1s0.4,1,1,1h9h1h1v4h-8c-0.6,0-1,0.4-1,1s0.4,1,1,1h10v4h-9
		c-0.6,0-1,0.4-1,1s0.4,1,1,1h3v4h-5c-0.6,0-1,0.4-1,1s0.4,1,1,1h9v4H26c-0.6,0-1,0.4-1,1s0.4,1,1,1h15c0.6,0,1-0.4,1-1v-6
		c0-0.6-0.4-1-1-1h-3v-4h5c0.6,0,1-0.4,1-1v-6C44,21.4,43.6,21,43,21z"/>
	<path d="M30,26c0-8.3-6.7-15-15-15S0,17.7,0,26s6.7,15,15,15S30,34.3,30,26z M15,39C7.8,39,2,33.2,2,26s5.8-13,13-13s13,5.8,13,13
		S22.2,39,15,39z"/>
	<path d="M15,15C8.9,15,4,19.9,4,26s4.9,11,11,11s11-4.9,11-11S21.1,15,15,15z M15,35c-5,0-9-4-9-9s4-9,9-9s9,4,9,9S20,35,15,35z"/>
	<path d="M17,28h-1v-5c0-0.6-0.4-1-1-1h-2c-0.6,0-1,0.4-1,1s0.4,1,1,1h1v4h-1c-0.6,0-1,0.4-1,1s0.4,1,1,1h4c0.6,0,1-0.4,1-1
		S17.6,28,17,28z"/>
</g>
</svg>
