<?xml version="1.0" encoding="utf-8"?>
<!-- Generator: Adobe Illustrator 21.1.0, SVG Export Plug-In . SVG Version: 6.00 Build 0)  -->
<svg version="1.1" id="Layer_1" xmlns="http://www.w3.org/2000/svg" xmlns:xlink="http://www.w3.org/1999/xlink" x="0px" y="0px"
	 viewBox="0 0 44 44" style="enable-background:new 0 0 44 44;" xml:space="preserve">
<g>
	<path d="M22,0C9.9,0,0,9.9,0,22s9.9,22,22,22c0.6,0,1-0.4,1-1s-0.4-1-1-1C11,42,2,33,2,22S11,2,22,2s20,9,20,20
		c0,9.6-6.8,17.8-16.2,19.6c-0.5,0.1-0.9,0.6-0.8,1.2c0.1,0.5,0.6,0.9,1.2,0.8C36.5,41.6,44,32.5,44,22C44,9.9,34.1,0,22,0z"/>
	<path d="M22,4C12.1,4,4,12.1,4,22s8.1,18,18,18s18-8.1,18-18c0-8.3-5.7-15.5-13.8-17.5c-0.5-0.1-1.1,0.2-1.2,0.7s0.2,1.1,0.7,1.2
		C32.6,8.1,37.5,14,38,21h-1c-0.6,0-1,0.4-1,1s0.4,1,1,1h0.9C37.4,31,31,37.4,23,37.9V37c0-0.6-0.4-1-1-1s-1,0.4-1,1v0.9
		C13,37.4,6.6,31,6.1,23H7c0.6,0,1-0.4,1-1s-0.4-1-1-1H6C6.5,13,13,6.5,21,6v1c0,0.6,0.4,1,1,1s1-0.4,1-1V5C23,4.4,22.6,4,22,4z"/>
	<path d="M31.7,12.3c-0.3-0.3-0.8-0.4-1.2-0.2L23,15.9V13c0-0.6-0.4-1-1-1s-1,0.4-1,1v4.5c0,0.3,0.2,0.7,0.5,0.9s0.7,0.2,1,0
		l6.3-3.2l-4,8.1l-0.8-0.8c0-0.2,0.1-0.3,0.1-0.5c0-1.1-0.9-2-2-2c-0.2,0-0.3,0-0.5,0.1l-1.8-1.8c-0.2-0.2-0.5-0.3-0.9-0.3
		c-0.3,0.1-0.6,0.3-0.7,0.5L16.9,21H13c-0.6,0-1,0.4-1,1s0.4,1,1,1h2.9l-3.8,7.6c-0.2,0.4-0.1,0.8,0.2,1.2c0.2,0.2,0.4,0.3,0.7,0.3
		c0.2,0,0.3,0,0.4-0.1l7.6-3.8V31c0,0.6,0.4,1,1,1s1-0.4,1-1v-4.5c0-0.3-0.2-0.7-0.5-0.9c-0.3-0.2-0.7-0.2-1,0l-6.3,3.2l4-8.1
		l0.8,0.8c0,0.2-0.1,0.3-0.1,0.5c0,1.1,0.9,2,2,2c0.2,0,0.3,0,0.5-0.1l1.8,1.8c0.2,0.2,0.4,0.3,0.7,0.3c0.1,0,0.1,0,0.2,0
		c0.3-0.1,0.6-0.3,0.7-0.5l1.2-2.4H31c0.6,0,1-0.4,1-1s-0.4-1-1-1h-2.9l3.8-7.6C32.1,13.1,32,12.6,31.7,12.3z"/>
</g>
</svg>
