<?xml version="1.0" encoding="iso-8859-1"?>
<!-- Generator: Adobe Illustrator 20.0.0, SVG Export Plug-In . SVG Version: 6.00 Build 0)  -->
<svg version="1.1" id="Layer_1" xmlns="http://www.w3.org/2000/svg" xmlns:xlink="http://www.w3.org/1999/xlink" x="0px" y="0px"
	 viewBox="0 0 44 44" style="enable-background:new 0 0 44 44;" xml:space="preserve">
<g>
	<path d="M16,7V5c0-0.552-0.447-1-1-1s-1,0.448-1,1v2c0,0.552,0.447,1,1,1S16,7.552,16,7z"/>
	<path d="M20,7V5c0-0.552-0.447-1-1-1s-1,0.448-1,1v2c0,0.552,0.447,1,1,1S20,7.552,20,7z"/>
	<path d="M35,26c-3.859,0-7,3.14-7,7v4c0,2.757-2.243,5-5,5s-5-2.243-5-5v-1h1c0.553,0,1-0.448,1-1s-0.447-1-1-1h-3v-2h5
		c1.654,0,3-1.346,3-3v-2.764l1.895-3.789C25.964,22.308,26,22.155,26,22v-8c0-0.552-0.447-1-1-1s-1,0.448-1,1v7.764l-1.895,3.789
		C22.036,25.692,22,25.845,22,26v3c0,0.551-0.448,1-1,1h-8c-0.552,0-1-0.449-1-1v-3c0-0.155-0.036-0.308-0.105-0.447L10,21.764V13
		c0-0.551,0.448-1,1-1h12c0.553,0,1-0.448,1-1V1c0-0.552-0.447-1-1-1H11c-0.553,0-1,0.448-1,1v6c0,0.552,0.447,1,1,1s1-0.448,1-1V2
		h10v8H11c-1.654,0-3,1.346-3,3v9c0,0.155,0.036,0.308,0.105,0.447L10,26.236V29c0,1.654,1.346,3,3,3h1v3c0,0.552,0.447,1,1,1h1v1
		c0,3.86,3.141,7,7,7s7-3.14,7-7v-4c0-2.757,2.243-5,5-5c0.553,0,1-0.448,1-1S35.553,26,35,26z"/>
	<path d="M21,15h-8c-0.553,0-1,0.448-1,1s0.447,1,1,1h8c0.553,0,1-0.448,1-1S21.553,15,21,15z"/>
	<path d="M21,19h-8c-0.553,0-1,0.448-1,1s0.447,1,1,1h8c0.553,0,1-0.448,1-1S21.553,19,21,19z"/>
</g>
</svg>
