<?xml version="1.0" encoding="iso-8859-1"?>
<!-- Generator: Adobe Illustrator 21.0.0, SVG Export Plug-In . SVG Version: 6.00 Build 0)  -->
<svg version="1.1" id="Layer_1" xmlns="http://www.w3.org/2000/svg" xmlns:xlink="http://www.w3.org/1999/xlink" x="0px" y="0px"
	 viewBox="0 0 44 44" style="enable-background:new 0 0 44 44;" xml:space="preserve">
<g>
	<path d="M38,11h-7c-0.551,0-1-0.448-1-1V5c0-0.553-0.448-1-1-1s-1,0.447-1,1v5c0,1.654,1.346,3,3,3h6v18v10c0,0.552-0.449,1-1,1H8
		c-0.551,0-1-0.448-1-1V3c0-0.552,0.449-1,1-1h21.624l7.718,6.753c0.414,0.362,1.045,0.322,1.411-0.095
		c0.363-0.415,0.321-1.047-0.095-1.411l-8-7C30.476,0.088,30.242,0,30,0H8C6.346,0,5,1.346,5,3v38c0,1.654,1.346,3,3,3h28
		c1.654,0,3-1.346,3-3V31V12C39,11.447,38.553,11,38,11z"/>
	<path d="M23.293,30.707l4.586,4.587C28.329,35.742,28.951,36,29.586,36C30.917,36,32,34.917,32,33.586
		c0-0.637-0.258-1.259-0.707-1.707l-4.586-4.586c-0.391-0.391-1.023-0.391-1.414,0L25,27.586l-2.115-2.115
		C23.584,24.49,24,23.294,24,22c0-3.309-2.691-6-6-6s-6,2.691-6,6s2.691,6,6,6c1.294,0,2.49-0.416,3.471-1.115L23.586,29
		l-0.293,0.293C22.902,29.684,22.902,30.316,23.293,30.707z M18,26c-2.206,0-4-1.794-4-4s1.794-4,4-4s4,1.794,4,4S20.206,26,18,26z
		 M29.879,33.294C29.956,33.37,30,33.477,30,33.586c0,0.337-0.468,0.531-0.707,0.293L25.414,30L26,29.414L29.879,33.294z"/>
</g>
</svg>
