<?xml version="1.0" encoding="iso-8859-1"?>
<!-- Generator: Adobe Illustrator 21.0.0, SVG Export Plug-In . SVG Version: 6.00 Build 0)  -->
<svg version="1.1" id="Layer_1" xmlns="http://www.w3.org/2000/svg" xmlns:xlink="http://www.w3.org/1999/xlink" x="0px" y="0px"
	 viewBox="0 0 44 44" style="enable-background:new 0 0 44 44;" xml:space="preserve">
<g>
	<path d="M38,11h-7c-0.551,0-1-0.449-1-1V5c0-0.552-0.448-1-1-1s-1,0.448-1,1v5c0,1.654,1.346,3,3,3h6v18v10c0,0.551-0.449,1-1,1H8
		c-0.551,0-1-0.449-1-1V3c0-0.551,0.449-1,1-1h21.624l7.717,6.752c0.417,0.365,1.048,0.321,1.411-0.094
		c0.364-0.416,0.322-1.047-0.094-1.411l-8-7C30.476,0.088,30.242,0,30,0H8C6.346,0,5,1.346,5,3v38c0,1.654,1.346,3,3,3h28
		c1.654,0,3-1.346,3-3V31V12C39,11.448,38.552,11,38,11z"/>
	<path d="M30,30c-1.654,0-3,1.346-3,3v2c0,0.551-0.449,1-1,1s-1-0.449-1-1V19c0-1.654-1.346-3-3-3s-3,1.346-3,3v16
		c0,0.551-0.449,1-1,1s-1-0.449-1-1v-6c0-1.654-1.346-3-3-3s-3,1.346-3,3v6c0,0.551-0.449,1-1,1c-0.552,0-1,0.448-1,1s0.448,1,1,1
		c1.654,0,3-1.346,3-3v-6c0-0.551,0.449-1,1-1s1,0.449,1,1v6c0,1.654,1.346,3,3,3s3-1.346,3-3V19c0-0.551,0.449-1,1-1s1,0.449,1,1
		v16c0,1.654,1.346,3,3,3s3-1.346,3-3v-2c0-0.551,0.449-1,1-1s1,0.449,1,1v2c0,1.654,1.346,3,3,3c0.552,0,1-0.448,1-1s-0.448-1-1-1
		c-0.551,0-1-0.449-1-1v-2C33,31.346,31.654,30,30,30z"/>
</g>
</svg>
