<?xml version="1.0" encoding="iso-8859-1"?>
<!-- Generator: Adobe Illustrator 21.0.0, SVG Export Plug-In . SVG Version: 6.00 Build 0)  -->
<svg version="1.1" id="Layer_1" xmlns="http://www.w3.org/2000/svg" xmlns:xlink="http://www.w3.org/1999/xlink" x="0px" y="0px"
	 viewBox="0 0 44 44" style="enable-background:new 0 0 44 44;" xml:space="preserve">
<g>
	<path d="M38,11h-7c-0.551,0-1-0.449-1-1V5c0-0.552-0.448-1-1-1s-1,0.448-1,1v5c0,1.654,1.346,3,3,3h6v18v10c0,0.551-0.449,1-1,1H8
		c-0.551,0-1-0.449-1-1V3c0-0.551,0.449-1,1-1h12v2h2V2h7.624l7.717,6.752c0.417,0.364,1.047,0.321,1.411-0.094
		c0.364-0.416,0.322-1.047-0.094-1.411l-8-7C30.476,0.088,30.242,0,30,0H8C6.346,0,5,1.346,5,3v38c0,1.654,1.346,3,3,3h28
		c1.654,0,3-1.346,3-3V31V12C39,11.448,38.552,11,38,11z"/>
	<rect x="22" y="4" width="2" height="2"/>
	<rect x="20" y="6" width="2" height="2"/>
	<rect x="22" y="8" width="2" height="2"/>
	<rect x="20" y="10" width="2" height="2"/>
	<rect x="22" y="12" width="2" height="2"/>
	<rect x="20" y="14" width="2" height="2"/>
	<rect x="22" y="16" width="2" height="2"/>
	<rect x="20" y="18" width="2" height="2"/>
	<rect x="22" y="20" width="2" height="2"/>
	<path d="M20,28c0,1.105,0.895,2,2,2s2-0.895,2-2v-4h-4V28z"/>
</g>
</svg>
