<?xml version="1.0" encoding="iso-8859-1"?>
<!-- Generator: Adobe Illustrator 21.0.0, SVG Export Plug-In . SVG Version: 6.00 Build 0)  -->
<svg version="1.1" id="Layer_1" xmlns="http://www.w3.org/2000/svg" xmlns:xlink="http://www.w3.org/1999/xlink" x="0px" y="0px"
	 viewBox="0 0 44 44" style="enable-background:new 0 0 44 44;" xml:space="preserve">
<g>
	<path d="M38,11h-7c-0.551,0-1-0.448-1-1V5c0-0.553-0.448-1-1-1s-1,0.447-1,1v5c0,1.654,1.346,3,3,3h6v28c0,0.552-0.449,1-1,1H8
		c-0.551,0-1-0.448-1-1V3c0-0.552,0.449-1,1-1h21.624l7.717,6.753c0.417,0.364,1.048,0.322,1.411-0.095
		c0.364-0.415,0.322-1.047-0.094-1.411l-8-7C30.476,0.088,30.242,0,30,0H8C6.346,0,5,1.346,5,3v38c0,1.654,1.346,3,3,3h28
		c1.654,0,3-1.346,3-3V12C39,11.447,38.552,11,38,11z"/>
	<path d="M25,20c0-1.654-1.346-3-3-3s-3,1.346-3,3s1.346,3,3,3S25,21.654,25,20z M21,20c0-0.552,0.449-1,1-1s1,0.448,1,1
		s-0.449,1-1,1S21,20.552,21,20z"/>
	<path d="M20,28c-0.552,0-1,0.447-1,1v4h-1c-0.552,0-1,0.447-1,1s0.448,1,1,1h8c0.552,0,1-0.447,1-1s-0.448-1-1-1h-1v-6
		c0-1.654-1.346-3-3-3h-4c-0.552,0-1,0.447-1,1s0.448,1,1,1h4c0.551,0,1,0.448,1,1v6h-2v-4C21,28.447,20.552,28,20,28z"/>
</g>
</svg>
