<?xml version="1.0" encoding="iso-8859-1"?>
<!-- Generator: Adobe Illustrator 21.0.0, SVG Export Plug-In . SVG Version: 6.00 Build 0)  -->
<svg version="1.1" id="Layer_1" xmlns="http://www.w3.org/2000/svg" xmlns:xlink="http://www.w3.org/1999/xlink" x="0px" y="0px"
	 viewBox="0 0 44 44" style="enable-background:new 0 0 44 44;" xml:space="preserve">
<g>
	<path d="M38,11h-7c-0.551,0-1-0.449-1-1V5c0-0.552-0.448-1-1-1s-1,0.448-1,1v5c0,1.654,1.346,3,3,3h6v18v10c0,0.551-0.449,1-1,1H8
		c-0.551,0-1-0.449-1-1V3c0-0.551,0.449-1,1-1h21.624l7.717,6.752c0.417,0.364,1.048,0.321,1.411-0.094
		c0.364-0.416,0.322-1.047-0.094-1.411l-8-7C30.476,0.088,30.242,0,30,0H8C6.346,0,5,1.346,5,3v38c0,1.654,1.346,3,3,3h28
		c1.654,0,3-1.346,3-3V31V12C39,11.448,38.552,11,38,11z"/>
	<circle cx="22" cy="25" r="1"/>
	<path d="M27.657,19.343c-0.391-0.391-1.023-0.391-1.414,0c-0.438,0.438-1.098,0.517-1.657,0.249
		c-0.193-0.092-0.392-0.175-0.595-0.247C23.408,19.141,23,18.618,23,18.001V18c0-0.552-0.448-1-1-1s-1,0.448-1,1v0.001
		c0,0.617-0.408,1.14-0.99,1.345c-0.204,0.072-0.402,0.154-0.595,0.247c-0.558,0.268-1.219,0.189-1.657-0.249
		c-0.391-0.391-1.023-0.391-1.414,0c-0.391,0.391-0.391,1.023,0,1.414c0.438,0.438,0.517,1.098,0.249,1.657
		c-0.092,0.193-0.175,0.392-0.247,0.596C16.141,23.592,15.618,24,15.001,24H15c-0.552,0-1,0.448-1,1s0.448,1,1,1h0.001
		c0.617,0,1.14,0.408,1.345,0.99c0.072,0.204,0.154,0.402,0.247,0.595c0.268,0.558,0.189,1.219-0.249,1.657
		c-0.391,0.391-0.391,1.023,0,1.414c0.195,0.195,0.451,0.293,0.707,0.293s0.512-0.098,0.707-0.293
		c0.438-0.438,1.098-0.517,1.657-0.249c0.193,0.092,0.392,0.175,0.595,0.247c0.582,0.205,0.99,0.728,0.99,1.345V32
		c0,0.552,0.448,1,1,1s1-0.448,1-1v-0.001c0-0.617,0.408-1.14,0.99-1.345c0.204-0.072,0.402-0.154,0.595-0.247
		c0.558-0.268,1.219-0.189,1.657,0.249c0.195,0.195,0.451,0.293,0.707,0.293s0.512-0.098,0.707-0.293
		c0.391-0.391,0.391-1.023,0-1.414c-0.438-0.438-0.517-1.098-0.249-1.657c0.092-0.193,0.175-0.392,0.247-0.595
		c0.205-0.582,0.728-0.99,1.345-0.99H29c0.552,0,1-0.448,1-1s-0.448-1-1-1h-0.001c-0.617,0-1.14-0.408-1.345-0.99
		c-0.072-0.204-0.154-0.402-0.247-0.596c-0.268-0.558-0.189-1.219,0.249-1.657C28.047,20.367,28.047,19.734,27.657,19.343z M22,29
		c-2.206,0-4-1.794-4-4s1.794-4,4-4s4,1.794,4,4S24.206,29,22,29z"/>
</g>
</svg>
