<?xml version="1.0" encoding="iso-8859-1"?>
<!-- Generator: Adobe Illustrator 21.0.0, SVG Export Plug-In . SVG Version: 6.00 Build 0)  -->
<svg version="1.1" id="Layer_1" xmlns="http://www.w3.org/2000/svg" xmlns:xlink="http://www.w3.org/1999/xlink" x="0px" y="0px"
	 viewBox="0 0 44 44" style="enable-background:new 0 0 44 44;" xml:space="preserve">
<g>
	<path d="M38,11h-7c-0.551,0-1-0.449-1-1V5c0-0.552-0.448-1-1-1s-1,0.448-1,1v5c0,1.654,1.346,3,3,3h6v18v10c0,0.551-0.449,1-1,1H8
		c-0.551,0-1-0.449-1-1V3c0-0.551,0.449-1,1-1h21.624l7.718,6.752c0.414,0.363,1.045,0.321,1.411-0.094
		c0.363-0.416,0.321-1.047-0.095-1.411l-8-7C30.476,0.088,30.242,0,30,0H8C6.346,0,5,1.346,5,3v38c0,1.654,1.346,3,3,3h28
		c1.654,0,3-1.346,3-3V31V12C39,11.448,38.553,11,38,11z"/>
	<path d="M29,36c-0.552,0-1,0.448-1,1s0.448,1,1,1h4c0.552,0,1-0.448,1-1V19c0-0.552-0.448-1-1-1H11c-0.552,0-1,0.448-1,1v18
		c0,0.552,0.448,1,1,1h14c0.552,0,1-0.448,1-1V25h6v11H29z M24,20v3h-7v-3H24z M15,20v3h-3v-3H15z M12,25h3v11h-3V25z M24,36h-7V25
		h7V36z M26,23v-3h6v3H26z"/>
</g>
</svg>
