<?xml version="1.0" encoding="iso-8859-1"?>
<!-- Generator: Adobe Illustrator 21.0.0, SVG Export Plug-In . SVG Version: 6.00 Build 0)  -->
<svg version="1.1" id="Layer_1" xmlns="http://www.w3.org/2000/svg" xmlns:xlink="http://www.w3.org/1999/xlink" x="0px" y="0px"
	 viewBox="0 0 44 44" style="enable-background:new 0 0 44 44;" xml:space="preserve">
<g>
	<path d="M38,11h-7c-0.551,0-1-0.449-1-1V5c0-0.552-0.448-1-1-1s-1,0.448-1,1v5c0,1.654,1.346,3,3,3h6v18v10c0,0.551-0.449,1-1,1H8
		c-0.551,0-1-0.449-1-1V3c0-0.551,0.449-1,1-1h21.624l7.717,6.752c0.417,0.365,1.048,0.321,1.411-0.094
		c0.364-0.416,0.322-1.047-0.094-1.411l-8-7C30.476,0.088,30.242,0,30,0H8C6.346,0,5,1.346,5,3v38c0,1.654,1.346,3,3,3h28
		c1.654,0,3-1.346,3-3V31V12C39,11.448,38.552,11,38,11z"/>
	<path d="M22,35c4.962,0,9-4.038,9-9s-4.038-9-9-9s-9,4.038-9,9S17.038,35,22,35z M29,26c0,3.86-3.14,7-7,7
		c-1.57,0-3.015-0.526-4.184-1.402l9.783-9.783C28.474,22.985,29,24.43,29,26z M22,19c1.57,0,3.015,0.526,4.184,1.402l-9.783,9.783
		C15.526,29.015,15,27.57,15,26C15,22.14,18.14,19,22,19z"/>
</g>
</svg>
