<?xml version="1.0" encoding="iso-8859-1"?>
<!-- Generator: Adobe Illustrator 21.0.0, SVG Export Plug-In . SVG Version: 6.00 Build 0)  -->
<svg version="1.1" id="Layer_1" xmlns="http://www.w3.org/2000/svg" xmlns:xlink="http://www.w3.org/1999/xlink" x="0px" y="0px"
	 viewBox="0 0 44 44" style="enable-background:new 0 0 44 44;" xml:space="preserve">
<g>
	<path d="M12,35h19c0.552,0,1-0.447,1-1s-0.448-1-1-1H12c-0.552,0-1,0.447-1,1S11.448,35,12,35z"/>
	<path d="M23,16c0-0.553-0.448-1-1-1H12c-0.552,0-1,0.447-1,1s0.448,1,1,1h10C22.552,17,23,16.553,23,16z"/>
	<path d="M20,21h12c0.552,0,1-0.447,1-1s-0.448-1-1-1H20c-0.552,0-1,0.447-1,1S19.448,21,20,21z"/>
	<path d="M32,15h-6c-0.552,0-1,0.447-1,1s0.448,1,1,1h6c0.552,0,1-0.447,1-1S32.552,15,32,15z"/>
	<path d="M12,19c-0.552,0-1,0.447-1,1s0.448,1,1,1h4c0.552,0,1-0.447,1-1s-0.448-1-1-1H12z"/>
	<path d="M12,39h10c0.552,0,1-0.447,1-1s-0.448-1-1-1H12c-0.552,0-1,0.447-1,1S11.448,39,12,39z"/>
	<path d="M38,11h-7c-0.551,0-1-0.448-1-1V5c0-0.553-0.448-1-1-1s-1,0.447-1,1v5c0,1.654,1.346,3,3,3h6v10.382l-3,1.5l-3.553-1.776
		c-0.281-0.141-0.613-0.141-0.895,0L26,24.882l-3.553-1.776c-0.281-0.141-0.613-0.141-0.895,0L18,24.882l-3.553-1.776
		c-0.281-0.141-0.613-0.141-0.895,0L10,24.882l-3-1.5V3c0-0.552,0.449-1,1-1h21.624l7.717,6.753
		c0.417,0.365,1.048,0.322,1.411-0.095c0.364-0.415,0.322-1.047-0.094-1.411l-8-7C30.476,0.088,30.242,0,30,0H8C6.346,0,5,1.346,5,3
		v21c0,0.379,0.214,0.725,0.553,0.895l4,2c0.281,0.141,0.613,0.141,0.895,0L14,25.118l3.553,1.776c0.281,0.141,0.613,0.141,0.895,0
		L22,25.118l3.553,1.776c0.281,0.141,0.613,0.141,0.895,0L30,25.118l3.553,1.776C33.694,26.965,33.847,27,34,27
		s0.307-0.035,0.447-0.105l4-2C38.786,24.725,39,24.379,39,24V12C39,11.447,38.552,11,38,11z"/>
	<path d="M38.526,27.149c-0.294-0.184-0.663-0.198-0.973-0.044L34,28.882l-3.553-1.776c-0.281-0.141-0.613-0.141-0.895,0L26,28.882
		l-3.553-1.776c-0.281-0.141-0.613-0.141-0.895,0L18,28.882l-3.553-1.776c-0.281-0.141-0.613-0.141-0.895,0L10,28.882l-3.553-1.776
		c-0.495-0.245-1.095-0.046-1.342,0.447c-0.247,0.494-0.047,1.095,0.447,1.342l4,2c0.281,0.141,0.613,0.141,0.895,0L14,29.118
		l3.553,1.776c0.281,0.141,0.613,0.141,0.895,0L22,29.118l3.553,1.776c0.281,0.141,0.613,0.141,0.895,0L30,29.118l3.553,1.776
		c0.281,0.141,0.613,0.141,0.895,0L37,29.618V41c0,0.552-0.449,1-1,1H8c-0.551,0-1-0.448-1-1v-9c0-0.553-0.448-1-1-1s-1,0.447-1,1v9
		c0,1.654,1.346,3,3,3h28c1.654,0,3-1.346,3-3V28C39,27.653,38.82,27.332,38.526,27.149z"/>
</g>
</svg>
