<?xml version="1.0" encoding="iso-8859-1"?>
<!-- Generator: Adobe Illustrator 21.0.0, SVG Export Plug-In . SVG Version: 6.00 Build 0)  -->
<svg version="1.1" id="Layer_1" xmlns="http://www.w3.org/2000/svg" xmlns:xlink="http://www.w3.org/1999/xlink" x="0px" y="0px"
	 viewBox="0 0 44 44" style="enable-background:new 0 0 44 44;" xml:space="preserve">
<g>
	<path d="M38,11h-7c-0.551,0-1-0.448-1-1V5c0-0.553-0.448-1-1-1s-1,0.447-1,1v5c0,1.654,1.346,3,3,3h6v28c0,0.552-0.449,1-1,1H8
		c-0.551,0-1-0.448-1-1V3c0-0.552,0.449-1,1-1h21.624l7.717,6.753c0.417,0.364,1.048,0.322,1.412-0.095
		c0.363-0.415,0.321-1.047-0.095-1.411l-8-7C30.476,0.088,30.242,0,30,0H8C6.346,0,5,1.346,5,3v38c0,1.654,1.346,3,3,3h28
		c1.654,0,3-1.346,3-3V12C39,11.447,38.553,11,38,11z"/>
	<path d="M32,26c1.103,0,2-0.897,2-2s-0.897-2-2-2c-0.737,0-1.375,0.405-1.722,1h-4.864l-2.707-2.707
		c-0.391-0.391-1.023-0.391-1.414,0L18.586,23h-4.864c-0.347-0.595-0.985-1-1.722-1c-1.103,0-2,0.897-2,2s0.897,2,2,2
		c0.737,0,1.375-0.405,1.722-1h2.304c-2.186,1.637-3.689,4.139-3.975,7H12c-0.552,0-1,0.447-1,1v2c0,0.553,0.448,1,1,1h2
		c0.552,0,1-0.447,1-1v-2c0-0.529-0.414-0.95-0.933-0.986c0.367-2.967,2.367-5.424,5.067-6.466l2.159,2.159
		C21.488,27.902,21.744,28,22,28s0.512-0.098,0.707-0.293l2.159-2.159c2.7,1.042,4.699,3.499,5.067,6.466
		C29.414,32.05,29,32.471,29,33v2c0,0.553,0.448,1,1,1h2c0.552,0,1-0.447,1-1v-2c0-0.553-0.448-1-1-1h-0.051
		c-0.285-2.861-1.788-5.363-3.975-7h2.304C30.625,25.595,31.263,26,32,26z M22,25.586L20.414,24L22,22.414L23.586,24L22,25.586z"/>
</g>
</svg>
