<?xml version="1.0" encoding="iso-8859-1"?>
<!-- Generator: Adobe Illustrator 21.0.0, SVG Export Plug-In . SVG Version: 6.00 Build 0)  -->
<svg version="1.1" id="Layer_1" xmlns="http://www.w3.org/2000/svg" xmlns:xlink="http://www.w3.org/1999/xlink" x="0px" y="0px"
	 viewBox="0 0 44 44" style="enable-background:new 0 0 44 44;" xml:space="preserve">
<g>
	<path d="M38,11h-7c-0.551,0-1-0.448-1-1V5c0-0.553-0.448-1-1-1s-1,0.447-1,1v5c0,1.654,1.346,3,3,3h6v18v10c0,0.552-0.449,1-1,1H8
		c-0.551,0-1-0.448-1-1V3c0-0.552,0.449-1,1-1h21.624l7.717,6.753c0.417,0.364,1.048,0.322,1.411-0.095
		c0.364-0.415,0.322-1.047-0.094-1.411l-8-7C30.476,0.088,30.242,0,30,0H8C6.346,0,5,1.346,5,3v38c0,1.654,1.346,3,3,3h28
		c1.654,0,3-1.346,3-3V31V12C39,11.447,38.552,11,38,11z"/>
	<path d="M30,29v-8c0.552,0,1-0.447,1-1s-0.448-1-1-1h-1h-6c0-0.553-0.448-1-1-1s-1,0.447-1,1h-6h-1c-0.552,0-1,0.447-1,1
		s0.448,1,1,1v8c0,0.553,0.448,1,1,1h3.523l-1.452,3.629c-0.205,0.513,0.044,1.095,0.557,1.3C17.75,34.978,17.876,35,18,35
		c0.397,0,0.772-0.237,0.929-0.629L20.677,30h2.646l1.748,4.371C25.228,34.763,25.604,35,26,35c0.124,0,0.249-0.022,0.371-0.071
		c0.513-0.205,0.762-0.787,0.557-1.3L25.477,30H29C29.552,30,30,29.553,30,29z M28,28h-8.016c-0.003,0-0.005,0-0.007,0H16v-7h12V28z
		"/>
</g>
</svg>
