<?xml version="1.0" encoding="iso-8859-1"?>
<!-- Generator: Adobe Illustrator 21.0.0, SVG Export Plug-In . SVG Version: 6.00 Build 0)  -->
<svg version="1.1" id="Layer_1" xmlns="http://www.w3.org/2000/svg" xmlns:xlink="http://www.w3.org/1999/xlink" x="0px" y="0px"
	 viewBox="0 0 44 44" style="enable-background:new 0 0 44 44;" xml:space="preserve">
<g>
	<path d="M38,11h-7c-0.551,0-1-0.449-1-1V5c0-0.552-0.448-1-1-1s-1,0.448-1,1v5c0,1.654,1.346,3,3,3h6v18v10c0,0.551-0.449,1-1,1H8
		c-0.551,0-1-0.449-1-1V3c0-0.551,0.449-1,1-1h21.624l7.717,6.752c0.417,0.364,1.048,0.321,1.411-0.094
		c0.364-0.416,0.322-1.047-0.094-1.411l-8-7C30.476,0.088,30.242,0,30,0H8C6.346,0,5,1.346,5,3v38c0,1.654,1.346,3,3,3h28
		c1.654,0,3-1.346,3-3V31V12C39,11.448,38.552,11,38,11z"/>
	<path d="M32,32c0-0.552-0.448-1-1-1H12c-0.552,0-1,0.448-1,1s0.448,1,1,1h19C31.552,33,32,32.552,32,32z"/>
	<path d="M12,17h10c0.552,0,1-0.448,1-1s-0.448-1-1-1H12c-0.552,0-1,0.448-1,1S11.448,17,12,17z"/>
	<path d="M32,19H20c-0.552,0-1,0.448-1,1s0.448,1,1,1h12c0.552,0,1-0.448,1-1S32.552,19,32,19z"/>
	<path d="M32,15h-6c-0.552,0-1,0.448-1,1s0.448,1,1,1h6c0.552,0,1-0.448,1-1S32.552,15,32,15z"/>
	<path d="M12,25h9c0.552,0,1-0.448,1-1s-0.448-1-1-1h-9c-0.552,0-1,0.448-1,1S11.448,25,12,25z"/>
	<path d="M12,29h4c0.552,0,1-0.448,1-1s-0.448-1-1-1h-4c-0.552,0-1,0.448-1,1S11.448,29,12,29z"/>
	<path d="M12,21h4c0.552,0,1-0.448,1-1s-0.448-1-1-1h-4c-0.552,0-1,0.448-1,1S11.448,21,12,21z"/>
	<path d="M33,24c0-0.552-0.448-1-1-1h-7c-0.552,0-1,0.448-1,1s0.448,1,1,1h7C32.552,25,33,24.552,33,24z"/>
	<path d="M19,28c0,0.552,0.448,1,1,1h8c0.552,0,1-0.448,1-1s-0.448-1-1-1h-8C19.448,27,19,27.448,19,28z"/>
	<path d="M12,35c-0.552,0-1,0.448-1,1s0.448,1,1,1h10c0.552,0,1-0.448,1-1s-0.448-1-1-1H12z"/>
</g>
</svg>
