<?xml version="1.0" encoding="iso-8859-1"?>
<!-- Generator: Adobe Illustrator 21.0.0, SVG Export Plug-In . SVG Version: 6.00 Build 0)  -->
<svg version="1.1" id="Layer_1" xmlns="http://www.w3.org/2000/svg" xmlns:xlink="http://www.w3.org/1999/xlink" x="0px" y="0px"
	 viewBox="0 0 44 44" style="enable-background:new 0 0 44 44;" xml:space="preserve">
<g>
	<path d="M38,11h-7c-0.551,0-1-0.448-1-1V5c0-0.553-0.448-1-1-1s-1,0.447-1,1v5c0,1.654,1.346,3,3,3h6v18v10c0,0.552-0.449,1-1,1H8
		c-0.551,0-1-0.448-1-1V3c0-0.552,0.449-1,1-1h21.624l7.717,6.753c0.417,0.365,1.048,0.322,1.411-0.095
		c0.364-0.415,0.322-1.047-0.094-1.411l-8-7C30.476,0.088,30.242,0,30,0H8C6.346,0,5,1.346,5,3v38c0,1.654,1.346,3,3,3h28
		c1.654,0,3-1.346,3-3V31V12C39,11.447,38.552,11,38,11z"/>
	<path d="M22,30c0.552,0,1-0.447,1-1v-2c0-0.553-0.448-1-1-1s-1,0.447-1,1v2C21,29.553,21.448,30,22,30z"/>
	<path d="M22,14c-3.309,0-6,2.691-6,6v2h-1c-0.552,0-1,0.447-1,1v8c0,1.654,1.346,3,3,3h10c1.654,0,3-1.346,3-3v-8
		c0-0.553-0.448-1-1-1h-1v-2C28,16.691,25.309,14,22,14z M18,20c0-2.206,1.794-4,4-4s4,1.794,4,4v2h-8V20z M28,31
		c0,0.552-0.449,1-1,1H17c-0.551,0-1-0.448-1-1v-7h12V31z"/>
</g>
</svg>
