<?xml version="1.0" encoding="utf-8"?>
<!-- Generator: Adobe Illustrator 19.2.1, SVG Export Plug-In . SVG Version: 6.00 Build 0)  -->
<svg version="1.1" id="Layer_1" xmlns="http://www.w3.org/2000/svg" xmlns:xlink="http://www.w3.org/1999/xlink" x="0px" y="0px"
	 viewBox="0 0 44 44" style="enable-background:new 0 0 44 44;" xml:space="preserve">
<style type="text/css">
	.st0{fill:#231F20;}
</style>
<g>
	<path d="M41,7H3c-1.7,0-3,1.3-3,3v24c0,1.7,1.3,3,3,3h38c1.7,0,3-1.3,3-3V10C44,8.3,42.7,7,41,7z M42,34c0,0.6-0.4,1-1,1H3
		c-0.6,0-1-0.4-1-1V10c0-0.6,0.4-1,1-1h38c0.6,0,1,0.4,1,1V34z"/>
	<path d="M11.2,22.4l-7,9c-0.3,0.4-0.3,1.1,0.2,1.4C4.6,32.9,4.8,33,5,33c0.3,0,0.6-0.1,0.8-0.4l7-9c0.3-0.4,0.3-1.1-0.2-1.4
		C12.2,21.9,11.5,22,11.2,22.4z"/>
	<path d="M32.8,22.4c-0.3-0.4-1-0.5-1.4-0.2c-0.4,0.3-0.5,1-0.2,1.4l7,9c0.2,0.3,0.5,0.4,0.8,0.4c0.2,0,0.4-0.1,0.6-0.2
		c0.4-0.3,0.5-1,0.2-1.4L32.8,22.4z"/>
	<path d="M38.4,11.2L23.9,23.1c-1.1,0.9-2.7,0.9-3.8,0L5.6,11.2c-0.4-0.4-1.1-0.3-1.4,0.1s-0.3,1.1,0.1,1.4l14.5,11.9
		c0.9,0.8,2,1.1,3.2,1.1s2.3-0.4,3.2-1.1l14.5-11.9c0.4-0.4,0.5-1,0.1-1.4C39.4,10.9,38.8,10.9,38.4,11.2z"/>
</g>
</svg>
