<?xml version="1.0" encoding="utf-8"?>
<!-- Generator: Adobe Illustrator 19.2.1, SVG Export Plug-In . SVG Version: 6.00 Build 0)  -->
<svg version="1.1" id="Layer_1" xmlns="http://www.w3.org/2000/svg" xmlns:xlink="http://www.w3.org/1999/xlink" x="0px" y="0px"
	 viewBox="0 0 44 44" style="enable-background:new 0 0 44 44;" xml:space="preserve">
<g>
	<path d="M11,22c6.1,0,11-4.9,11-11S17.1,0,11,0S0,4.9,0,11S4.9,22,11,22z M11,2c5,0,9,4,9,9s-4,9-9,9s-9-4-9-9S6,2,11,2z"/>
	<path d="M10,12h2c0.6,0,1,0.4,1,1s-0.4,1-1,1H9c-0.6,0-1,0.4-1,1s0.4,1,1,1h1v1c0,0.6,0.4,1,1,1c0.6,0,1-0.4,1-1v-1
		c1.7,0,3-1.3,3-3s-1.3-3-3-3h-2c-0.6,0-1-0.4-1-1s0.4-1,1-1h3c0.6,0,1-0.4,1-1s-0.4-1-1-1h-1V5c0-0.6-0.4-1-1-1c-0.6,0-1,0.4-1,1v1
		C8.3,6,7,7.3,7,9S8.3,12,10,12z"/>
	<path d="M33,22c-6.1,0-11,4.9-11,11s4.9,11,11,11s11-4.9,11-11S39.1,22,33,22z M33,42c-5,0-9-4-9-9s4-9,9-9s9,4,9,9S38,42,33,42z"
		/>
	<path d="M35.7,30.3c0.4,0.4,1,0.4,1.4,0s0.4-1,0-1.4c-1.1-1.1-2.6-1.7-4.1-1.7s-3,0.6-4.1,1.7c-0.6,0.6-1.1,1.4-1.3,2.1H27
		c-0.3,0-0.5,0.2-0.5,0.5S26.7,32,27,32h0.2c-0.1,0.7-0.1,1.3,0,2H27c-0.3,0-0.5,0.2-0.5,0.5S26.7,35,27,35h0.4
		c0.3,0.8,0.7,1.5,1.3,2.1c1.1,1.1,2.6,1.7,4.1,1.7s3-0.6,4.1-1.7c0.4-0.4,0.4-1,0-1.4s-1-0.4-1.4,0c-1.5,1.5-3.9,1.5-5.4,0
		c-0.2-0.2-0.4-0.5-0.6-0.7H32c0.3,0,0.5-0.2,0.5-0.5S32.3,34,32,34h-2.8c-0.2-0.7-0.2-1.3,0-2H33c0.3,0,0.5-0.2,0.5-0.5
		S33.3,31,33,31h-3.4c0.2-0.3,0.3-0.5,0.6-0.7C31.7,28.8,34.1,28.8,35.7,30.3z"/>
	<path d="M44.6,16.2c-0.4-0.3-1.1-0.2-1.4,0.2l-1.4,1.9C40.5,9.1,32.5,2,23,2c-0.6,0-1,0.4-1,1s0.4,1,1,1c9.4,0,17,7.6,17,17
		c0,0.4,0.3,0.8,0.7,0.9c0.1,0,0.2,0.1,0.3,0.1c0.3,0,0.6-0.1,0.8-0.4l3-4C45.1,17.2,45,16.5,44.6,16.2z"/>
	<path d="M21,40c-9.4,0-17-7.6-17-17c0-0.4-0.3-0.8-0.7-0.9c-0.4-0.1-0.9,0-1.1,0.3l-3,4c-0.3,0.4-0.2,1.1,0.2,1.4
		c0.4,0.3,1.1,0.2,1.4-0.2l1.4-1.9C3.5,34.9,11.5,42,21,42c0.6,0,1-0.4,1-1S21.6,40,21,40z"/>
</g>
</svg>
