<?xml version="1.0" encoding="utf-8"?>
<!-- Generator: Adobe Illustrator 21.1.0, SVG Export Plug-In . SVG Version: 6.00 Build 0)  -->
<svg version="1.1" id="Layer_1" xmlns="http://www.w3.org/2000/svg" xmlns:xlink="http://www.w3.org/1999/xlink" x="0px" y="0px"
	 viewBox="0 0 44 44" style="enable-background:new 0 0 44 44;" xml:space="preserve">
<g>
	<path d="M41,14h-2v-3c0-0.6-0.4-1-1-1H6c-0.6,0-1,0.4-1,1v4c0,0.6,0.4,1,1,1h32h3c0.6,0,1,0.4,1,1v22c0,0.6-0.4,1-1,1H3
		c-0.6,0-1-0.4-1-1V17c0-0.6,0.4-1,1-1c0.6,0,1-0.4,1-1s-0.4-1-1-1V5c0-0.6,0.4-1,1-1h9.6c0.7,0,1.3,0.2,1.9,0.7l2.8,2.2
		c0.9,0.7,2,1.1,3.1,1.1H40c0.6,0,1,0.4,1,1v2c0,0.6,0.4,1,1,1s1-0.4,1-1V9c0-1.7-1.3-3-3-3H21.4c-0.7,0-1.3-0.2-1.9-0.7l-2.8-2.2
		c-0.9-0.7-2-1.1-3.1-1.1H4C2.3,2,1,3.3,1,5v9.8c-0.6,0.5-1,1.3-1,2.2v22c0,1.7,1.3,3,3,3h38c1.7,0,3-1.3,3-3V17
		C44,15.3,42.7,14,41,14z M7,14v-2h30v2H7z"/>
	<path d="M29,25c0-0.6-0.4-1-1-1H16c-0.6,0-1,0.4-1,1s0.4,1,1,1h12C28.6,26,29,25.6,29,25z"/>
	<path d="M18,28c-0.6,0-1,0.4-1,1s0.4,1,1,1h8c0.6,0,1-0.4,1-1s-0.4-1-1-1H18z"/>
</g>
</svg>
