<?xml version="1.0" encoding="utf-8"?>
<!-- Generator: Adobe Illustrator 19.2.1, SVG Export Plug-In . SVG Version: 6.00 Build 0)  -->
<svg version="1.1" id="Layer_1" xmlns="http://www.w3.org/2000/svg" xmlns:xlink="http://www.w3.org/1999/xlink" x="0px" y="0px"
	 viewBox="0 0 44 44" style="enable-background:new 0 0 44 44;" xml:space="preserve">
<g>
	<path d="M34.4,4l2.3-2.3c0.4-0.4,0.4-1,0-1.4s-1-0.4-1.4,0l-3,3C32.1,3.5,32,3.7,32,4c0,0.3,0.1,0.5,0.3,0.7
		c2.9,2.8,4.6,6.6,4.7,10.7c0.1,4.4-1.6,8.7-4.7,11.9c-2,2.1-4.6,3.6-7.5,4.3c-0.5,0.1-0.9,0.7-0.7,1.2c0.1,0.5,0.5,0.8,1,0.8
		c0.1,0,0.2,0,0.2,0c3.3-0.8,6.2-2.4,8.5-4.9c3.5-3.7,5.4-8.4,5.2-13.4C38.9,11,37.3,7.1,34.4,4z"/>
	<path d="M21,32c-4.3,0-8.3-1.7-11.3-4.8c-0.4-0.4-1-0.4-1.4,0l-3,3c-0.4,0.4-0.4,1,0,1.4s1,0.4,1.4,0L9,29.4
		c3.1,2.7,6.9,4.4,11,4.6v5c0,1.7-1.3,3-3,3h-2c-0.6,0-1,0.4-1,1s0.4,1,1,1h2c2.8,0,5-2.2,5-5v-6C22,32.5,21.6,32.1,21,32z"/>
	<path d="M16.7,29.3l0.7,0.2l0.4-0.6c0.1-0.1,2.5-3.2,1.9-6c-0.2-1.2-1-2.2-2.2-2.9L17.3,20c-0.6-0.3-1.3-0.8-1.9-1.1
		c0.7,0,1.7,0.2,2.4,0.2c3.1,0.4,5.1,0.5,6-0.4c1.3-1.4-1.6-5.5-2.9-7.3c-0.4-0.5-1.3-1.7-8-0.4c-0.5,0.1-0.9,0.6-0.8,1.2
		c0.1,0.5,0.6,0.9,1.2,0.8c3.7-0.7,5.7-0.6,6-0.4c0.9,1.3,2.4,3.7,2.8,4.8c-0.9,0.1-2.9-0.1-4-0.3c-2.3-0.3-3.6-0.4-4.4,0
		c-0.8,0.4-0.9,1-0.9,1.3c0,1.2,1.3,2,3.6,3.3l0.2,0.1c0.7,0.4,1.1,0.9,1.2,1.5c0.3,1.2-0.5,2.8-1.1,3.8C12,25.4,9,21,9,16
		C9,9.4,14.4,4,21,4c2.3,0,4.5,0.7,6.5,1.9c0.5,0.3,1.1,0.2,1.4-0.3s0.2-1.1-0.3-1.4C26.3,2.8,23.7,2,21,2C13.3,2,7,8.3,7,16
		C7,22.1,10.9,27.5,16.7,29.3z"/>
	<path d="M27,10c-0.2,0.5-0.1,1,0.1,1.5c0.5,0.8,1.4,2.4,1,3c-0.4,0.6-1.6,3.2-0.8,4.6c0.3,0.6,0.9,0.9,1.7,0.9c0.3,0,0.7,0,1.1-0.1
		c0.5-0.1,0.9-0.6,0.8-1.1c-0.1-0.5-0.6-0.9-1.1-0.8c-0.3,0-0.5,0.1-0.8,0.1c0-0.5,0.3-1.7,0.8-2.5c1-1.6-0.1-3.5-0.9-5
		c0.2-0.3,1-0.9,2-1.4c1.4,2,2.1,4.4,2.1,6.8c0,6.6-5.4,12-12,12c-0.6,0-1,0.4-1,1s0.4,1,1,1c7.7,0,14-6.3,14-14c0-3.2-1-6.1-3-8.6
		C31.8,7.1,31.6,7,31.2,7L31,7c-0.1,0-0.3,0-0.4,0.1C29.9,7.4,27.5,8.5,27,10z"/>
	<g>
		<path d="M27,44h-2c-0.4,0-0.8-0.1-1.2-0.2c0,0,0,0-0.1,0l0,0c-0.4-0.1-0.7-0.5-0.7-0.9c0-0.6,0.6-1.1,1.3-1l0,0
			C24.5,42,24.7,42,25,42h2c0.6,0,1,0.4,1,1S27.6,44,27,44z"/>
	</g>
</g>
</svg>
