<?xml version="1.0" encoding="utf-8"?>
<!-- Generator: Adobe Illustrator 19.2.1, SVG Export Plug-In . SVG Version: 6.00 Build 0)  -->
<svg version="1.1" id="Layer_1" xmlns="http://www.w3.org/2000/svg" xmlns:xlink="http://www.w3.org/1999/xlink" x="0px" y="0px"
	 viewBox="0 0 44 44" style="enable-background:new 0 0 44 44;" xml:space="preserve">
<g>
	<path d="M43,38H1c-0.6,0-1,0.4-1,1s0.4,1,1,1h42c0.6,0,1-0.4,1-1S43.6,38,43,38z"/>
	<path d="M1,36h1c1.7,0,3-1.3,3-3V23c0-0.6,0.4-1,1-1h2c0.6,0,1,0.4,1,1v10c0,1.7,1.3,3,3,3s3-1.3,3-3V15c0-0.6,0.4-1,1-1h2
		c0.6,0,1,0.4,1,1v18c0,1.7,1.3,3,3,3s3-1.3,3-3V7c0-0.6,0.4-1,1-1h2c0.6,0,1,0.4,1,1v26c0,1.7,1.3,3,3,3s3-1.3,3-3V19
		c0-0.6,0.4-1,1-1h2c0.6,0,1,0.4,1,1v14c0,1.7,1.3,3,3,3h1c0.6,0,1-0.4,1-1s-0.4-1-1-1h-1c-0.6,0-1-0.4-1-1V19c0-1.7-1.3-3-3-3h-2
		c-1.7,0-3,1.3-3,3v14c0,0.6-0.4,1-1,1s-1-0.4-1-1V7c0-1.7-1.3-3-3-3h-2c-1.7,0-3,1.3-3,3v26c0,0.6-0.4,1-1,1s-1-0.4-1-1V15
		c0-1.7-1.3-3-3-3h-2c-1.7,0-3,1.3-3,3v18c0,0.6-0.4,1-1,1s-1-0.4-1-1V23c0-1.7-1.3-3-3-3H6c-1.7,0-3,1.3-3,3v10c0,0.6-0.4,1-1,1H1
		c-0.6,0-1,0.4-1,1S0.4,36,1,36z"/>
</g>
</svg>
