<?xml version="1.0" encoding="utf-8"?>
<!-- Generator: Adobe Illustrator 19.2.1, SVG Export Plug-In . SVG Version: 6.00 Build 0)  -->
<svg version="1.1" id="Layer_1" xmlns="http://www.w3.org/2000/svg" xmlns:xlink="http://www.w3.org/1999/xlink" x="0px" y="0px"
	 viewBox="0 0 44 44" style="enable-background:new 0 0 44 44;" xml:space="preserve">
<g>
	<path d="M35,25c-1.7,0-3,1.3-3,3v3c0,2.2,1.8,4,4,4s4-1.8,4-4v-3c0-1.7-1.3-3-3-3H35z M38,28v3c0,1.1-0.9,2-2,2s-2-0.9-2-2v-3
		c0-0.6,0.4-1,1-1h2C37.6,27,38,27.4,38,28z"/>
	<path d="M22,11c2.2,0,4-1.8,4-4V4c0-1.7-1.3-3-3-3h-2c-1.7,0-3,1.3-3,3v3C18,9.2,19.8,11,22,11z M20,4c0-0.6,0.4-1,1-1h2
		c0.6,0,1,0.4,1,1v3c0,1.1-0.9,2-2,2s-2-0.9-2-2V4z"/>
	<path d="M8,35c2.2,0,4-1.8,4-4v-3c0-1.7-1.3-3-3-3H7c-1.7,0-3,1.3-3,3v3C4,33.2,5.8,35,8,35z M6,28c0-0.6,0.4-1,1-1h2
		c0.6,0,1,0.4,1,1v3c0,1.1-0.9,2-2,2s-2-0.9-2-2V28z"/>
	<path d="M15,19h10c0.6,0,1-0.4,1-1s-0.4-1-1-1h-8.8c0.4-1.2,1.5-2,2.8-2h6c1.7,0,3,1.3,3,3c0,0.6,0.4,1,1,1s1-0.4,1-1
		c0-2.8-2.2-5-5-5h-6c-2.8,0-5,2.2-5,5C14,18.6,14.4,19,15,19z"/>
	<path d="M39,37h-6c-2.8,0-5,2.2-5,5c0,0.6,0.4,1,1,1h10c0.6,0,1-0.4,1-1s-0.4-1-1-1h-8.8c0.4-1.2,1.5-2,2.8-2h6c1.7,0,3,1.3,3,3
		c0,0.6,0.4,1,1,1s1-0.4,1-1C44,39.2,41.8,37,39,37z"/>
	<path d="M11,37H5c-2.8,0-5,2.2-5,5c0,0.6,0.4,1,1,1h10c0.6,0,1-0.4,1-1s-0.4-1-1-1H2.2c0.4-1.2,1.5-2,2.8-2h6c1.7,0,3,1.3,3,3
		c0,0.6,0.4,1,1,1s1-0.4,1-1C16,39.2,13.8,37,11,37z"/>
	<path d="M29.9,33.8c-0.3-0.5-0.9-0.7-1.4-0.4c-3.5,1.8-7.7,2.1-11.4,0.8l2.3-1.3c0.5-0.3,0.7-0.9,0.4-1.4c-0.3-0.5-0.9-0.7-1.4-0.4
		l-4.1,2.2c-0.3,0.2-0.5,0.5-0.5,0.9c0,0.4,0.2,0.7,0.5,0.9c2.3,1.2,4.9,1.9,7.5,1.9s5.2-0.7,7.5-1.9C30,34.9,30.2,34.3,29.9,33.8z"
		/>
	<path d="M35.9,19l-1.3-0.9c-0.5-0.3-1.1-0.2-1.4,0.3c-0.3,0.5-0.2,1.1,0.3,1.4l3,2c0.2,0.1,0.4,0.2,0.6,0.2c0.2,0,0.3,0,0.5-0.1
		c0.3-0.2,0.5-0.5,0.5-0.9c0-5.4-2.7-10.3-7.1-13.3c-0.5-0.3-1.1-0.2-1.4,0.3c-0.3,0.5-0.2,1.1,0.3,1.4C33.1,11.6,35.3,15.1,35.9,19
		z"/>
	<path d="M7,22c0.6,0,1-0.4,1-1c0-4.1,1.8-7.9,4.8-10.6l0.2,1.7c0.1,0.5,0.6,0.9,1.1,0.9c0.5-0.1,0.9-0.6,0.9-1.1l-0.4-3.4
		c0-0.3-0.3-0.7-0.6-0.8c-0.3-0.1-0.7-0.1-1,0.1C8.6,10.7,6,15.7,6,21C6,21.6,6.4,22,7,22z"/>
</g>
</svg>
