<?xml version="1.0" encoding="utf-8"?>
<!-- Generator: Adobe Illustrator 21.1.0, SVG Export Plug-In . SVG Version: 6.00 Build 0)  -->
<svg version="1.1" id="Layer_1" xmlns="http://www.w3.org/2000/svg" xmlns:xlink="http://www.w3.org/1999/xlink" x="0px" y="0px"
	 viewBox="0 0 44 44" style="enable-background:new 0 0 44 44;" xml:space="preserve">
<g>
	<path d="M23,13h-3c-0.6,0-1,0.4-1,1s0.4,1,1,1h1c0,0.6,0.4,1,1,1s1-0.4,1-1c1.7,0,3-1.3,3-3s-1.3-3-3-3h-2c-0.6,0-1-0.4-1-1
		s0.4-1,1-1h3c0.6,0,1-0.4,1-1s-0.4-1-1-1h-1c0-0.6-0.4-1-1-1s-1,0.4-1,1c-1.7,0-3,1.3-3,3s1.3,3,3,3h2c0.6,0,1,0.4,1,1
		S23.6,13,23,13z"/>
	<path d="M32,32h-9v-2.6c0,0,0,0,0,0V28c1.6-0.1,3.1-0.7,4.2-1.8c1.3-1.3,2-3.2,1.8-5.3c0-0.5-0.4-0.9-0.9-0.9
		c-2-0.2-3.7,0.4-5.1,1.6V19c0-0.6-0.4-1-1-1c-4.4,0-8-3.6-8-8s3.6-8,8-8s8,3.6,8,8c0,3-1.7,5.7-4.3,7.1c-0.5,0.3-0.7,0.9-0.4,1.3
		s0.9,0.7,1.3,0.4c3.3-1.7,5.4-5.1,5.4-8.9c0-5.5-4.5-10-10-10S12,4.5,12,10c0,5.2,4,9.4,9,9.9v4.7c-1.3-1.2-3.1-1.8-5.1-1.6
		c-0.5,0-0.9,0.4-0.9,0.9c-0.2,2.1,0.4,3.9,1.8,5.3c1.1,1.1,2.6,1.7,4.2,1.8v2c0,0.6,0.4,1,1,1h8c-0.1,2.7-0.6,5.4-1.6,8H15.7
		c-1-2.6-1.5-5.2-1.6-8h3c0.6,0,1-0.4,1-1s-0.4-1-1-1h-5c-0.6,0-1,0.4-1,1s0.4,1,1,1h0c0.1,3.1,0.7,6.1,1.9,9c0.3,0.6,0.9,1,1.5,1
		h13.1c0.7,0,1.3-0.4,1.5-1c1.1-2.9,1.8-5.9,1.9-9h0c0.6,0,1-0.4,1-1S32.6,32,32,32z M24.2,23.2c0.7-0.7,1.7-1.1,2.8-1.2
		c-0.1,1.1-0.5,2-1.2,2.8S24.1,25.9,23,26C23.1,24.9,23.5,24,24.2,23.2z M18.2,27.8c-0.7-0.7-1.1-1.7-1.2-2.8c1.1,0.1,2,0.5,2.8,1.2
		c0.7,0.7,1.1,1.7,1.2,2.8C19.9,28.9,18.9,28.5,18.2,27.8z"/>
</g>
</svg>
