<?xml version="1.0" encoding="utf-8"?>
<!-- Generator: Adobe Illustrator 19.2.1, SVG Export Plug-In . SVG Version: 6.00 Build 0)  -->
<svg version="1.1" id="Layer_1" xmlns="http://www.w3.org/2000/svg" xmlns:xlink="http://www.w3.org/1999/xlink" x="0px" y="0px"
	 viewBox="0 0 44 44" style="enable-background:new 0 0 44 44;" xml:space="preserve">
<g>
	<circle cx="22" cy="28" r="1"/>
	<path d="M30.7,16.5c1.5-1.3,2.3-3.2,2.3-5.2V6h1c0.6,0,1-0.4,1-1V1c0-0.6-0.4-1-1-1H10C9.4,0,9,0.4,9,1v4c0,0.6,0.4,1,1,1h1v5.3
		c0,2,0.9,3.9,2.3,5.2l5.3,4.7c0.2,0.2,0.3,0.5,0.3,0.7s-0.1,0.6-0.3,0.7l-5.3,4.7c-1.5,1.3-2.3,3.2-2.3,5.2V38h-1c-0.6,0-1,0.4-1,1
		v4c0,0.6,0.4,1,1,1h24c0.6,0,1-0.4,1-1v-4c0-0.6-0.4-1-1-1h-1v-5.3c0-2-0.9-3.9-2.3-5.2l-5.3-4.7C25.1,22.6,25,22.3,25,22
		s0.1-0.6,0.3-0.7L30.7,16.5z M24,24.2l5.3,4.7c1.1,0.9,1.7,2.3,1.7,3.7V38H17c-0.6,0-1,0.4-1,1s0.4,1,1,1h16v2H11v-2h1
		c0.6,0,1-0.4,1-1v-6.3c0-1.4,0.6-2.8,1.7-3.7l5.3-4.7c0.6-0.6,1-1.4,1-2.2s-0.4-1.7-1-2.2L14.7,15c-1.1-0.9-1.7-2.3-1.7-3.7V6h14
		c0.6,0,1-0.4,1-1s-0.4-1-1-1H11V2h22v2h-1c-0.6,0-1,0.4-1,1v6.3c0,1.4-0.6,2.8-1.7,3.7L24,19.8c-0.6,0.6-1,1.4-1,2.2
		S23.4,23.7,24,24.2z"/>
	<path d="M29,13c0-0.6-0.4-1-1-1H16c-0.6,0-1,0.4-1,1s0.4,1,1,1h12C28.6,14,29,13.6,29,13z"/>
	<path d="M21.7,32.1l-6,2c-0.5,0.2-0.8,0.7-0.6,1.3c0.2,0.5,0.7,0.8,1.3,0.6l5.7-1.9l5.7,1.9c0.1,0,0.2,0.1,0.3,0.1
		c0.4,0,0.8-0.3,0.9-0.7c0.2-0.5-0.1-1.1-0.6-1.3l-6-2C22.1,32,21.9,32,21.7,32.1z"/>
</g>
</svg>
