<?xml version="1.0" encoding="utf-8"?>
<!-- Generator: Adobe Illustrator 21.1.0, SVG Export Plug-In . SVG Version: 6.00 Build 0)  -->
<svg version="1.1" id="Layer_1" xmlns="http://www.w3.org/2000/svg" xmlns:xlink="http://www.w3.org/1999/xlink" x="0px" y="0px"
	 viewBox="0 0 44 44" style="enable-background:new 0 0 44 44;" xml:space="preserve">
<g>
	<path d="M38.9,37.7C38.8,37.3,38.4,37,38,37H13v-6.5c0-0.7,0.3-1.4,0.7-2l4.9-5.6c1-1.1,1-2.8,0-4l-4.9-5.6c-0.5-0.5-0.7-1.2-0.7-2
		V10c0-0.6-0.4-1-1-1s-1,0.4-1,1v1.5c0,1.2,0.4,2.4,1.2,3.3l4.9,5.6c0.3,0.4,0.3,0.9,0,1.3l-4.9,5.6c-0.8,0.9-1.2,2.1-1.2,3.3V38
		c0,0.6,0.4,1,1,1h25.3l0.7,2.1c-0.1,0.5-0.5,0.9-1,0.9H7c-0.5,0-0.9-0.4-1-0.9L6.7,39H8c0.6,0,1-0.4,1-1V10c0-0.6-0.4-1-1-1
		s-1,0.4-1,1v27H6c-0.4,0-0.8,0.3-0.9,0.7l-1,3C4,40.8,4,40.9,4,41c0,1.7,1.3,3,3,3h30c1.7,0,3-1.3,3-3c0-0.1,0-0.2-0.1-0.3
		L38.9,37.7z"/>
	<path d="M5.1,6.3C5.2,6.7,5.6,7,6,7h25v4.5c0,0.7-0.3,1.4-0.7,2L25.4,19c-1,1.1-1,2.8,0,4l4.9,5.6c0.5,0.5,0.7,1.2,0.7,2V34
		c0,0.6,0.4,1,1,1s1-0.4,1-1v-3.5c0-1.2-0.4-2.4-1.2-3.3l-4.9-5.6c-0.3-0.4-0.3-0.9,0-1.3l4.9-5.6c0.8-0.9,1.2-2.1,1.2-3.3V6
		c0-0.6-0.4-1-1-1H6.7L6,2.9C6.1,2.4,6.5,2,7,2h30c0.5,0,0.9,0.4,1,0.9L37.3,5H36c-0.6,0-1,0.4-1,1v28c0,0.6,0.4,1,1,1s1-0.4,1-1V7
		h1c0.4,0,0.8-0.3,0.9-0.7l1-3C40,3.2,40,3.1,40,3c0-1.7-1.3-3-3-3H7C5.3,0,4,1.3,4,3c0,0.1,0,0.2,0.1,0.3L5.1,6.3z"/>
	<path d="M28,14c0-0.6-0.4-1-1-1H17c-0.6,0-1,0.4-1,1s0.4,1,1,1h10C27.6,15,28,14.6,28,14z"/>
	<circle cx="22" cy="26" r="1"/>
	<circle cx="22" cy="22" r="1"/>
	<path d="M14,33.3c0.2,0.5,0.7,0.8,1.2,0.7L22,32l6.7,1.9c0.1,0,0.2,0,0.3,0c0.4,0,0.8-0.3,1-0.7c0.2-0.5-0.2-1.1-0.7-1.2l-7-2
		c-0.2-0.1-0.4-0.1-0.5,0l-7,2C14.2,32.2,13.9,32.7,14,33.3z"/>
</g>
</svg>
