<?xml version="1.0" encoding="iso-8859-1"?>
<!-- Generator: Adobe Illustrator 21.0.0, SVG Export Plug-In . SVG Version: 6.00 Build 0)  -->
<svg version="1.1" xmlns="http://www.w3.org/2000/svg" xmlns:xlink="http://www.w3.org/1999/xlink" x="0px" y="0px"
	 viewBox="0 0 44 44" style="enable-background:new 0 0 44 44;" xml:space="preserve">
<g id="lock">
</g>
<g id="key_x5F_1">
</g>
<g id="alert">
</g>
<g id="car">
</g>
<g id="alarm">
</g>
<g id="firewall">
</g>
<g id="handcuffs">
</g>
<g id="firefighter">
</g>
<g id="policeman">
</g>
<g id="police">
</g>
<g id="jail">
</g>
<g id="shield">
</g>
<g id="key_x5F_2">
</g>
<g id="home">
</g>
<g id="unlock">
</g>
<g id="internet">
	<g>
		<circle cx="37" cy="36" r="1"/>
		<path d="M43,30h-1v-3c0-2.757-2.243-5-5-5s-5,2.243-5,5v3h-1c-0.553,0-1,0.447-1,1v8c0,1.654,1.346,3,3,3h8c1.654,0,3-1.346,3-3
			v-8C44,30.447,43.553,30,43,30z M34,27c0-1.654,1.346-3,3-3s3,1.346,3,3v3h-6V27z M42,39c0,0.552-0.448,1-1,1h-8
			c-0.552,0-1-0.448-1-1v-7h10V39z"/>
		<path d="M27,32c0.553,0,1-0.447,1-1s-0.447-1-1-1h-6v-7h9c0.553,0,1-0.447,1-1v-2c0-0.01-0.005-0.018-0.006-0.028
			c0-0.009,0.004-0.017,0.004-0.026c-0.116-2.107-0.417-4.098-0.858-5.946l5.991,0c0.783,1.591,1.355,3.316,1.646,5.154
			c0.078,0.493,0.503,0.844,0.986,0.844c0.052,0,0.104-0.004,0.157-0.013c0.546-0.086,0.918-0.599,0.831-1.144
			C38.204,9.086,29.901,2.004,20.006,2.001C20.004,2.001,20.002,2,20,2C8.972,2,0,10.972,0,22c0,10.998,8.924,19.946,19.912,19.995
			C19.941,41.995,19.97,42,20,42c0.007,0,0.014-0.002,0.022-0.002c2.152-0.002,4.269-0.344,6.294-1.017
			c0.524-0.175,0.808-0.74,0.634-1.265c-0.165-0.494-0.677-0.756-1.174-0.644c0.661-0.734,1.285-1.585,1.852-2.575
			c0.275-0.479,0.109-1.09-0.37-1.364c-0.478-0.275-1.09-0.109-1.364,0.37c-1.401,2.446-3.111,3.95-4.894,4.367V32H27z M3.9,30
			c-1.063-2.13-1.71-4.496-1.849-7h6.984c0.037,1.401,0.132,2.792,0.325,4.142C9.431,27.641,9.858,28,10.349,28
			c0.047,0,0.095-0.003,0.143-0.01c0.547-0.078,0.927-0.585,0.849-1.132c-0.18-1.256-0.268-2.553-0.305-3.858H16
			c0.553,0,1-0.447,1-1s-0.447-1-1-1h-4.974c0.072-2.49,0.408-4.859,0.956-7L19,14v16H3.9z M20,4.001c3.056,0,5.838,3.187,7.489,8
			L21,12V7c0-0.553-0.447-1-1-1s-1,0.447-1,1v5l-6.432,0C14.205,7.213,16.954,4.001,20,4.001z M29,20.031V21h-8v-7l7.086,0
			C28.56,15.855,28.88,17.885,29,20.031z M34.988,12.001l-5.404,0c-0.914-2.88-2.203-5.301-3.757-7.032
			C29.595,6.243,32.809,8.72,34.988,12.001z M14.155,4.993c-1.543,1.731-2.82,4.132-3.716,7.007L8,12c-0.552,0-1,0.447-1,1
			s0.447,1,1,1l1.889,0c-0.503,2.151-0.797,4.511-0.862,7H2.051C2.462,13.562,7.397,7.324,14.155,4.993z M5.044,32h5.409
			c0.913,2.914,2.196,5.303,3.719,7.012C10.419,37.722,7.217,35.239,5.044,32z M19,39.871c-2.56-0.613-4.96-3.533-6.445-7.871H19
			V39.871z"/>
	</g>
</g>
<g id="password">
</g>
<g id="extinguisher">
</g>
<g id="scales">
</g>
<g id="camera">
</g>
</svg>
