<?xml version="1.0" encoding="utf-8"?>
<!-- Generator: Adobe Illustrator 21.1.0, SVG Export Plug-In . SVG Version: 6.00 Build 0)  -->
<svg version="1.1" id="Layer_1" xmlns="http://www.w3.org/2000/svg" xmlns:xlink="http://www.w3.org/1999/xlink" x="0px" y="0px"
	 viewBox="0 0 44 44" style="enable-background:new 0 0 44 44;" xml:space="preserve">
<g>
	<path d="M40,8c0-2.2-1.8-4-4-4s-4,1.8-4,4s1.8,4,4,4S40,10.2,40,8z M34,8c0-1.1,0.9-2,2-2s2,0.9,2,2s-0.9,2-2,2S34,9.1,34,8z"/>
	<path d="M44,8c0-4.4-3.6-8-8-8c-2.4,0-4.7,1.1-6.2,3c-1.2-0.6-2.5-1-3.8-1c-4.4,0-8,3.6-8,8c0,2,0.8,4,2.1,5.4L20,15.6
		c-0.6,0.6-1,1.5-1,2.4c0,0.7,0.2,1.4,0.6,2L0.9,38.7C0.3,39.3,0,40,0,40.9C0,42.6,1.4,44,3.1,44c0.8,0,1.6-0.3,2.2-0.9l1-1
		c0.4-0.4,1-0.4,1.4,0l1,1c0.6,0.6,1.4,0.9,2.2,0.9c1.7,0,3.1-1.4,3.1-3.1c0-0.8-0.3-1.6-0.9-2.2L12.4,38l1.6-1.6l2.7,2.7
		c0.6,0.6,1.4,0.9,2.2,0.9c1.7,0,3.1-1.4,3.1-3.1c0-0.8-0.3-1.6-0.9-2.2l-3-3c-0.4-0.4-0.4-1,0-1.4l3.6-3.6c0.4-0.4,0.4-1,0-1.4
		s-1-0.4-1.4,0l-3.6,3.6c-1.2,1.2-1.2,3.1,0,4.2l3,3c0.2,0.2,0.3,0.5,0.3,0.8c0,0.6-0.5,1.1-1.1,1.1c-0.3,0-0.6-0.1-0.8-0.3
		l-3.4-3.4c-0.4-0.4-1-0.4-1.4,0l-3,3c-0.4,0.4-0.4,1,0,1.4l1.4,1.4c0.2,0.2,0.3,0.5,0.3,0.8c0,0.6-0.5,1.1-1.1,1.1
		c-0.3,0-0.6-0.1-0.8-0.3l-1-1c-0.6-0.6-1.3-0.9-2.1-0.9s-1.6,0.3-2.1,0.9l-1,1C3.7,41.9,3.4,42,3.1,42C2.5,42,2,41.5,2,40.9
		c0-0.3,0.1-0.6,0.3-0.8l19.4-19.4c0.2-0.2,0.3-0.4,0.3-0.7s-0.1-0.5-0.3-0.7L21.4,19c-0.3-0.3-0.4-0.6-0.4-1s0.1-0.7,0.4-1l0.9-0.9
		c0.2-0.2,0.3-0.5,0.3-0.9c0-0.3-0.2-0.5-0.4-0.6C20.8,13.5,20,11.8,20,10c0-3.3,2.7-6,6-6c1.3,0,2.5,0.4,3.5,1.1
		c0.2,0.2,0.5,0.2,0.8,0.2c0.3-0.1,0.5-0.2,0.7-0.5C32,3.1,33.9,2,36,2c3.3,0,6,2.7,6,6c0,2.1-1.1,4-2.8,5.1
		c-0.2,0.1-0.4,0.4-0.5,0.7c-0.1,0.3,0,0.6,0.2,0.8c0.7,1,1.1,2.2,1.1,3.5c0,3.3-2.7,6-6,6s-6-2.7-6-6c0-0.3,0-0.6,0.1-0.9
		c0-0.3-0.1-0.6-0.3-0.9c-0.2-0.2-0.5-0.3-0.9-0.3c-0.7,0.1-1.2,0.1-1.8,0c-0.6-0.1-1.1,0.3-1.1,0.8c-0.1,0.5,0.3,1.1,0.8,1.1
		C25.2,18,25.6,18,26,18c0,1.6,0.5,3.1,1.3,4.3L27,22.6c-0.5,0.5-1.5,0.5-2,0l-0.3-0.3c-0.4-0.4-1-0.4-1.4,0s-0.4,1,0,1.4l0.3,0.3
		c0.6,0.6,1.5,1,2.4,1s1.8-0.4,2.4-1l0.1-0.1C30,25.2,31.9,26,34,26c4.4,0,8-3.6,8-8c0-1.3-0.3-2.6-1-3.8C42.9,12.7,44,10.4,44,8z"
		/>
</g>
</svg>
