<?xml version="1.0" encoding="iso-8859-1"?>
<!-- Generator: Adobe Illustrator 21.0.0, SVG Export Plug-In . SVG Version: 6.00 Build 0)  -->
<svg version="1.1" xmlns="http://www.w3.org/2000/svg" xmlns:xlink="http://www.w3.org/1999/xlink" x="0px" y="0px"
	 viewBox="0 0 44 44" style="enable-background:new 0 0 44 44;" xml:space="preserve">
<g id="lock">
	<g>
		<circle cx="22" cy="30" r="1"/>
		<path d="M22,26c-2.206,0-4,1.794-4,4c0,1.858,1.28,3.411,3,3.858V37c0,0.552,0.448,1,1,1s1-0.448,1-1v-3.142
			c1.72-0.447,3-2,3-3.858C26,27.794,24.206,26,22,26z M22,32c-1.103,0-2-0.897-2-2s0.897-2,2-2s2,0.897,2,2S23.103,32,22,32z"/>
		<path d="M34,20v-8c0-6.617-5.383-12-12-12S10,5.383,10,12v8c-1.654,0-3,1.346-3,3v18c0,1.654,1.346,3,3,3h24c1.654,0,3-1.346,3-3
			V23C37,21.346,35.654,20,34,20z M34,42H10c-0.551,0-1-0.449-1-1v-1h3c0.552,0,1-0.448,1-1s-0.448-1-1-1H9V26h3
			c0.552,0,1-0.448,1-1s-0.448-1-1-1H9v-1c0-0.551,0.449-1,1-1h19c0.552,0,1-0.448,1-1v-9c0-4.411-3.589-8-8-8s-8,3.589-8,8v5
			c0,0.552,0.448,1,1,1s1-0.448,1-1v-5c0-3.309,2.691-6,6-6s6,2.691,6,6v8H12v-8c0-5.514,4.486-10,10-10s10,4.486,10,10v9
			c0,0.552,0.448,1,1,1h1c0.551,0,1,0.449,1,1v1h-3c-0.552,0-1,0.448-1,1s0.448,1,1,1h3v12h-3c-0.552,0-1,0.448-1,1s0.448,1,1,1h3v1
			C35,41.551,34.551,42,34,42z"/>
	</g>
</g>
<g id="key_x5F_1">
</g>
<g id="alert">
</g>
<g id="car">
</g>
<g id="alarm">
</g>
<g id="firewall">
</g>
<g id="handcuffs">
</g>
<g id="firefighter">
</g>
<g id="policeman">
</g>
<g id="police">
</g>
<g id="jail">
</g>
<g id="shield">
</g>
<g id="key_x5F_2">
</g>
<g id="home">
</g>
<g id="unlock">
</g>
<g id="internet">
</g>
<g id="password">
</g>
<g id="extinguisher">
</g>
<g id="scales">
</g>
<g id="camera">
</g>
</svg>
