<?xml version="1.0" encoding="utf-8"?>
<!-- Generator: Adobe Illustrator 19.2.1, SVG Export Plug-In . SVG Version: 6.00 Build 0)  -->
<svg version="1.1" id="Layer_1" xmlns="http://www.w3.org/2000/svg" xmlns:xlink="http://www.w3.org/1999/xlink" x="0px" y="0px"
	 viewBox="0 0 44 44" style="enable-background:new 0 0 44 44;" xml:space="preserve">
<style type="text/css">
	.st0{fill:#231F20;}
</style>
<g>
	<path d="M7,21c-0.6,0-1,0.4-1,1s0.4,1,1,1h4c0.6,0,1-0.4,1-1s-0.4-1-1-1H7z"/>
	<path d="M35,9H25c-0.6,0-1,0.4-1,1s0.4,1,1,1h10c3.9,0,7,3.1,7,7v12c0,0.6-0.4,1-1,1H3c-0.6,0-1-0.4-1-1V18c0-3.9,3.1-7,7-7
		s7,3.1,7,7v10c0,0.6,0.4,1,1,1s1-0.4,1-1V18c0-2.8-1.3-5.3-3.4-7H20v11c0,0.6,0.4,1,1,1s1-0.4,1-1V4c0-0.6,0.4-1,1-1h6
		c0.6,0,1,0.4,1,1s-0.4,1-1,1h-4c-0.6,0-1,0.4-1,1s0.4,1,1,1h4c1.7,0,3-1.3,3-3s-1.3-3-3-3h-6c-1.7,0-3,1.3-3,3v5H9c-5,0-9,4-9,9v12
		c0,1.7,1.3,3,3,3h14v2c0,0.6,0.4,1,1,1h1v6c0,0.6,0.4,1,1,1s1-0.4,1-1v-6h2v6c0,0.6,0.4,1,1,1s1-0.4,1-1v-6h1c0.6,0,1-0.4,1-1v-2
		h14c1.7,0,3-1.3,3-3V18C44,13,40,9,35,9z M25,34h-6v-1h6V34z"/>
</g>
</svg>
