<?xml version="1.0" encoding="utf-8"?>
<!-- Generator: Adobe Illustrator 21.1.0, SVG Export Plug-In . SVG Version: 6.00 Build 0)  -->
<svg version="1.1" id="Layer_1" xmlns="http://www.w3.org/2000/svg" xmlns:xlink="http://www.w3.org/1999/xlink" x="0px" y="0px"
	 viewBox="0 0 44 44" style="enable-background:new 0 0 44 44;" xml:space="preserve">
<g>
	<path d="M36,13H18c-1.7,0-3,1.3-3,3v12c0,1.7,1.3,3,3,3h18c1.7,0,3-1.3,3-3V16C39,14.3,37.7,13,36,13z M18,15h18c0.6,0,1,0.4,1,1v1
		H17v-1C17,15.4,17.4,15,18,15z M36,29H18c-0.6,0-1-0.4-1-1v-7h20v7C37,28.6,36.6,29,36,29z"/>
	<path d="M24,25h-4c-0.6,0-1,0.4-1,1s0.4,1,1,1h4c0.6,0,1-0.4,1-1S24.6,25,24,25z"/>
	<circle cx="18" cy="39" r="1"/>
	<circle cx="13" cy="5" r="1"/>
	<path d="M16,6h4c0.6,0,1-0.4,1-1s-0.4-1-1-1h-4c-0.6,0-1,0.4-1,1S15.4,6,16,6z"/>
	<path d="M6,10h23c0,0.6,0.4,1,1,1s1-0.4,1-1V5c0-2.8-2.2-5-5-5H10C7.2,0,5,2.2,5,5v4C5,9.6,5.4,10,6,10z M10,2h16c1.7,0,3,1.3,3,3
		v3H7V5C7,3.3,8.3,2,10,2z"/>
	<path d="M30,32c-0.6,0-1,0.4-1,1v2H10c-0.6,0-1,0.4-1,1s0.4,1,1,1h19v2c0,1.7-1.3,3-3,3H10c-1.7,0-3-1.3-3-3V13c0-0.6-0.4-1-1-1
		s-1,0.4-1,1v26c0,2.8,2.2,5,5,5h16c2.8,0,5-2.2,5-5v-3v-1v-2C31,32.4,30.6,32,30,32z"/>
</g>
</svg>
