<?xml version="1.0" encoding="utf-8"?>
<!-- Generator: Adobe Illustrator 19.2.1, SVG Export Plug-In . SVG Version: 6.00 Build 0)  -->
<svg version="1.1" id="Layer_1" xmlns="http://www.w3.org/2000/svg" xmlns:xlink="http://www.w3.org/1999/xlink" x="0px" y="0px"
	 viewBox="0 0 44 44" style="enable-background:new 0 0 44 44;" xml:space="preserve">
<g>
	<circle cx="32" cy="17" r="2"/>
	<circle cx="12" cy="17" r="2"/>
	<path d="M41,3H22H3C1.3,3,0,4.3,0,6v22c0,1.7,1.3,3,3,3h19h19c1.7,0,3-1.3,3-3V6C44,4.3,42.7,3,41,3z M42,28c0,0.6-0.4,1-1,1H22H3
		c-0.6,0-1-0.4-1-1V6c0-0.6,0.4-1,1-1h19h19c0.6,0,1,0.4,1,1V28z"/>
	<path d="M43,32c-0.6,0-1,0.4-1,1c0,0.6-0.4,1-1,1H22H3c-0.6,0-1-0.4-1-1c0-0.6-0.4-1-1-1s-1,0.4-1,1c0,1.7,1.3,3,3,3h19h19
		c1.7,0,3-1.3,3-3C44,32.4,43.6,32,43,32z"/>
	<path d="M43,37c-0.6,0-1,0.4-1,1c0,0.6-0.4,1-1,1H22H3c-0.6,0-1-0.4-1-1c0-0.6-0.4-1-1-1s-1,0.4-1,1c0,1.7,1.3,3,3,3h19h19
		c1.7,0,3-1.3,3-3C44,37.4,43.6,37,43,37z"/>
	<path d="M39,9c-0.6,0-1-0.4-1-1c0-0.6-0.4-1-1-1H7C6.4,7,6,7.4,6,8c0,0.6-0.4,1-1,1c-0.6,0-1,0.4-1,1v14c0,0.6,0.4,1,1,1
		c0.6,0,1,0.4,1,1c0,0.6,0.4,1,1,1h30c0.6,0,1-0.4,1-1c0-0.6,0.4-1,1-1c0.6,0,1-0.4,1-1V10C40,9.4,39.6,9,39,9z M36.2,25H7.8
		c-0.3-0.9-1-1.5-1.8-1.8V10.8c0.9-0.3,1.5-1,1.8-1.8h28.3c0.3,0.9,1,1.5,1.8,1.8v12.4C37.1,23.5,36.5,24.1,36.2,25z"/>
	<path d="M22,11c-3.3,0-6,2.7-6,6s2.7,6,6,6s6-2.7,6-6S25.3,11,22,11z M22,21c-2.2,0-4-1.8-4-4s1.8-4,4-4s4,1.8,4,4S24.2,21,22,21z"
		/>
</g>
</svg>
