<?xml version="1.0" encoding="utf-8"?>
<!-- Generator: Adobe Illustrator 21.1.0, SVG Export Plug-In . SVG Version: 6.00 Build 0)  -->
<svg version="1.1" id="Layer_1" xmlns="http://www.w3.org/2000/svg" xmlns:xlink="http://www.w3.org/1999/xlink" x="0px" y="0px"
	 viewBox="0 0 44 44" style="enable-background:new 0 0 44 44;" xml:space="preserve">
<g>
	<path d="M21,21v1c-1.7,0-3,1.3-3,3s1.3,3,3,3h2c0.6,0,1,0.4,1,1s-0.4,1-1,1h-3c-0.6,0-1,0.4-1,1s0.4,1,1,1h1v1c0,0.6,0.4,1,1,1
		c0.6,0,1-0.4,1-1v-1c1.7,0,3-1.3,3-3s-1.3-3-3-3h-2c-0.6,0-1-0.4-1-1s0.4-1,1-1h3c0.6,0,1-0.4,1-1s-0.4-1-1-1h-1v-1
		c0-0.6-0.4-1-1-1C21.4,20,21,20.4,21,21z"/>
	<path d="M36.5,17.7l-6.8-7.4c-0.4-0.4-1-0.4-1.4-0.1c-0.4,0.4-0.4,1-0.1,1.4l6.8,7.4c2.5,2.8,3.9,6.4,3.9,10.1V39c0,1.7-1.3,3-3,3
		H8c-1.7,0-3-1.3-3-3v-9.8c0-3.8,1.4-7.4,3.9-10.1l6.5-7.1H21v4.1c-5.6,0.5-10,5.2-10,10.9c0,6.1,4.9,11,11,11s11-4.9,11-11
		c0-5.7-4.4-10.4-10-10.9V12h2c0.6,0,1-0.4,1-1s-0.4-1-1-1H15c-0.3,0-0.5,0.1-0.7,0.3l-6.8,7.4C4.6,20.9,3,25,3,29.2V39
		c0,2.8,2.2,5,5,5h28c2.8,0,5-2.2,5-5v-9.8C41,25,39.4,20.9,36.5,17.7z M31,27c0,5-4,9-9,9s-9-4-9-9s4-9,9-9S31,22,31,27z"/>
	<path d="M14.1,7.3C14.2,7.7,14.6,8,15,8c0.1,0,0.2,0,0.3-0.1c0.5-0.2,0.8-0.7,0.6-1.3L14.4,2h15.2l-1.3,4H19c-0.6,0-1,0.4-1,1
		s0.4,1,1,1h10c0.4,0,0.8-0.3,0.9-0.7l2-6C32.1,1,32,0.7,31.8,0.4S31.3,0,31,0H13c-0.3,0-0.6,0.2-0.8,0.4S11.9,1,12.1,1.3L14.1,7.3z
		"/>
</g>
</svg>
