<?xml version="1.0" encoding="iso-8859-1"?>
<!-- Generator: Adobe Illustrator 20.0.0, SVG Export Plug-In . SVG Version: 6.00 Build 0)  -->
<svg version="1.1" id="Layer_1" xmlns="http://www.w3.org/2000/svg" xmlns:xlink="http://www.w3.org/1999/xlink" x="0px" y="0px"
	 viewBox="0 0 44 44" style="enable-background:new 0 0 44 44;" xml:space="preserve">
<g>
	<circle cx="16" cy="23" r="1"/>
	<path d="M36,20c-2.757,0-5-2.243-5-5V8c0-4.411-3.589-8-8-8s-8,3.589-8,8v6.055c-4.494,0.499-8,4.32-8,8.945v12
		c0,4.962,4.037,9,9,9s9-4.038,9-9V23c0-3.201-1.723-6.188-4.496-7.793c-0.477-0.277-1.089-0.115-1.366,0.364
		c-0.277,0.478-0.114,1.089,0.364,1.366C21.659,18.187,23,20.51,23,23v12c0,3.86-3.141,7-7,7s-7-3.14-7-7V23c0-3.86,3.141-7,7-7
		c0.553,0,1-0.448,1-1V8c0-3.309,2.691-6,6-6s6,2.691,6,6v7c0,3.86,3.141,7,7,7c0.553,0,1-0.448,1-1S36.553,20,36,20z"/>
</g>
</svg>
