<?xml version="1.0" encoding="utf-8"?>
<!-- Generator: Adobe Illustrator 19.2.1, SVG Export Plug-In . SVG Version: 6.00 Build 0)  -->
<svg version="1.1" id="Layer_1" xmlns="http://www.w3.org/2000/svg" xmlns:xlink="http://www.w3.org/1999/xlink" x="0px" y="0px"
	 viewBox="0 0 44 44" style="enable-background:new 0 0 44 44;" xml:space="preserve">
<g>
	<path d="M22,31c-3.3,0-6,2.7-6,6s2.7,6,6,6s6-2.7,6-6S25.3,31,22,31z M22,41c-2.2,0-4-1.8-4-4s1.8-4,4-4s4,1.8,4,4S24.2,41,22,41z"
		/>
	<path d="M38,31c-3.3,0-6,2.7-6,6s2.7,6,6,6s6-2.7,6-6S41.3,31,38,31z M38,41c-2.2,0-4-1.8-4-4s1.8-4,4-4s4,1.8,4,4S40.2,41,38,41z"
		/>
	<path d="M6,31c-3.3,0-6,2.7-6,6s2.7,6,6,6s6-2.7,6-6S9.3,31,6,31z M6,41c-2.2,0-4-1.8-4-4s1.8-4,4-4s4,1.8,4,4S8.2,41,6,41z"/>
	<path d="M16,11h12c1.7,0,3-1.3,3-3V4c0-1.7-1.3-3-3-3H16c-1.7,0-3,1.3-3,3v4C13,9.7,14.3,11,16,11z M15,4c0-0.6,0.4-1,1-1h12
		c0.6,0,1,0.4,1,1v4c0,0.6-0.4,1-1,1H16c-0.6,0-1-0.4-1-1V4z"/>
	<path d="M5,29c0.6,0,1-0.4,1-1v-5c0-0.6,0.4-1,1-1h14v6c0,0.6,0.4,1,1,1s1-0.4,1-1v-6h14c0.6,0,1,0.4,1,1v5c0,0.6,0.4,1,1,1
		s1-0.4,1-1v-5c0-1.7-1.3-3-3-3H23v-6c0-0.6-0.4-1-1-1s-1,0.4-1,1v6H7c-1.7,0-3,1.3-3,3v5C4,28.6,4.4,29,5,29z"/>
</g>
</svg>
