<?xml version="1.0" encoding="iso-8859-1"?>
<!-- Generator: Adobe Illustrator 20.0.0, SVG Export Plug-In . SVG Version: 6.00 Build 0)  -->
<svg version="1.1" id="Layer_1" xmlns="http://www.w3.org/2000/svg" xmlns:xlink="http://www.w3.org/1999/xlink" x="0px" y="0px"
	 viewBox="0 0 44 44" style="enable-background:new 0 0 44 44;" xml:space="preserve">
<g>
	<path d="M38.1,8c0.01,0,0.02,0,0.03,0c0.54,0,0.98-0.42,1-0.97S38.71,6.02,38.16,6c-0.55-0.02-1.01,0.42-1.03,0.97
		C37.11,7.52,37.55,7.98,38.1,8z"/>
	<circle cx="30.05" cy="7" r="1"/>
	<circle cx="42" cy="12.92" r="1"/>
	<path d="M41.45,9.98c0.18,0,0.35-0.04,0.51-0.14c0.47-0.28,0.63-0.89,0.36-1.36c-0.28-0.48-0.9-0.64-1.37-0.36
		c-0.48,0.28-0.64,0.89-0.36,1.37C40.78,9.8,41.11,9.98,41.45,9.98z"/>
	<circle cx="34.09" cy="7" r="1"/>
	<circle cx="42" cy="16.96" r="1"/>
	<circle cx="26" cy="7" r="1"/>
	<circle cx="42" cy="21" r="1"/>
	<circle cx="2" cy="25.82" r="1"/>
	<circle cx="2" cy="21.91" r="1"/>
	<path d="M1.88,28.74c-0.54,0.1-0.9,0.62-0.8,1.16c0.09,0.48,0.51,0.82,0.98,0.82c0.06,0,0.12,0,0.18-0.01
		c0.55-0.1,0.91-0.62,0.81-1.17C2.95,29,2.43,28.64,1.88,28.74z"/>
	<circle cx="12.17" cy="33" r="1"/>
	<circle cx="8.26" cy="33" r="1"/>
	<path d="M4.8,31.75c-0.51-0.22-1.1,0.01-1.32,0.52c-0.22,0.5,0.01,1.09,0.52,1.31c0.13,0.06,0.26,0.09,0.4,0.09
		c0.38,0,0.75-0.23,0.91-0.6C5.53,32.56,5.3,31.97,4.8,31.75z"/>
	<circle cx="16.08" cy="33" r="1"/>
	<circle cx="20" cy="33" r="1"/>
	<circle cx="2" cy="18" r="1"/>
	<path d="M40,24H26c-1.654,0-3,1.346-3,3v10c0,1.654,1.346,3,3,3h6v2h-2c-0.552,0-1,0.447-1,1s0.448,1,1,1h6c0.552,0,1-0.447,1-1
		s-0.448-1-1-1h-2v-3c0-0.552-0.448-1-1-1h-7c-0.551,0-1-0.449-1-1v-1h16v1c0,0.551-0.449,1-1,1h-3c-0.552,0-1,0.448-1,1
		s0.448,1,1,1h3c1.654,0,3-1.346,3-3V27C43,25.346,41.654,24,40,24z M41,34H25v-7c0-0.551,0.449-1,1-1h14c0.551,0,1,0.449,1,1V34z"
		/>
	<path d="M20.502,4.67c-0.944-0.545-2.039-0.784-3.152-0.623C16.216,1.593,13.769,0,11,0c-0.801,0-1.586,0.134-2.334,0.4
		C8.145,0.584,7.873,1.156,8.057,1.676c0.184,0.52,0.755,0.793,1.276,0.608C9.867,2.096,10.428,2,11,2
		c2.172,0,4.061,1.375,4.74,3.427C15.908,5.933,16,6.46,16,7c0,0.573-0.096,1.134-0.284,1.667c-0.184,0.521,0.089,1.092,0.61,1.276
		c0.11,0.039,0.223,0.058,0.333,0.058c0.412,0,0.798-0.257,0.943-0.667C17.866,8.585,18,7.8,18,7c0-0.333-0.037-0.661-0.083-0.987
		C18.5,5.982,19.02,6.123,19.5,6.401C20.425,6.937,21,7.933,21,9c0,1.654-1.346,3-3,3H6c-1.654,0-3-1.346-3-3
		c0-1.46,1.048-2.699,2.424-2.937L6.047,6C7.096,6.017,8.071,6.588,8.599,7.5C8.875,7.978,9.486,8.14,9.965,7.864
		c0.478-0.277,0.641-0.888,0.364-1.366C9.437,4.957,7.778,4,6,4C5.966,4,5.933,4.001,5.899,4.005L5.155,4.083
		C2.748,4.494,1,6.562,1,9c0,2.757,2.243,5,5,5h12c2.757,0,5-2.243,5-5C23,7.222,22.043,5.563,20.502,4.67z"/>
</g>
</svg>
