<?xml version="1.0" encoding="iso-8859-1"?>
<!-- Generator: Adobe Illustrator 20.0.0, SVG Export Plug-In . SVG Version: 6.00 Build 0)  -->
<svg version="1.1" xmlns="http://www.w3.org/2000/svg" xmlns:xlink="http://www.w3.org/1999/xlink" x="0px" y="0px"
	 viewBox="0 0 44 44" style="enable-background:new 0 0 44 44;" xml:space="preserve">
<g id="Layer_21">
</g>
<g id="Layer_20">
</g>
<g id="Layer_19">
</g>
<g id="Layer_18">
</g>
<g id="Layer_17">
</g>
<g id="Layer_16">
</g>
<g id="Layer_15">
</g>
<g id="Layer_14">
</g>
<g id="Layer_13">
</g>
<g id="Layer_12">
</g>
<g id="Layer_11">
</g>
<g id="Layer_10">
	<g>
		<circle cx="18" cy="15" r="1"/>
		<path d="M13,31h15c0.552,0,1-0.447,1-1s-0.448-1-1-1H13c-0.552,0-1,0.447-1,1S12.448,31,13,31z"/>
		<path d="M39,33H26c-0.552,0-1,0.447-1,1s0.448,1,1,1h13c0.552,0,1-0.447,1-1S39.552,33,39,33z"/>
		<path d="M39,29h-7c-0.552,0-1,0.447-1,1s0.448,1,1,1h7c0.552,0,1-0.447,1-1S39.552,29,39,29z"/>
		<path d="M13,39h14c0.552,0,1-0.447,1-1s-0.448-1-1-1H13c-0.552,0-1,0.447-1,1S12.448,39,13,39z"/>
		<path d="M13,35h9c0.552,0,1-0.447,1-1s-0.448-1-1-1h-9c-0.552,0-1,0.447-1,1S12.448,35,13,35z"/>
		<path d="M39,37h-8c-0.552,0-1,0.447-1,1s0.448,1,1,1h8c0.552,0,1-0.447,1-1S39.552,37,39,37z"/>
		<path d="M39,15h-8c-0.552,0-1,0.447-1,1s0.448,1,1,1h8c0.552,0,1-0.447,1-1S39.552,15,39,15z"/>
		<path d="M39,23h-8c-0.552,0-1,0.447-1,1s0.448,1,1,1h8c0.552,0,1-0.447,1-1S39.552,23,39,23z"/>
		<path d="M39,11h-8c-0.552,0-1,0.447-1,1s0.448,1,1,1h8c0.552,0,1-0.447,1-1S39.552,11,39,11z"/>
		<path d="M31,21h6c0.552,0,1-0.447,1-1s-0.448-1-1-1h-6c-0.552,0-1,0.447-1,1S30.448,21,31,21z"/>
		<path d="M41,0H11C9.346,0,8,1.346,8,3v36c0,1.654-1.346,3-3,3s-3-1.346-3-3V9c0-0.552,0.449-1,1-1s1,0.448,1,1v30
			c0,0.553,0.448,1,1,1s1-0.447,1-1V9c0-1.654-1.346-3-3-3S0,7.346,0,9v30c0,2.757,2.243,5,5,5s5-2.243,5-5V3c0-0.552,0.449-1,1-1
			h30c0.551,0,1,0.448,1,1v36c0,1.654-1.346,3-3,3H11c-0.552,0-1,0.447-1,1s0.448,1,1,1h28c2.757,0,5-2.243,5-5V3
			C44,1.346,42.654,0,41,0z"/>
		<path d="M30,5h-8c-0.552,0-1,0.447-1,1s0.448,1,1,1h8c0.552,0,1-0.447,1-1S30.552,5,30,5z"/>
		<path d="M15.268,19.049L12.4,21.2C12.148,21.389,12,21.686,12,22v3c0,0.553,0.448,1,1,1h14c0.552,0,1-0.447,1-1V11
			c0-0.553-0.448-1-1-1H13c-0.552,0-1,0.447-1,1v7c0,0.553,0.448,1,1,1s1-0.447,1-1v-6h12v4.144
			c-0.552-0.453-1.251-0.703-1.987-0.681c-0.972,0.026-1.874,0.525-2.413,1.334l-1.877,2.816l-0.99-0.66
			C17.675,18.249,16.284,18.287,15.268,19.049z M17.623,20.617l1.823,1.215c0.458,0.306,1.08,0.182,1.387-0.277l2.432-3.648
			c0.182-0.273,0.476-0.436,0.804-0.444c0.333-0.003,0.63,0.137,0.828,0.399L26,19.333V24H14v-1.5l2.468-1.852
			C16.807,20.394,17.271,20.382,17.623,20.617z"/>
	</g>
</g>
<g id="Layer_9">
</g>
<g id="Layer_8">
</g>
<g id="Layer_7">
</g>
<g id="Layer_6">
</g>
<g id="Layer_5">
</g>
<g id="Layer_4">
</g>
<g id="Layer_3">
</g>
<g id="Layer_2">
</g>
</svg>
