<?xml version="1.0" encoding="utf-8"?>
<!-- Generator: Adobe Illustrator 21.1.0, SVG Export Plug-In . SVG Version: 6.00 Build 0)  -->
<svg version="1.1" id="Layer_1" xmlns="http://www.w3.org/2000/svg" xmlns:xlink="http://www.w3.org/1999/xlink" x="0px" y="0px"
	 viewBox="0 0 44 44" style="enable-background:new 0 0 44 44;" xml:space="preserve">
<g>
	<path d="M43,42h-2v-4.1c1.7-0.4,3-2,3-3.9c0-1.9-2.7-5.1-3.3-5.7c-0.4-0.4-1.1-0.4-1.5,0C38.7,28.9,36,32.1,36,34
		c0,1.9,1.3,3.4,3,3.9V42H28v-5c0-0.6-0.4-1-1-1H17c-0.6,0-1,0.4-1,1v5h-5V10h6c0.6,0,1-0.4,1-1V6h8v3c0,0.6,0.4,1,1,1h6v29
		c0,0.6,0.4,1,1,1s1-0.4,1-1V9c0-0.6-0.4-1-1-1h-6V5c0-0.6-0.4-1-1-1h-4V1c0-0.6-0.4-1-1-1s-1,0.4-1,1v3h-4c-0.6,0-1,0.4-1,1v3h-6
		C9.4,8,9,8.4,9,9v34c0,0.6,0.4,1,1,1h7h10h16c0.6,0,1-0.4,1-1S43.6,42,43,42z M38,34c0-0.6,0.9-2.1,2-3.5c1.1,1.3,2,2.8,2,3.5
		c0,1.1-0.9,2-2,2S38,35.1,38,34z M18,38h3v4h-3V38z M23,42v-4h3v4H23z"/>
	<path d="M30,12H14c-0.6,0-1,0.4-1,1s0.4,1,1,1h16c0.6,0,1-0.4,1-1S30.6,12,30,12z"/>
	<path d="M30,16H14c-0.6,0-1,0.4-1,1s0.4,1,1,1h16c0.6,0,1-0.4,1-1S30.6,16,30,16z"/>
	<path d="M30,20H14c-0.6,0-1,0.4-1,1s0.4,1,1,1h16c0.6,0,1-0.4,1-1S30.6,20,30,20z"/>
	<path d="M30,24H14c-0.6,0-1,0.4-1,1s0.4,1,1,1h16c0.6,0,1-0.4,1-1S30.6,24,30,24z"/>
	<path d="M30,28H14c-0.6,0-1,0.4-1,1s0.4,1,1,1h16c0.6,0,1-0.4,1-1S30.6,28,30,28z"/>
	<path d="M30,32H14c-0.6,0-1,0.4-1,1s0.4,1,1,1h16c0.6,0,1-0.4,1-1S30.6,32,30,32z"/>
	<path d="M24,10c0.6,0,1-0.4,1-1s-0.4-1-1-1h-4c-0.6,0-1,0.4-1,1s0.4,1,1,1H24z"/>
	<path d="M8,34c0-1.9-2.7-5.1-3.3-5.7c-0.4-0.4-1.1-0.4-1.5,0C2.7,28.9,0,32.1,0,34c0,1.9,1.3,3.4,3,3.9V42H1c-0.6,0-1,0.4-1,1
		s0.4,1,1,1h5c0.6,0,1-0.4,1-1s-0.4-1-1-1H5v-4.1C6.7,37.4,8,35.9,8,34z M2,34c0-0.6,0.9-2.1,2-3.5c1.1,1.3,2,2.8,2,3.5
		c0,1.1-0.9,2-2,2S2,35.1,2,34z"/>
</g>
</svg>
