<?xml version="1.0" encoding="utf-8"?>
<!-- Generator: Adobe Illustrator 19.2.1, SVG Export Plug-In . SVG Version: 6.00 Build 0)  -->
<svg version="1.1" id="Layer_1" xmlns="http://www.w3.org/2000/svg" xmlns:xlink="http://www.w3.org/1999/xlink" x="0px" y="0px"
	 viewBox="0 0 44 44" style="enable-background:new 0 0 44 44;" xml:space="preserve">
<g>
	<path d="M26.4,15.9c2.6-1.2,5.5-1.2,8.2,0C34.7,16,34.9,16,35,16c0.4,0,0.7-0.2,0.9-0.6c0.2-0.5,0-1.1-0.5-1.3
		c-3.2-1.5-6.7-1.5-9.8,0c-0.5,0.2-0.7,0.8-0.5,1.3C25.3,15.9,25.9,16.1,26.4,15.9z"/>
	<path d="M25.1,20.4c0.2,0.5,0.8,0.7,1.3,0.5c2.6-1.2,5.5-1.2,8.2,0C34.7,21,34.9,21,35,21c0.4,0,0.7-0.2,0.9-0.6
		c0.2-0.5,0-1.1-0.5-1.3c-3.2-1.5-6.7-1.5-9.8,0C25.1,19.3,24.9,19.9,25.1,20.4z"/>
	<path d="M25.1,25.4c0.2,0.5,0.8,0.7,1.3,0.5c2.6-1.2,5.5-1.2,8.2,0C34.7,26,34.9,26,35,26c0.4,0,0.7-0.2,0.9-0.6
		c0.2-0.5,0-1.1-0.5-1.3c-3.2-1.5-6.7-1.5-9.8,0C25.1,24.3,24.9,24.9,25.1,25.4z"/>
	<path d="M18.4,14.1c-3.2-1.5-6.7-1.5-9.8,0c-0.5,0.2-0.7,0.8-0.5,1.3c0.2,0.5,0.8,0.7,1.3,0.5c2.6-1.2,5.5-1.2,8.2,0
		C17.7,16,17.9,16,18,16c0.4,0,0.7-0.2,0.9-0.6C19.1,14.9,18.9,14.3,18.4,14.1z"/>
	<path d="M18.4,19.1c-3.2-1.5-6.7-1.5-9.8,0c-0.5,0.2-0.7,0.8-0.5,1.3c0.2,0.5,0.8,0.7,1.3,0.5c2.6-1.2,5.5-1.2,8.2,0
		C17.7,21,17.9,21,18,21c0.4,0,0.7-0.2,0.9-0.6C19.1,19.9,18.9,19.3,18.4,19.1z"/>
	<path d="M18.4,24.1c-3.2-1.5-6.7-1.5-9.8,0c-0.5,0.2-0.7,0.8-0.5,1.3c0.2,0.5,0.8,0.7,1.3,0.5c2.6-1.2,5.5-1.2,8.2,0
		C17.7,26,17.9,26,18,26c0.4,0,0.7-0.2,0.9-0.6C19.1,24.9,18.9,24.3,18.4,24.1z"/>
	<path d="M43,8c-0.6,0-1,0.4-1,1v27c0,0.6-0.4,1-1,1H23V9.4c4.6-3.1,10.4-3.1,15,0V33c-3.8-2.2-8.2-2.6-12.3-1.2
		c-0.5,0.2-0.8,0.7-0.6,1.3c0.2,0.5,0.7,0.8,1.3,0.6c4.1-1.4,8.5-0.7,12.1,2c0.3,0.2,0.7,0.3,1,0.1c0.3-0.2,0.5-0.5,0.5-0.9v-26
		c0-0.3-0.2-0.6-0.4-0.8C34.1,4,26.9,4,21.4,8.1C21.2,8.2,21,8.5,21,8.9V33c-4.7-2.7-10.3-2.7-15,0V9.4c3.5-2.4,7.8-3,11.7-1.7
		c0.5,0.2,1.1-0.1,1.3-0.6S18.8,6,18.3,5.8C13.6,4.2,8.5,5,4.4,8.1C4.2,8.2,4,8.5,4,8.9v26c0,0.4,0.2,0.7,0.5,0.9
		c0.3,0.2,0.7,0.1,1-0.1c4.7-3.4,10.7-3.5,15.4-0.3V37H3c-0.6,0-1-0.4-1-1V9c0-0.6-0.4-1-1-1C0.4,8,0,8.4,0,9v27c0,1.7,1.3,3,3,3h38
		c1.7,0,3-1.3,3-3V9C44,8.4,43.6,8,43,8z"/>
</g>
</svg>
