<?xml version="1.0" encoding="utf-8"?>
<!-- Generator: Adobe Illustrator 19.2.1, SVG Export Plug-In . SVG Version: 6.00 Build 0)  -->
<svg version="1.1" id="Layer_1" xmlns="http://www.w3.org/2000/svg" xmlns:xlink="http://www.w3.org/1999/xlink" x="0px" y="0px"
	 viewBox="0 0 44 44" style="enable-background:new 0 0 44 44;" xml:space="preserve">
<g>
	<circle cx="31" cy="39" r="1"/>
	<path d="M35,0h-8c-1.7,0-3,1.3-3,3c0,0.6,0.4,1,1,1s1-0.4,1-1c0-0.6,0.4-1,1-1h8c0.6,0,1,0.4,1,1v38c0,0.6-0.4,1-1,1h-8
		c-0.6,0-1-0.4-1-1v-5h2c0.6,0,1-0.4,1-1s-0.4-1-1-1h-2v-2h4c0.6,0,1-0.4,1-1s-0.4-1-1-1h-4v-2h2c0.6,0,1-0.4,1-1s-0.4-1-1-1h-2v-2
		h4c0.6,0,1-0.4,1-1s-0.4-1-1-1h-4v-2h2c0.6,0,1-0.4,1-1s-0.4-1-1-1h-2v-2h4c0.6,0,1-0.4,1-1s-0.4-1-1-1h-4v-2h2c0.6,0,1-0.4,1-1
		s-0.4-1-1-1h-2V8h4c0.6,0,1-0.4,1-1s-0.4-1-1-1h-5c-0.6,0-1,0.4-1,1v34c0,1.7,1.3,3,3,3h8c1.7,0,3-1.3,3-3V3C38,1.3,36.7,0,35,0z"
		/>
	<path d="M9,2h6c0.6,0,1,0.4,1,1c0,0.6,0.4,1,1,1s1-0.4,1-1c0-1.7-1.3-3-3-3H9C7.3,0,6,1.3,6,3v30.3c0,1.3,0.4,2.6,1.1,3.7l4.1,6.5
		c0.2,0.3,0.5,0.5,0.8,0.5s0.7-0.2,0.8-0.5l4.1-6.5c0.7-1.1,1.1-2.4,1.1-3.7V7c0-0.6-0.4-1-1-1l-6,0c-0.6,0-1,0.4-1,1s0.4,1,1,1l5,0
		v25.3c0,0.9-0.3,1.9-0.8,2.6L12,41.1l-3.2-5.2c-0.2-0.3-0.3-0.6-0.4-0.9H14c0.6,0,1-0.4,1-1s-0.4-1-1-1H8V3C8,2.4,8.4,2,9,2z"/>
	<path d="M13,30V11c0-0.6-0.4-1-1-1s-1,0.4-1,1v19c0,0.6,0.4,1,1,1S13,30.6,13,30z"/>
</g>
</svg>
