<?xml version="1.0" encoding="utf-8"?>
<!-- Generator: Adobe Illustrator 19.2.1, SVG Export Plug-In . SVG Version: 6.00 Build 0)  -->
<svg version="1.1" id="Layer_1" xmlns="http://www.w3.org/2000/svg" xmlns:xlink="http://www.w3.org/1999/xlink" x="0px" y="0px"
	 viewBox="0 0 44 44" style="enable-background:new 0 0 44 44;" xml:space="preserve">
<g>
	<path d="M23,21c0.6,0,1-0.4,1-1V3c8.6,0.5,15.5,7.4,16,16H27c-0.6,0-1,0.4-1,1s0.4,1,1,1h14c0.6,0,1-0.4,1-1C42,9.5,33.5,1,23,1
		c-0.6,0-1,0.4-1,1v18C22,20.6,22.4,21,23,21z"/>
	<path d="M20,23.6V10c0-0.6-0.4-1-1-1s-1,0.4-1,1v14c0,0.3,0.1,0.5,0.3,0.7l12,12C27.2,39.5,23.2,41,19,41C9.6,41,2,33.4,2,24
		S9.6,7,19,7c0.6,0,1-0.4,1-1s-0.4-1-1-1C8.5,5,0,13.5,0,24s8.5,19,19,19c5.1,0,9.8-2,13.4-5.6c0.2-0.2,0.3-0.4,0.3-0.7
		s-0.1-0.5-0.3-0.7L20,23.6z"/>
	<path d="M43,23H25c-0.6,0-1,0.4-1,1s0.4,1,1,1h17c-0.2,3.8-1.7,7.4-4.3,10.3l-8-8c-0.4-0.4-1-0.4-1.4,0s-0.4,1,0,1.4l8.7,8.7
		c0.2,0.2,0.4,0.3,0.7,0.3h0c0.3,0,0.5-0.1,0.7-0.3C42,33.8,44,29.1,44,24C44,23.4,43.6,23,43,23z"/>
</g>
</svg>
