<?xml version="1.0" encoding="utf-8"?>
<!-- Generator: Adobe Illustrator 19.2.1, SVG Export Plug-In . SVG Version: 6.00 Build 0)  -->
<svg version="1.1" id="Layer_1" xmlns="http://www.w3.org/2000/svg" xmlns:xlink="http://www.w3.org/1999/xlink" x="0px" y="0px"
	 viewBox="0 0 44 44" style="enable-background:new 0 0 44 44;" xml:space="preserve">
<g>
	<circle cx="32" cy="22.5" r="2"/>
	<path d="M16,18.5h12c0.6,0,1-0.4,1-1s-0.4-1-1-1H16c-0.6,0-1,0.4-1,1S15.4,18.5,16,18.5z"/>
	<path d="M41,21.5c-0.6,0-1.1-0.3-1.4-0.9c-0.8-1.6-1.8-3.1-3.2-4.5l1.5-5.3c0.1-0.3,0-0.6-0.2-0.9c-0.2-0.2-0.5-0.4-0.8-0.4
		c-2.7-0.1-4.9,0.8-6.6,2.7c-0.8-0.3-1.7-0.6-2.6-0.9c0.7-1.1,1.1-2.4,1.1-3.8c0-3.9-3.1-7-7-7c-3.9,0-7,3.1-7,7s3.1,7,7,7
		c1.7,0,3.2-0.6,4.4-1.6c1.3,0.3,2.9,0.9,3.9,1.4c0.4,0.2,0.9,0.1,1.2-0.3c1.1-1.4,2.4-2.2,4.1-2.4l-1.3,4.6c-0.1,0.4,0,0.8,0.3,1
		c1.4,1.3,2.5,2.7,3.2,4.3c0.6,1.3,1.8,2,3.2,2c0.6,0,1,0.4,1,1v4c0,0.6-0.4,1-1,1h-1.7c-0.3,0-0.5,0.1-0.7,0.3
		c-0.5,0.6-0.9,1-1.4,1.4c-0.5,0.5-1.1,1-1.9,2c-1.5,1.7-2.3,3.9-2.3,6.3v1c0,0.6-0.4,1-1,1h-2c-0.6,0-1-0.4-1-1v-1.9
		c0-0.6-0.4-1-1-1s-1,0.4-1,1v1.9c0,1.7,1.3,3,3,3h2c1.7,0,3-1.3,3-3v-1c0-1.9,0.6-3.7,1.8-5c0.8-0.9,1.3-1.4,1.8-1.9
		c0.4-0.3,0.7-0.7,1.1-1.1H41c1.7,0,3-1.3,3-3v-4C44,22.8,42.7,21.5,41,21.5z M17,7.5c0-2.8,2.2-5,5-5s5,2.2,5,5s-2.2,5-5,5
		S17,10.3,17,7.5z"/>
	<path d="M24.3,38.4c-3,0.3-6.2,0-9-1c-0.3-0.1-0.6-0.1-0.9,0.1C14.2,37.7,14,38,14,38.3v2.2c0,0.6-0.4,1-1,1h-2c-0.6,0-1-0.4-1-1
		v-2.3c0-2.1-0.7-4.2-2.1-5.9C7.6,32,7.3,31.6,7,31.3c-0.8-0.9-1.3-1.6-1.7-2.4C5.1,28.2,5,27.5,5,26.5c0-5.3,3.6-10.1,9.4-12.5
		c0.5-0.2,0.8-0.8,0.5-1.3c-0.2-0.5-0.8-0.8-1.3-0.5c-6.1,2.5-10,7.5-10.6,13.1c-0.6-0.3-1.1-1-1.1-1.8c0-0.6-0.4-1-1-1s-1,0.4-1,1
		c0,1.9,1.3,3.4,3,3.9c0.1,0.8,0.2,1.6,0.5,2.2c0.4,1.1,1.1,1.9,2,3c0.3,0.3,0.6,0.7,0.9,1.1c1,1.3,1.6,3,1.6,4.6v2.3
		c0,1.7,1.3,3,3,3h2c1.7,0,3-1.3,3-3v-0.8c2.7,0.8,5.7,1,8.6,0.7c0.5-0.1,0.9-0.6,0.9-1.1C25.4,38.7,24.9,38.3,24.3,38.4z"/>
	<path d="M23,8.5v-3c0-0.6-0.4-1-1-1h-1c-0.6,0-1,0.4-1,1s0.4,1,1,1v2c-0.6,0-1,0.4-1,1s0.4,1,1,1h2c0.6,0,1-0.4,1-1
		S23.6,8.5,23,8.5z"/>
</g>
</svg>
