<?xml version="1.0" encoding="utf-8"?>
<!-- Generator: Adobe Illustrator 19.2.1, SVG Export Plug-In . SVG Version: 6.00 Build 0)  -->
<svg version="1.1" id="Layer_1" xmlns="http://www.w3.org/2000/svg" xmlns:xlink="http://www.w3.org/1999/xlink" x="0px" y="0px"
	 viewBox="0 0 44 44" style="enable-background:new 0 0 44 44;" xml:space="preserve">
<style type="text/css">
	.st0{fill:#231F20;}
</style>
<g>
	<path d="M41,7H3c-1.7,0-3,1.3-3,3v24c0,1.7,1.3,3,3,3h38c1.7,0,3-1.3,3-3V10C44,8.3,42.7,7,41,7z M42,34c0,0.6-0.4,1-1,1H3
		c-0.6,0-1-0.4-1-1V10c0-0.6,0.4-1,1-1h38c0.6,0,1,0.4,1,1V34z"/>
	<path d="M22,11c-0.6,0-1,0.4-1,1v20c0,0.6,0.4,1,1,1s1-0.4,1-1V12C23,11.4,22.6,11,22,11z"/>
	<path d="M39,11h-6c-0.6,0-1,0.4-1,1v3.7c-0.4,0-0.9-0.1-1.3-0.2l-1.4-0.5c-0.5-0.2-1.1,0.1-1.3,0.6c-0.2,0.5,0.1,1.1,0.6,1.3
		l1.4,0.5c0.6,0.2,1.3,0.3,1.9,0.3s1.3-0.1,1.9-0.3l1.4-0.5c0.5-0.2,0.8-0.7,0.6-1.3c-0.2-0.5-0.7-0.8-1.3-0.6L34,15.3V13h4v6
		c-0.6,0-1,0.4-1,1s0.4,1,1,1h1c0.6,0,1-0.4,1-1v-8C40,11.4,39.6,11,39,11z"/>
	<path d="M17,21H5c-0.6,0-1,0.4-1,1s0.4,1,1,1h12c0.6,0,1-0.4,1-1S17.6,21,17,21z"/>
	<path d="M15,29H5c-0.6,0-1,0.4-1,1s0.4,1,1,1h10c0.6,0,1-0.4,1-1S15.6,29,15,29z"/>
	<path d="M5,27h8c0.6,0,1-0.4,1-1s-0.4-1-1-1H5c-0.6,0-1,0.4-1,1S4.4,27,5,27z"/>
	<path d="M34.7,18.1l-1.4,0.5c-0.8,0.3-1.7,0.3-2.5,0l-1.4-0.5c-0.5-0.2-1.1,0.1-1.3,0.6c-0.2,0.5,0.1,1.1,0.6,1.3l1.4,0.5
		c0.6,0.2,1.3,0.3,1.9,0.3s1.3-0.1,1.9-0.3l1.4-0.5c0.5-0.2,0.8-0.7,0.6-1.3C35.8,18.2,35.2,17.9,34.7,18.1z"/>
</g>
</svg>
