<?xml version="1.0" encoding="utf-8"?>
<!-- Generator: Adobe Illustrator 21.1.0, SVG Export Plug-In . SVG Version: 6.00 Build 0)  -->
<svg version="1.1" id="Layer_1" xmlns="http://www.w3.org/2000/svg" xmlns:xlink="http://www.w3.org/1999/xlink" x="0px" y="0px"
	 viewBox="0 0 44 44" style="enable-background:new 0 0 44 44;" xml:space="preserve">
<g>
	<circle cx="24" cy="30" r="1"/>
	<circle cx="7" cy="36" r="1"/>
	<path d="M41,4H7C5.3,4,4,5.3,4,7v10c0,0.6,0.4,1,1,1s1-0.4,1-1V7c0-0.6,0.4-1,1-1h34c0.6,0,1,0.4,1,1v24c0,0.6-0.4,1-1,1H17
		c-0.6,0-1,0.4-1,1s0.4,1,1,1h2v3c0,0.6-0.4,1-1,1h-1c-0.6,0-1,0.4-1,1s0.4,1,1,1h14c0.6,0,1-0.4,1-1s-0.4-1-1-1h-1
		c-0.6,0-1-0.4-1-1v-3h12c1.7,0,3-1.3,3-3V7C44,5.3,42.7,4,41,4z M27,37c0,0.4,0.1,0.7,0.2,1h-6.4c0.1-0.3,0.2-0.6,0.2-1v-3h6V37z"
		/>
	<path d="M40,27c0-0.6-0.4-1-1-1H17c-0.6,0-1,0.4-1,1s0.4,1,1,1h22C39.6,28,40,27.6,40,27z"/>
	<path d="M11,20H3c-1.7,0-3,1.3-3,3v14c0,1.7,1.3,3,3,3h8c1.7,0,3-1.3,3-3V23C14,21.3,12.7,20,11,20z M12,37c0,0.6-0.4,1-1,1H3
		c-0.6,0-1-0.4-1-1V23c0-0.6,0.4-1,1-1h8c0.6,0,1,0.4,1,1V37z"/>
</g>
</svg>
