<?xml version="1.0" encoding="utf-8"?>
<!-- Generator: Adobe Illustrator 19.2.1, SVG Export Plug-In . SVG Version: 6.00 Build 0)  -->
<svg version="1.1" id="Layer_1" xmlns="http://www.w3.org/2000/svg" xmlns:xlink="http://www.w3.org/1999/xlink" x="0px" y="0px"
	 viewBox="0 0 44 44" style="enable-background:new 0 0 44 44;" xml:space="preserve">
<g>
	<path d="M41,2H3C1.3,2,0,3.3,0,5v34c0,1.7,1.3,3,3,3h38c1.7,0,3-1.3,3-3V5C44,3.3,42.7,2,41,2z M42,39c0,0.6-0.4,1-1,1H3
		c-0.6,0-1-0.4-1-1V5c0-0.6,0.4-1,1-1h38c0.6,0,1,0.4,1,1V39z"/>
	<path d="M39,6H6C5.4,6,5,6.4,5,7v3H4c-0.6,0-1,0.4-1,1v6c0,0.6,0.4,1,1,1h3c0.6,0,1-0.4,1-1v-6c0-0.6-0.4-1-1-1V8h31v28H7v0
		c0-0.6-0.4-1-1-1s-1,0.4-1,1v1c0,0.6,0.4,1,1,1h33c0.6,0,1-0.4,1-1V7C40,6.4,39.6,6,39,6z M6,16H5v-4h1c0,0,0,0,0,0V16z"/>
	<path d="M8,32v-6c0-0.6-0.4-1-1-1v-4c0-0.6-0.4-1-1-1s-1,0.4-1,1v4H4c-0.6,0-1,0.4-1,1v6c0,0.6,0.4,1,1,1h3C7.6,33,8,32.6,8,32z
		 M6,31H5v-4h1V31z"/>
	<path d="M15.3,29.7c0.2,0.2,0.5,0.3,0.7,0.3s0.5-0.1,0.7-0.3l3.5-3.5C21,26.7,22,27,23,27s2-0.3,2.8-0.8l3.5,3.5
		c0.2,0.2,0.5,0.3,0.7,0.3s0.5-0.1,0.7-0.3c0.4-0.4,0.4-1,0-1.4l-3.5-3.5C27.7,24,28,23,28,22s-0.3-2-0.8-2.8l3.5-3.5
		c0.4-0.4,0.4-1,0-1.4s-1-0.4-1.4,0l-3.5,3.5C25,17.3,24,17,23,17s-2,0.3-2.8,0.8l-3.5-3.5c-0.4-0.4-1-0.4-1.4,0s-0.4,1,0,1.4
		l3.5,3.5C18.3,20,18,21,18,22s0.3,2,0.8,2.8l-3.5,3.5C14.9,28.7,14.9,29.3,15.3,29.7z M20.1,21.3C20.1,21.3,20.1,21.3,20.1,21.3
		c0.3-1.1,1.1-2,2.2-2.2c0,0,0,0,0,0c0.2,0,0.4-0.1,0.7-0.1s0.5,0,0.7,0.1c0,0,0,0,0,0c1.1,0.3,2,1.1,2.2,2.2c0,0,0,0,0,0
		c0,0.2,0.1,0.4,0.1,0.7s0,0.5-0.1,0.7c0,0,0,0,0,0c-0.3,1.1-1.1,2-2.2,2.2c0,0,0,0,0,0C23.5,25,23.2,25,23,25s-0.5,0-0.7-0.1
		c0,0,0,0,0,0c-1.1-0.3-2-1.1-2.2-2.2c0,0,0,0,0,0c0-0.2-0.1-0.4-0.1-0.7S20,21.5,20.1,21.3z"/>
	<circle cx="23" cy="22" r="1"/>
</g>
</svg>
