<?xml version="1.0" encoding="utf-8"?>
<!-- Generator: Adobe Illustrator 21.1.0, SVG Export Plug-In . SVG Version: 6.00 Build 0)  -->
<svg version="1.1" id="Layer_1" xmlns="http://www.w3.org/2000/svg" xmlns:xlink="http://www.w3.org/1999/xlink" x="0px" y="0px"
	 viewBox="0 0 44 44" style="enable-background:new 0 0 44 44;" xml:space="preserve">
<path d="M42,23h-6c-0.6,0-1,0.4-1,1s0.4,1,1,1h5c0,2.2-1.8,4-4,4s-4-1.8-4-4v-0.8l4-10.4l2.5,6.6c0.2,0.5,0.8,0.8,1.3,0.6
	c0.5-0.2,0.8-0.8,0.6-1.3L38.8,13H40c0.6,0,1-0.4,1-1s-0.4-1-1-1h-1.6c-0.1,0-0.3,0-0.4,0l-0.1-0.3C37.8,10.3,37.4,10,37,10
	s-0.8,0.3-0.9,0.6l0,0.1c-1.2-0.3-2.4-0.7-3.5-1.3c-2.3-1.4-5-1.7-7.5-1c-0.2-0.2-0.4-0.4-0.7-0.6L24,1.9C24,0.9,23.1,0,22,0
	s-2,0.9-2,1.9l-0.3,5.8C19.4,8,19.2,8.2,19,8.4c-2.5-0.7-5.3-0.4-7.5,1C10.4,10,9.2,10.5,8,10.7l0-0.1C7.8,10.3,7.4,10,7,10
	s-0.8,0.3-0.9,0.6L5.9,11c-0.1,0-0.3,0-0.4,0H4c-0.6,0-1,0.4-1,1s0.4,1,1,1h1.2L1.1,23.6C1,23.8,1,23.9,1,24v1c0,3.3,2.7,6,6,6
	s6-2.7,6-6v-1c0-0.6-0.4-1-1-1H6c-0.6,0-1,0.4-1,1s0.4,1,1,1h5c0,2.2-1.8,4-4,4s-4-1.8-4-4v-0.8l4-10.4l2.5,6.6
	c0.2,0.5,0.8,0.8,1.3,0.6c0.5-0.2,0.8-0.8,0.6-1.3l-2.7-7c1.3-0.3,2.6-0.8,3.8-1.5c1.7-1,3.7-1.3,5.6-0.9c0,0.2-0.1,0.5-0.1,0.8
	c0,1.2,0.5,2.2,1.3,2.9l-1.2,23.3c-0.7,0.3-2.1,1-4.6,2.5C12.6,40.1,12,41.1,12,42h-2c-0.6,0-1,0.4-1,1s0.4,1,1,1h4h16h4
	c0.6,0,1-0.4,1-1s-0.4-1-1-1h-2c0-0.9-0.6-1.9-1.5-2.3c-2.6-1.5-3.9-2.1-4.6-2.5l-1-19.3c0-0.6-0.5-1-1.1-0.9c-0.6,0-1,0.5-0.9,1.1
	l1.1,20c0,0.5,0.4,0.9,0.9,0.9c0.5,0.2,2.8,1.4,4.7,2.5c0,0,0.1,0,0.1,0.1c0.1,0.1,0.3,0.3,0.3,0.5H14c0-0.1,0.2-0.4,0.3-0.5
	c0,0,0.1,0,0.1-0.1c1.9-1.1,4.1-2.3,4.7-2.5c0.5,0,0.9-0.4,0.9-0.9l1.2-23.1c0.2,0,0.5,0.1,0.7,0.1c2.2,0,4-1.8,4-4
	c0-0.3,0-0.5-0.1-0.8c1.9-0.4,3.9-0.2,5.6,0.9c1.2,0.7,2.4,1.2,3.8,1.5l-4.2,11c0,0.1-0.1,0.2-0.1,0.4v1c0,3.3,2.7,6,6,6s6-2.7,6-6
	v-1C43,23.4,42.6,23,42,23z M21.9,2.1C21.9,2.1,22,2.1,21.9,2.1c0,0,0.1,0,0.1,0l0.3,5c-0.1,0-0.2,0-0.3,0s-0.2,0-0.3,0L21.9,2.1z
	 M22,13c-1.1,0-2-0.9-2-2s0.9-2,2-2s2,0.9,2,2S23.1,13,22,13z"/>
</svg>
