<?xml version="1.0" encoding="utf-8"?>
<!-- Generator: Adobe Illustrator 21.1.0, SVG Export Plug-In . SVG Version: 6.00 Build 0)  -->
<svg version="1.1" id="Layer_1" xmlns="http://www.w3.org/2000/svg" xmlns:xlink="http://www.w3.org/1999/xlink" x="0px" y="0px"
	 viewBox="0 0 44 44" style="enable-background:new 0 0 44 44;" xml:space="preserve">
<g>
	<path d="M42.6,36.2L31.4,25.9c-0.8-0.7-2-0.7-2.8,0.1L28,26.6l-1.7-1.7c2.4-2.7,3.7-6.2,3.7-9.9c0-8.3-6.7-15-15-15S0,6.7,0,15
		s6.7,15,15,15c2.6,0,5.2-0.7,7.5-2c0.5-0.3,0.6-0.9,0.4-1.4c-0.3-0.5-0.9-0.6-1.4-0.4c-2,1.1-4.2,1.7-6.5,1.7C7.8,28,2,22.2,2,15
		S7.8,2,15,2s13,5.8,13,13c0,3.4-1.3,6.7-3.7,9.1c-0.2,0.2-0.3,0.4-0.3,0.7V25c0,0.3,0.1,0.5,0.3,0.7l2.3,2.3L26,28.6
		c-0.8,0.8-0.8,2-0.1,2.8l10.3,11.2c0.8,0.9,2,1.4,3.3,1.4c2.5,0,4.5-2,4.5-4.5C44,38.3,43.5,37.1,42.6,36.2z M39.5,42
		c-0.7,0-1.4-0.3-1.8-0.8L27.4,30l2.6-2.6l11.2,10.3c0.5,0.5,0.8,1.1,0.8,1.8C42,40.9,40.9,42,39.5,42z"/>
	<path d="M15,4C8.9,4,4,8.9,4,15s4.9,11,11,11s11-4.9,11-11S21.1,4,15,4z M15,24c-5,0-9-4-9-9s4-9,9-9s9,4,9,9S20,24,15,24z"/>
</g>
</svg>
