<?xml version="1.0" encoding="utf-8"?>
<!-- Generator: Adobe Illustrator 19.2.1, SVG Export Plug-In . SVG Version: 6.00 Build 0)  -->
<svg version="1.1" id="Layer_1" xmlns="http://www.w3.org/2000/svg" xmlns:xlink="http://www.w3.org/1999/xlink" x="0px" y="0px"
	 viewBox="0 0 44 44" style="enable-background:new 0 0 44 44;" xml:space="preserve">
<style type="text/css">
	.st0{fill:#231F20;}
</style>
<g>
	<path d="M16,27c0-0.6-0.4-1-1-1H7c-0.6,0-1,0.4-1,1s0.4,1,1,1h8C15.6,28,16,27.6,16,27z"/>
	<path d="M13,22c0-0.6-0.4-1-1-1H4c-0.6,0-1,0.4-1,1s0.4,1,1,1h8C12.6,23,13,22.6,13,22z"/>
	<path d="M10,17c0-0.6-0.4-1-1-1H1c-0.6,0-1,0.4-1,1s0.4,1,1,1h8C9.6,18,10,17.6,10,17z"/>
	<path d="M38.4,13.2l-10.6,8.1c-1.1,0.8-2.6,0.8-3.7,0l-10.6-8.1c-0.4-0.3-1.1-0.3-1.4,0.2c-0.3,0.4-0.3,1.1,0.2,1.4L23,22.9
		c0.9,0.7,2,1,3,1s2.2-0.3,3-1l10.6-8.1c0.4-0.3,0.5-1,0.2-1.4C39.5,13,38.8,12.9,38.4,13.2z"/>
	<path d="M41,9H9c-0.6,0-1,0.4-1,1s0.4,1,1,1h32c0.6,0,1,0.4,1,1v20c0,0.6-0.4,1-1,1H9c-0.6,0-1,0.4-1,1s0.4,1,1,1h32
		c1.7,0,3-1.3,3-3V12C44,10.3,42.7,9,41,9z"/>
	<path d="M32.3,23.3c-0.4,0.4-0.4,1,0,1.4l6,6c0.2,0.2,0.5,0.3,0.7,0.3s0.5-0.1,0.7-0.3c0.4-0.4,0.4-1,0-1.4l-6-6
		C33.3,22.9,32.7,22.9,32.3,23.3z"/>
</g>
</svg>
