<?xml version="1.0" encoding="utf-8"?>
<!-- Generator: Adobe Illustrator 21.1.0, SVG Export Plug-In . SVG Version: 6.00 Build 0)  -->
<svg version="1.1" id="Layer_1" xmlns="http://www.w3.org/2000/svg" xmlns:xlink="http://www.w3.org/1999/xlink" x="0px" y="0px"
	 viewBox="0 0 44 44" style="enable-background:new 0 0 44 44;" xml:space="preserve">
<g>
	<circle cx="9" cy="6" r="1"/>
	<circle cx="13" cy="6" r="1"/>
	<path d="M34,40h-6.2c-0.4-1.2-1.5-2-2.8-2h-2v-3c0-0.6-0.4-1-1-1s-1,0.4-1,1v3h-2c-1.3,0-2.4,0.8-2.8,2H10c-0.6,0-1,0.4-1,1
		s0.4,1,1,1h6.2c0.4,1.2,1.5,2,2.8,2h6c1.3,0,2.4-0.8,2.8-2H34c0.6,0,1-0.4,1-1S34.6,40,34,40z M25,42h-6c-0.6,0-1-0.4-1-1
		s0.4-1,1-1h6c0.6,0,1,0.4,1,1S25.6,42,25,42z"/>
	<circle cx="9" cy="26" r="1"/>
	<circle cx="13" cy="26" r="1"/>
	<circle cx="9" cy="16" r="1"/>
	<circle cx="13" cy="16" r="1"/>
	<path d="M40,8c0.6,0,1-0.4,1-1V3c0-1.7-1.3-3-3-3L6,0C4.3,0,3,1.3,3,3v8v0v6c0,0.6,0.4,1,1,1s1-0.4,1-1v-5l34,0v8L4,20
		c-0.6,0-1,0.4-1,1v8c0,1.7,1.3,3,3,3l32,0c1.7,0,3-1.3,3-3v-4c0-0.6-0.4-1-1-1s-1,0.4-1,1v4c0,0.6-0.4,1-1,1L6,30c-0.6,0-1-0.4-1-1
		v-7l35,0c0.6,0,1-0.4,1-1V11c0-0.3-0.1-0.5-0.3-0.7S40.3,10,40,10L5,10V3c0-0.6,0.4-1,1-1l32,0c0.6,0,1,0.4,1,1v4
		C39,7.6,39.4,8,40,8z"/>
	<path d="M19,25v2c0,0.6,0.4,1,1,1s1-0.4,1-1v-2c0-0.6-0.4-1-1-1S19,24.4,19,25z"/>
	<path d="M22,25v2c0,0.6,0.4,1,1,1s1-0.4,1-1v-2c0-0.6-0.4-1-1-1S22,24.4,22,25z"/>
	<path d="M25,25v2c0,0.6,0.4,1,1,1s1-0.4,1-1v-2c0-0.6-0.4-1-1-1S25,24.4,25,25z"/>
	<path d="M28,25v2c0,0.6,0.4,1,1,1s1-0.4,1-1v-2c0-0.6-0.4-1-1-1S28,24.4,28,25z"/>
	<path d="M31,25v2c0,0.6,0.4,1,1,1s1-0.4,1-1v-2c0-0.6-0.4-1-1-1S31,24.4,31,25z"/>
	<path d="M34,25v2c0,0.6,0.4,1,1,1s1-0.4,1-1v-2c0-0.6-0.4-1-1-1S34,24.4,34,25z"/>
	<path d="M21,17v-2c0-0.6-0.4-1-1-1s-1,0.4-1,1v2c0,0.6,0.4,1,1,1S21,17.6,21,17z"/>
	<path d="M24,17v-2c0-0.6-0.4-1-1-1s-1,0.4-1,1v2c0,0.6,0.4,1,1,1S24,17.6,24,17z"/>
	<path d="M27,17v-2c0-0.6-0.4-1-1-1s-1,0.4-1,1v2c0,0.6,0.4,1,1,1S27,17.6,27,17z"/>
	<path d="M30,17v-2c0-0.6-0.4-1-1-1s-1,0.4-1,1v2c0,0.6,0.4,1,1,1S30,17.6,30,17z"/>
	<path d="M33,17v-2c0-0.6-0.4-1-1-1s-1,0.4-1,1v2c0,0.6,0.4,1,1,1S33,17.6,33,17z"/>
	<path d="M36,17v-2c0-0.6-0.4-1-1-1s-1,0.4-1,1v2c0,0.6,0.4,1,1,1S36,17.6,36,17z"/>
	<path d="M19,5v2c0,0.6,0.4,1,1,1s1-0.4,1-1V5c0-0.6-0.4-1-1-1S19,4.4,19,5z"/>
	<path d="M22,5v2c0,0.6,0.4,1,1,1s1-0.4,1-1V5c0-0.6-0.4-1-1-1S22,4.4,22,5z"/>
	<path d="M25,5v2c0,0.6,0.4,1,1,1s1-0.4,1-1V5c0-0.6-0.4-1-1-1S25,4.4,25,5z"/>
	<path d="M28,5v2c0,0.6,0.4,1,1,1s1-0.4,1-1V5c0-0.6-0.4-1-1-1S28,4.4,28,5z"/>
	<path d="M31,5v2c0,0.6,0.4,1,1,1s1-0.4,1-1V5c0-0.6-0.4-1-1-1S31,4.4,31,5z"/>
	<path d="M34,5v2c0,0.6,0.4,1,1,1s1-0.4,1-1V5c0-0.6-0.4-1-1-1S34,4.4,34,5z"/>
</g>
</svg>
