<?xml version="1.0" encoding="utf-8"?>
<!-- Generator: Adobe Illustrator 21.1.0, SVG Export Plug-In . SVG Version: 6.00 Build 0)  -->
<svg version="1.1" id="Layer_1" xmlns="http://www.w3.org/2000/svg" xmlns:xlink="http://www.w3.org/1999/xlink" x="0px" y="0px"
	 viewBox="0 0 44 44" style="enable-background:new 0 0 44 44;" xml:space="preserve">
<g>
	<circle cx="22" cy="23" r="1"/>
	<path d="M25,16c0.6,0,1-0.4,1-1v-1c0-2.2-1.8-4-4-4s-4,1.8-4,4v4h-1c-0.6,0-1,0.4-1,1v8c0,0.6,0.4,1,1,1h10c0.6,0,1-0.4,1-1v-8
		c0-0.6-0.4-1-1-1h-4c-0.6,0-1,0.4-1,1s0.4,1,1,1h3v6h-8v-6h1c0,0,0,0,0,0s0,0,0,0c0.6,0,1-0.4,1-1v-5c0-1.1,0.9-2,2-2s2,0.9,2,2v1
		C24,15.6,24.4,16,25,16z"/>
	<path d="M39.3,3l-4.3-1.2C30.7,0.6,26.4,0,22,0c-4.2,0-8.3,0.6-12.3,1.7L4.7,3C4.3,3.2,4,3.5,4,4v26.3c0,1.7,0.9,3.3,2.4,4.3
		l15.1,9.3C21.6,44,21.8,44,22,44s0.4,0,0.5-0.1l15.1-9.3c1.5-0.9,2.4-2.5,2.4-4.3V4C40,3.6,39.7,3.2,39.3,3z M38,30.3
		c0,1-0.5,2-1.4,2.6l-14.6,9l-14.6-9C6.5,32.3,6,31.3,6,30.3V4.8l4.2-1.2c7.9-2.2,16.3-2.1,24.2,0.1l3.6,1V30.3z"/>
	<path d="M10.7,5.5l-2,0.5C8.3,6.2,8,6.6,8,7v23.2c0,0.3,0.2,0.7,0.5,0.9l12.5,7.7c0.3,0.2,0.7,0.3,1.1,0.3c0.4,0,0.7-0.1,1.1-0.3
		l12.5-7.7c0.3-0.2,0.5-0.5,0.5-0.9V11c0-0.6-0.4-1-1-1s-1,0.4-1,1v18.7l-12,7.4l-12-7.4V7.8l1.3-0.3c7.2-2,14.9-1.9,22,0.1L34.7,8
		c0.5,0.1,1.1-0.2,1.2-0.7c0.2-0.5-0.2-1.1-0.7-1.2l-1.4-0.4C26.3,3.5,18.3,3.5,10.7,5.5z"/>
</g>
</svg>
