<?xml version="1.0" encoding="utf-8"?>
<!-- Generator: Adobe Illustrator 21.1.0, SVG Export Plug-In . SVG Version: 6.00 Build 0)  -->
<svg version="1.1" xmlns="http://www.w3.org/2000/svg" xmlns:xlink="http://www.w3.org/1999/xlink" x="0px" y="0px"
	 viewBox="0 0 44 44" style="enable-background:new 0 0 44 44;" xml:space="preserve">
<g id="launch">
</g>
<g id="bulb">
</g>
<g id="megaphone">
</g>
<g id="reward">
</g>
<g id="scales">
</g>
<g id="bishop">
</g>
<g id="billboard">
</g>
<g id="billboard_x5F_small">
</g>
<g id="strategy">
	<g>
		<path d="M36,16c0-1.7-1.3-3-3-3s-3,1.3-3,3s1.3,3,3,3S36,17.7,36,16z M32,16c0-0.6,0.4-1,1-1s1,0.4,1,1s-0.4,1-1,1S32,16.6,32,16z
			"/>
		<path d="M40,2H23V1c0-0.6-0.4-1-1-1s-1,0.4-1,1v1H4C2.3,2,1,3.3,1,5s1.3,3,3,3h32c0.6,0,1-0.4,1-1s-0.4-1-1-1H4C3.4,6,3,5.6,3,5
			s0.4-1,1-1h36c0.6,0,1,0.4,1,1s-0.4,1-1,1c-0.6,0-1,0.4-1,1v22c0,0.6-0.4,1-1,1H6c-0.6,0-1-0.4-1-1V11c0-0.6-0.4-1-1-1s-1,0.4-1,1
			v18c0,1.7,1.3,3,3,3h15v7.1c-0.9,0.2-1.6,0.7-2.2,1.4c-0.7,0.9-1.7,1.4-2.7,1.4H16c-0.6,0-1,0.4-1,1s0.4,1,1,1h0.2
			c1.6,0,3.1-0.8,4.2-2.2c0.8-1,2.4-1,3.2,0c1.1,1.4,2.6,2.2,4.2,2.2H28c0.6,0,1-0.4,1-1s-0.4-1-1-1h-0.2c-1,0-1.9-0.5-2.7-1.4
			c-0.6-0.7-1.3-1.2-2.2-1.4V32h15c1.7,0,3-1.3,3-3V7.8c1.2-0.4,2-1.5,2-2.8C43,3.3,41.7,2,40,2z"/>
		<path d="M14,20v3.3c-0.6,0.3-1,1-1,1.7c0,1.1,0.9,2,2,2s2-0.9,2-2c0-0.7-0.4-1.4-1-1.7V20c0-1.7,1.3-3,3-3h5.6l-0.3,0.3
			c-0.4,0.4-0.4,1,0,1.4c0.2,0.2,0.5,0.3,0.7,0.3s0.5-0.1,0.7-0.3l2-2c0.4-0.4,0.4-1,0-1.4l-2-2c-0.4-0.4-1-0.4-1.4,0s-0.4,1,0,1.4
			l0.3,0.3H19C16.2,15,14,17.2,14,20z"/>
		<path d="M27.7,22.3c-0.4-0.4-1-0.4-1.4,0l-0.8,0.8l-0.8-0.8c-0.4-0.4-1-0.4-1.4,0s-0.4,1,0,1.4l0.8,0.8l-0.8,0.8
			c-0.4,0.4-0.4,1,0,1.4c0.2,0.2,0.5,0.3,0.7,0.3s0.5-0.1,0.7-0.3l0.8-0.8l0.8,0.8c0.2,0.2,0.5,0.3,0.7,0.3s0.5-0.1,0.7-0.3
			c0.4-0.4,0.4-1,0-1.4l-0.8-0.8l0.8-0.8C28.1,23.3,28.1,22.7,27.7,22.3z"/>
		<path d="M8.3,14.7C8.5,14.9,8.7,15,9,15s0.5-0.1,0.7-0.3l0.8-0.8l0.8,0.8c0.2,0.2,0.5,0.3,0.7,0.3s0.5-0.1,0.7-0.3
			c0.4-0.4,0.4-1,0-1.4l-0.8-0.8l0.8-0.8c0.4-0.4,0.4-1,0-1.4s-1-0.4-1.4,0l-0.8,0.8l-0.8-0.8c-0.4-0.4-1-0.4-1.4,0s-0.4,1,0,1.4
			l0.8,0.8l-0.8,0.8C7.9,13.7,7.9,14.3,8.3,14.7z"/>
	</g>
</g>
<g id="advertising">
</g>
<g id="queen">
</g>
<g id="mobile_x5F_shop">
</g>
<g id="web_x5F_shop">
</g>
<g id="target">
</g>
<g id="mobile_x5F_marketing_1_">
</g>
<g id="mobile_x5F__campaign">
</g>
<g id="success">
</g>
<g id="ppk">
</g>
<g id="pawn">
</g>
<g id="audience">
</g>
</svg>
