<?xml version="1.0" encoding="iso-8859-1"?>
<!-- Generator: Adobe Illustrator 20.0.0, SVG Export Plug-In . SVG Version: 6.00 Build 0)  -->
<svg version="1.1" xmlns="http://www.w3.org/2000/svg" xmlns:xlink="http://www.w3.org/1999/xlink" x="0px" y="0px"
	 viewBox="0 0 44 44" style="enable-background:new 0 0 44 44;" xml:space="preserve">
<g id="Layer_21">
</g>
<g id="Layer_20">
</g>
<g id="Layer_19">
</g>
<g id="Layer_18">
</g>
<g id="Layer_17">
</g>
<g id="Layer_16">
</g>
<g id="Layer_15">
</g>
<g id="Layer_14">
</g>
<g id="Layer_13">
</g>
<g id="Layer_12">
</g>
<g id="Layer_11">
</g>
<g id="Layer_10">
</g>
<g id="Layer_9">
</g>
<g id="Layer_8">
</g>
<g id="Layer_7">
</g>
<g id="Layer_6">
</g>
<g id="Layer_5">
</g>
<g id="Layer_4">
</g>
<g id="Layer_3">
</g>
<g id="Layer_2">
	<g>
		<path d="M35.895,29.419l-7.716-1.402c-0.29-0.058-0.591,0.026-0.819,0.215l-4.078,3.399c-0.742,0.617-1.82,0.617-2.562,0
			c-0.026-0.021-0.053-0.042-0.081-0.061l-2.079-1.399c-0.459-0.311-1.08-0.188-1.388,0.271c-0.309,0.458-0.188,1.08,0.271,1.388
			l2.04,1.373c0.457,0.37,0.978,0.611,1.519,0.751V39c0,0.553,0.447,1,1,1s1-0.447,1-1v-5.047c0.558-0.144,1.094-0.396,1.562-0.785
			l3.72-3.101l7.255,1.318C36.964,31.646,38,32.888,38,34.338V41c0,0.552-0.448,1-1,1H7c-0.552,0-1-0.448-1-1v-6.662
			c0-1.45,1.036-2.691,2.463-2.952l7.716-1.402c0.544-0.099,0.904-0.619,0.805-1.162c-0.098-0.544-0.62-0.908-1.162-0.805
			l-7.717,1.402C5.727,29.853,4,31.921,4,34.338V41c0,1.654,1.346,3,3,3h30c1.654,0,3-1.346,3-3v-6.662
			C40,31.921,38.273,29.853,35.895,29.419z"/>
		<circle cx="19" cy="13" r="1"/>
		<circle cx="25" cy="13" r="1"/>
		<path d="M12,17h0.643c0.073,0.487,0.124,0.806,0.13,0.844c0.189,1.675,0.859,3.256,1.939,4.573l0.214,0.261
			C16.657,24.789,19.235,26,22,26c1.542,0,3.068-0.388,4.413-1.122c0.484-0.265,0.663-0.872,0.398-1.357
			c-0.265-0.483-0.871-0.663-1.357-0.398C24.402,23.696,23.208,24,22,24c-2.163,0-4.178-0.944-5.527-2.591l-0.214-0.261
			c-0.834-1.018-1.353-2.238-1.505-3.575C14.746,17.526,14,12.836,14,11v-1V8c0-3.309,2.691-6,6-6h4c3.291,0,5.972,2.664,6,5.948
			c-1.657-0.172-3.183-0.771-4.373-1.728c0.004,0.009,0.005,0.013,0.009,0.022c-0.319-0.268-0.777-0.326-1.152-0.099
			c-2.097,1.266-4.734,2.157-7.627,2.58c-0.546,0.079-0.925,0.587-0.845,1.134c0.072,0.497,0.5,0.855,0.988,0.855
			c0.048,0,0.097-0.003,0.146-0.011c2.896-0.422,5.552-1.305,7.768-2.528C26.363,9.176,28.121,9.793,30,9.955V11
			c0,1.836-0.746,6.526-0.761,6.619c-0.053,0.472-0.174,0.931-0.326,1.381h-4.005c-0.207-0.581-0.757-1-1.408-1h-3
			c-0.827,0-1.5,0.673-1.5,1.5s0.673,1.5,1.5,1.5H22h1.5H31c1.654,0,3-1.346,3-3v-1.78c0.609-0.549,1-1.337,1-2.22v-2
			c0-1.654-1.346-3-3-3V8c0-4.411-3.589-8-8-8h-4c-4.411,0-8,3.589-8,8v1c-1.654,0-3,1.346-3,3v2C9,15.654,10.346,17,12,17z M32,11
			c0.552,0,1,0.448,1,1v2c0,0.552-0.448,1-1,1V11z M31.221,17.89c0.008-0.05,0.062-0.385,0.137-0.89H32v1
			c0,0.549-0.445,0.995-0.994,0.999C31.1,18.628,31.18,18.257,31.221,17.89z M11,12c0-0.552,0.448-1,1-1v4c-0.552,0-1-0.448-1-1V12z
			"/>
	</g>
</g>
</svg>
