<?xml version="1.0" encoding="iso-8859-1"?>
<!-- Generator: Adobe Illustrator 20.0.0, SVG Export Plug-In . SVG Version: 6.00 Build 0)  -->
<svg version="1.1" xmlns="http://www.w3.org/2000/svg" xmlns:xlink="http://www.w3.org/1999/xlink" x="0px" y="0px"
	 viewBox="0 0 44 44" style="enable-background:new 0 0 44 44;" xml:space="preserve">
<g id="Layer_21">
</g>
<g id="Layer_20">
</g>
<g id="Layer_19">
</g>
<g id="Layer_18">
</g>
<g id="Layer_17">
</g>
<g id="Layer_16">
</g>
<g id="Layer_15">
</g>
<g id="Layer_14">
</g>
<g id="Layer_13">
</g>
<g id="Layer_12">
</g>
<g id="Layer_11">
</g>
<g id="Layer_10">
</g>
<g id="Layer_9">
</g>
<g id="Layer_8">
</g>
<g id="Layer_7">
</g>
<g id="Layer_6">
</g>
<g id="Layer_5">
	<g>
		<circle cx="22" cy="28" r="1"/>
		<circle cx="26" cy="28" r="1"/>
		<circle cx="18" cy="28" r="1"/>
		<path d="M32.261,10.674C32.458,10.89,32.729,11,33,11c0.24,0,0.481-0.086,0.674-0.261c0.408-0.372,0.438-1.005,0.065-1.413
			C30.609,5.892,26.44,4,22,4s-8.609,1.892-11.739,5.326c-0.372,0.408-0.342,1.041,0.066,1.413c0.408,0.373,1.041,0.341,1.413-0.065
			C14.485,7.659,18.13,6,22,6S29.515,7.659,32.261,10.674z"/>
		<path d="M43.707,24.293L42,22.586V22v-2C42,8.972,33.028,0,22,0C10.972,0,2,8.972,2,20l0,2.318l-1.707,1.707
			C0.106,24.213,0,24.467,0,24.732L0,31c0,0.266,0.105,0.52,0.293,0.707L2,33.414V34c0,0.553,0.448,1,1,1h3c1.654,0,3-1.346,3-3
			l0-8.268c0-1.067-0.575-2.063-1.5-2.599C7.022,20.857,6.41,21.021,6.134,21.5c-0.276,0.478-0.113,1.09,0.365,1.366
			C6.809,23.044,7,23.376,7,23.732L7,32c0,0.552-0.449,1-1,1H4c0-0.266-0.105-0.52-0.293-0.707L2,30.586l0-5.439l1.707-1.707
			C3.895,23.252,4,22.998,4,22.732L4,20c0-9.925,8.075-18,18-18c9.925,0,18,8.075,18,18v1h-2c-1.654,0-3,1.346-3,3v8
			c0,1.065,0.573,2.061,1.497,2.597c0.475,0.277,1.088,0.117,1.366-0.362c0.278-0.478,0.115-1.089-0.362-1.366
			C37.192,32.688,37,32.355,37,32v-8c0-0.552,0.448-1,1-1h2c0,0.266,0.105,0.52,0.293,0.707L42,25.414v5.172l-1.707,1.707
			C40.105,32.48,40,32.734,40,33v4c0,1.654-1.346,3-3,3h-9.184c-0.414-1.161-1.514-2-2.816-2h-6c-1.654,0-3,1.346-3,3s1.346,3,3,3h6
			c1.302,0,2.402-0.839,2.816-2H37c2.757,0,5-2.243,5-5v-3.586l1.707-1.707C43.895,31.52,44,31.266,44,31v-6
			C44,24.734,43.895,24.48,43.707,24.293z M25,42h-6c-0.552,0-1-0.448-1-1s0.448-1,1-1h6c0.552,0,1,0.448,1,1S25.552,42,25,42z"/>
		<path d="M18.697,34l2.748,1.832C21.613,35.944,21.807,36,22,36s0.387-0.056,0.555-0.168L25.303,34H28c1.654,0,3-1.346,3-3v-6
			c0-1.654-1.346-3-3-3H16c-1.654,0-3,1.346-3,3v6c0,1.654,1.346,3,3,3H18.697z M15,31v-6c0-0.552,0.448-1,1-1h12
			c0.552,0,1,0.448,1,1v6c0,0.552-0.448,1-1,1h-3c-0.197,0-0.391,0.059-0.555,0.168L22,33.798l-2.445-1.63
			C19.391,32.059,19.197,32,19,32h-3C15.448,32,15,31.552,15,31z"/>
	</g>
</g>
<g id="Layer_4">
</g>
<g id="Layer_3">
</g>
<g id="Layer_2">
</g>
</svg>
