<?xml version="1.0" encoding="iso-8859-1"?>
<!-- Generator: Adobe Illustrator 20.0.0, SVG Export Plug-In . SVG Version: 6.00 Build 0)  -->
<svg version="1.1" id="Layer_1" xmlns="http://www.w3.org/2000/svg" xmlns:xlink="http://www.w3.org/1999/xlink" x="0px" y="0px"
	 viewBox="0 0 44 44" style="enable-background:new 0 0 44 44;" xml:space="preserve">
<g>
	<circle cx="17" cy="39" r="2"/>
	<circle cx="17" cy="5" r="1"/>
	<path d="M32,25c-0.553,0-1,0.448-1,1v8H6c-0.553,0-1,0.448-1,1s0.447,1,1,1h25v3c0,1.654-1.346,3-3,3H6c-1.654,0-3-1.346-3-3V13
		c0-0.552-0.447-1-1-1s-1,0.448-1,1v26c0,2.757,2.243,5,5,5h22c2.757,0,5-2.243,5-5v-4v-9C33,25.447,32.553,25,32,25z"/>
	<path d="M2,10l26,0c0.552,0,1-0.448,1-1s-0.447-1-1-1L3,8V5c0-1.654,1.346-3,3-3h22c1.654,0,3,1.346,3,3v6c0,0.552,0.447,1,1,1
		s1-0.448,1-1V5c0-2.757-2.243-5-5-5H6C3.243,0,1,2.243,1,5v4C1,9.552,1.447,10,2,10z"/>
	<path d="M42.707,10.293l-3-3c-0.391-0.391-1.023-0.391-1.414,0l-17,17c-0.096,0.096-0.171,0.21-0.222,0.335l-2,5
		c-0.148,0.372-0.062,0.796,0.222,1.079C19.484,30.898,19.74,31,20,31c0.125,0,0.251-0.023,0.371-0.071l5-2
		c0.126-0.05,0.24-0.126,0.336-0.222l17-17C43.098,11.316,43.098,10.684,42.707,10.293z M24.438,27.148l-2.644,1.057l1.058-2.643
		L39,9.414L40.586,11L24.438,27.148z"/>
</g>
</svg>
