<?xml version="1.0" encoding="utf-8"?>
<!-- Generator: Adobe Illustrator 21.1.0, SVG Export Plug-In . SVG Version: 6.00 Build 0)  -->
<svg version="1.1" id="Layer_1" xmlns="http://www.w3.org/2000/svg" xmlns:xlink="http://www.w3.org/1999/xlink" x="0px" y="0px"
	 viewBox="0 0 44 44" style="enable-background:new 0 0 44 44;" xml:space="preserve">
<g>
	<path d="M19.3,22.7c0.2,0.2,0.5,0.3,0.7,0.3s0.5-0.1,0.7-0.3l11.9-11.9c0,0,0.1,0,0.1-0.1c0,0,0.1-0.1,0.1-0.1l2.3-2.3l1.8,0.4
		c0.7,0.2,1.4,0,1.9-0.5L42,5l-2.9-0.7l1.6-1.6c0.4-0.4,0.4-1,0-1.4s-1-0.4-1.4,0l-1.6,1.6L37,0l-3.2,3.2c-0.5,0.5-0.7,1.2-0.5,1.9
		l0.4,1.8L32,8.6C28.9,5.9,25.1,4.3,21,4c0,0,0,0,0,0V2c0-0.6-0.4-1-1-1s-1,0.4-1,1v2c0,0,0,0,0,0.1C9.5,4.6,2,12.4,2,22
		c0,9.9,8.1,18,18,18s18-8.1,18-18c0-3.4-0.9-6.7-2.7-9.5c-0.3-0.5-0.9-0.6-1.4-0.3c-0.5,0.3-0.6,0.9-0.3,1.4C35.2,16.1,36,19,36,22
		c0,8.8-7.2,16-16,16S4,30.8,4,22S11.2,6,20,6c3.9,0,7.6,1.4,10.6,4l-2.8,2.8C25.6,11,22.9,10,20,10c-6.6,0-12,5.4-12,12
		s5.4,12,12,12s12-5.4,12-12c0-1.9-0.4-3.8-1.3-5.5c-0.3-0.5-0.9-0.7-1.3-0.4c-0.5,0.3-0.7,0.9-0.4,1.3c0.7,1.4,1.1,2.9,1.1,4.5
		c0,5.5-4.5,10-10,10s-10-4.5-10-10s4.5-10,10-10c2.3,0,4.5,0.8,6.3,2.3l-2.9,2.9c-1-0.7-2.2-1.1-3.5-1.1c-3.3,0-6,2.7-6,6
		s2.7,6,6,6s6-2.7,6-6c0-0.6-0.4-1-1-1s-1,0.4-1,1c0,2.2-1.8,4-4,4s-4-1.8-4-4s1.8-4,4-4c0.7,0,1.4,0.2,2,0.6l-2.7,2.7
		C18.9,21.7,18.9,22.3,19.3,22.7z"/>
	<path d="M10.4,38.1c-0.5-0.2-1.1,0-1.3,0.4l-2,4c-0.2,0.5,0,1.1,0.4,1.3C7.7,44,7.8,44,8,44c0.4,0,0.7-0.2,0.9-0.6l2-4
		C11.1,39,10.9,38.4,10.4,38.1z"/>
	<path d="M30.9,38.6c-0.2-0.5-0.8-0.7-1.3-0.4c-0.5,0.2-0.7,0.8-0.4,1.3l2,4c0.2,0.4,0.5,0.6,0.9,0.6c0.2,0,0.3,0,0.4-0.1
		c0.5-0.2,0.7-0.8,0.4-1.3L30.9,38.6z"/>
</g>
</svg>
