<?xml version="1.0" encoding="iso-8859-1"?>
<!-- Generator: Adobe Illustrator 21.0.0, SVG Export Plug-In . SVG Version: 6.00 Build 0)  -->
<svg version="1.1" xmlns="http://www.w3.org/2000/svg" xmlns:xlink="http://www.w3.org/1999/xlink" x="0px" y="0px"
	 viewBox="0 0 44 44" style="enable-background:new 0 0 44 44;" xml:space="preserve">
<g id="lock">
</g>
<g id="key_x5F_1">
</g>
<g id="alert">
</g>
<g id="car">
</g>
<g id="alarm">
</g>
<g id="firewall">
</g>
<g id="handcuffs">
</g>
<g id="firefighter">
</g>
<g id="policeman">
</g>
<g id="police">
</g>
<g id="jail">
</g>
<g id="shield">
</g>
<g id="key_x5F_2">
</g>
<g id="home">
</g>
<g id="unlock">
	<g>
		<circle cx="15" cy="30" r="1"/>
		<path d="M15,38c0.552,0,1-0.448,1-1v-3.142c1.72-0.447,3-2,3-3.858c0-2.206-1.794-4-4-4s-4,1.794-4,4c0,1.858,1.28,3.411,3,3.858
			V37C14,37.552,14.448,38,15,38z M13,30c0-1.103,0.897-2,2-2s2,0.897,2,2s-0.897,2-2,2S13,31.103,13,30z"/>
		<path d="M32,0c-6.617,0-12,5.383-12,12v8H3c-1.654,0-3,1.346-3,3v18c0,1.654,1.346,3,3,3h24c1.654,0,3-1.346,3-3V23
			c0-1.654-1.346-3-3-3h-2c-0.552,0-1,0.448-1,1s0.448,1,1,1h2c0.551,0,1,0.449,1,1v1h-3c-0.552,0-1,0.448-1,1s0.448,1,1,1h3v12h-3
			c-0.552,0-1,0.448-1,1s0.448,1,1,1h3v1c0,0.551-0.449,1-1,1H3c-0.551,0-1-0.449-1-1v-1h3c0.552,0,1-0.448,1-1s-0.448-1-1-1H2V26h3
			c0.552,0,1-0.448,1-1s-0.448-1-1-1H2v-1c0-0.551,0.449-1,1-1h18c0.552,0,1-0.448,1-1v-9c0-5.514,4.486-10,10-10s10,4.486,10,10v3
			h-2v-3c0-4.411-3.589-8-8-8s-8,3.589-8,8v5c0,0.552,0.448,1,1,1s1-0.448,1-1v-5c0-3.309,2.691-6,6-6s6,2.691,6,6v4
			c0,0.552,0.448,1,1,1h4c0.552,0,1-0.448,1-1v-4C44,5.383,38.617,0,32,0z"/>
	</g>
</g>
<g id="internet">
</g>
<g id="password">
</g>
<g id="extinguisher">
</g>
<g id="scales">
</g>
<g id="camera">
</g>
</svg>
