<?xml version="1.0" encoding="iso-8859-1"?>
<!-- Generator: Adobe Illustrator 20.0.0, SVG Export Plug-In . SVG Version: 6.00 Build 0)  -->
<svg version="1.1" id="Layer_1" xmlns="http://www.w3.org/2000/svg" xmlns:xlink="http://www.w3.org/1999/xlink" x="0px" y="0px"
	 viewBox="0 0 44 44" style="enable-background:new 0 0 44 44;" xml:space="preserve">
<path d="M34,11.968h-6c-0.553,0-1,0.448-1,1.001v4.004c0,0.553,0.447,1.001,1,1.001s1-0.448,1-1.001V13.97h4v4.004h-2
	c-0.552,0-1,0.448-1,1c-0.002,1.983-0.8,2.678-3.974,4.388l-0.867,0.461c-0.838,0.443-1.554,0.833-2.159,1.252V9.966h3
	c0.347,0,0.668-0.18,0.851-0.475c0.183-0.295,0.199-0.664,0.044-0.974l-4-8.008c-0.34-0.678-1.449-0.678-1.789,0l-4,8.008
	c-0.247,0.495-0.047,1.096,0.447,1.343c0.493,0.246,1.094,0.047,1.342-0.448L22,3.195l2.382,4.769H22c-0.553,0-1,0.448-1,1.001
	v22.503c-0.603-0.465-1.349-0.912-2.312-1.381c-3.259-1.588-4.687-2.457-4.688-4.106c0-0.553-0.448-1.001-1-1.001
	c-1.103,0-2-0.898-2-2.002c0-1.104,0.897-2.002,2-2.002s2,0.898,2,2.002c0,0.553,0.447,1.001,1,1.001s1-0.448,1-1.001
	c0-2.208-1.794-4.004-4-4.004s-4,1.796-4,4.004c0,1.892,1.318,3.482,3.083,3.898c0.477,2.451,2.932,3.647,5.729,5.01
	c2.925,1.425,3.186,2.214,3.188,4.106v0.126c-1.724,0.446-3,2.015-3,3.877C18,42.204,19.794,44,22,44s4-1.796,4-4.004
	c0-0.553-0.447-1.001-1-1.001s-1,0.448-1,1.001c0,1.104-0.897,2.002-2,2.002s-2-0.898-2-2.002s0.897-2.002,2-2.002
	c0.553,0,1-0.448,1-1.001v-8.008c0.001-1.702,0.491-2.016,3.094-3.392l0.88-0.469c2.775-1.495,4.594-2.607,4.959-5.149H34
	c0.553,0,1-0.448,1-1.001v-6.006C35,12.416,34.553,11.968,34,11.968z"/>
</svg>
